<svg xmlns="http://www.w3.org/2000/svg" width="120" height="31" viewBox="0 0 120 31">
    <path fill="#FF2369" fill-rule="nonzero" d="M58.138 25.407c-.57-.243-1.244-.113-1.653.348a6.821 6.821 0 0 1-5.121 2.302c-4.003 0-7.209-3.432-6.753-7.47.345-3.045 2.81-5.51 5.892-5.886a6.83 6.83 0 0 1 6.29 2.627l-6.316 2.918-.708 3.54 10.936-5.052c-1.201-4.178-5.204-7.194-9.88-6.945-4.847.258-8.811 4.106-9.145 8.884-.392 5.597 4.094 10.257 9.684 10.257a9.742 9.742 0 0 0 7.298-3.261c.65-.73.38-1.876-.524-2.262zm-28.772-1.622l10.936-5.051c-1.202-4.178-5.205-7.194-9.88-6.945-4.848.258-8.812 4.106-9.146 8.884-.391 5.597 4.095 10.257 9.685 10.257a9.741 9.741 0 0 0 7.297-3.261c.65-.73.38-1.876-.523-2.262-.57-.243-1.245-.113-1.653.348a6.822 6.822 0 0 1-5.121 2.302c-4.004 0-7.21-3.432-6.753-7.47.344-3.045 2.809-5.51 5.89-5.886a6.83 6.83 0 0 1 6.291 2.627l-6.315 2.918-.708 3.54zM9.71 11.775a9.95 9.95 0 0 0-.991.05 1.446 1.446 0 0 0-1.273 1.15c-.191.947.6 1.808 1.574 1.71a6.962 6.962 0 0 1 1.061-.025c3.454.184 6.244 2.945 6.417 6.352.196 3.854-2.925 7.05-6.788 7.05-3.748 0-6.797-3.008-6.797-6.706 0-.524.063-1.034.18-1.524l1.31-6.5a.736.736 0 0 1-.011.008L7.083 0H4.11L.171 19.54h.004A9.475 9.475 0 0 0 0 21.415c.032 5.21 4.345 9.477 9.627 9.521 5.402.045 9.795-4.261 9.795-9.58 0-5.291-4.348-9.58-9.711-9.58zm91.935 15.681H87.817l1.431-7.097a7.062 7.062 0 0 0-1.088-5.395 7.243 7.243 0 0 0-4.636-3.056 7.323 7.323 0 0 0-7.367 2.903 7.242 7.242 0 0 0-4.52-2.894 7.42 7.42 0 0 0-1.426-.139c-3.461 0-6.464 2.433-7.14 5.786l-2.58 12.794h2.971l2.467-12.233c.47-2.336 2.772-3.853 5.14-3.388 2.368.464 3.905 2.735 3.434 5.07l-2.127 10.551h2.972l2.468-12.242c.47-2.336 2.772-3.853 5.14-3.389 2.367.465 3.905 2.735 3.434 5.071l-2.117 10.56h19.79l3.602-18.007h-2.996l-3.023 15.105zm16.718-15.098l-2.652-.002 1.353-6.76h-2.996l-1.353 6.758-2.54-.003-.556 2.88 2.52-.001-3.026 15.128h2.997l3.026-15.129h3.226c.8 0 1.45-.637 1.454-1.426a1.445 1.445 0 0 0-1.453-1.445zm-9.56-5.609l-.004.019a1.464 1.464 0 0 1-1.44 1.165c-.928 0-1.623-.837-1.44-1.733l.003-.02a1.464 1.464 0 0 1 1.44-1.164c.927 0 1.622.836 1.44 1.733z"/>
</svg>
