<svg xmlns="http://www.w3.org/2000/svg" xmlns:xlink="http://www.w3.org/1999/xlink" width="76" height="48" viewBox="0 0 76 48">
    <defs>
        <path id="a" d="M.005.007h49.877V19.81H.005z"/>
        <path id="c" d="M0 47.238h76V0H0z"/>
    </defs>
    <g fill="none" fill-rule="evenodd">
        <g transform="translate(5.374 27.429)">
            <mask id="b" fill="#fff">
                <use xlink:href="#a"/>
            </mask>
            <path fill="#EFEFEF" d="M31.773 11.02c0-.056-.076-.112-.21-.15.706.188 1.144.433 1.334.677 1.219 1.356 2.038 2.542 2.475 3.54a114.05 114.05 0 0 0-5.75-1.864c.419-.17 1.123-.885 2.132-2.165 0-.038 0-.038.02-.038zm-3.351-.997l-.667-.452c.59.282 1.22.546 1.905.753l-1.238-.301zm6.855 1.148c-.438-.433-.666-.885-.685-1.43.171-.377-.076-.81-.705-1.262-.647-.452-1.733-.941-3.237-1.43a23.873 23.873 0 0 1-1.543-.453 1245.45 1245.45 0 0 1-8.607-2.56c-2.856-1.261-5.884-2.203-9.121-2.956-.057-.018-.114-.018-.152-.018C10.179.798 9.55.459 9.322.007a3.706 3.706 0 0 1-.152.584C8.465.215 7.799.007 7.151.045c-1.104.15-1.18.583-.17 1.261-.896.094-1.277.264-1.03.584 1.924.79 4.21 1.299 6.799 1.544 3.2.376 5.77.847 7.712 1.374a68.867 68.867 0 0 1 6.341 2.541c-2.951-.866-5.636-1.524-8.13-1.995-5.637-.584-10.57-1.487-14.816-2.73C1.687 1.946.563 1.89.544 2.436c-.057-.038-.096-.038-.115-.057-.19.17-.285.34-.342.452l-.076.377c-.039.338.133.564.457.753C6.466 5.354 12.33 6.107 18.044 6.22a105.57 105.57 0 0 1 8.854 2.9c.02.018.077.056.096.074.019 0 .057 0 .076.02-.02-.02-.076-.02-.095-.02h-.02c-.152-.018-.152.02-.057.094.477.283.838.546 1.105.753.038.076.095.114.133.17 1.048.282 1.905.508 2.647.678.248.075.362.131.286.207-.038 0-.038 0-.038.038-2.133 1.374-3.085 2.127-2.818 2.146 2.78.79 5.084 1.656 6.969 2.597 1.447.622 2.437.848 2.97.66.896-.377 1.486-.509 1.772-.358l.361.226a2.027 2.027 0 0 0-1.028.094c-.628.339-.8.64-.552.903.324.113.666.264 1.123.32-.742-.282-.856-.508-.285-.658.266-.076.457-.132.647-.094.381.244.476.376.248.357a.771.771 0 0 0-.61.15c0 .076.096.151.305.246-.19-.245-.019-.32.476-.208.381.15.533.283.495.414-.685-.206-1.161-.15-1.409.17.229.15.495.264.724.339-.495-.264-.438-.396.114-.47.324.112.533.188.647.282h.02c.342.282.647.527.952.659-.381-.132-.59-.114-.629.056.172-.113.495-.094.971.113 2.019.885 3.733.96 5.18.264.895.244 1.619.018 2.095-.697.285-.64.038-1.205-.82-1.638-.799-.32-1.104-.508-.913-.602.019-.02.057-.02.114-.02h.095a2.942 2.942 0 0 1 1.048.057c-.42-.131-.934-.207-1.524-.226-.419 0-.724.113-.952.34a3.735 3.735 0 0 1-1.01-.283c-.19-.207-.152-.452.077-.659-.324.207-.495.414-.42.621l-.228-.056c-.323-.113-.609-.226-.8-.396-.057-.113 0-.188.134-.225.095-.057.248-.094.476-.057a1.732 1.732 0 0 0-.61-.037c-.285.037-.475.094-.551.225 0 .094.057.132.152.188-.19.02-.438.02-.667-.037-.228-.057-.304-.188-.21-.32.134-.132.4-.188.743-.207.096.019.19.056.267.094-.057-.113-.114-.17-.171-.188-.343-.095-.572-.095-.705-.095-.476.057-.78.17-.914.32-.114.076-.171.226-.171.452a.54.54 0 0 0-.362.49l-.971-.828c.076-.264.438-.434 1.142-.565.4-.34.115-.66-.838-1.036-.228-.113-.419-.226-.666-.282v-.038c-.076-.132-.076-.282.057-.433.02-.301-.647-.452-2.057-.452-.933-.432-1.847-.903-2.76-1.336h-.02c-.019-.038-.019-.038-.057-.038l-.038-.037c-.133-.076-.247-.113-.362-.17z" mask="url(#b)"/>
        </g>
        <path fill="#FECB00" d="M11.664 2.688c.06.018.119.018.198.037.337.093.614.075.792-.037.238-.242.377-.466.397-.69a1.219 1.219 0 0 1-.397.373c-.02.037-.02.037-.06.056h-.058c-.179 0-.258-.26-.278-.727-.139-.633-.594-1.117-1.426-1.49-.99-.335-1.546-.28-1.645.242-1.426-.074-2.06.56-1.96 1.9.019.299-.08.429-.318.41.238.112.357.056.396-.167-.04.186.08.465.258.82.04.055.08.204.04.41-.337.148-.496.037-.555-.299-.06.13-.02.28.06.485.435.111.693.018.752-.354.178.074.258.242.277.465-.138.243-.277.243-.455 0 .04.15.079.243.178.317.198.019.337-.037.396-.093.08-.112.179 0 .278.317-.04.074-.198.13-.377.167-.416.094-.614-.111-.594-.559a.988.988 0 0 0-.119.597c.158.26.555.428 1.228.465a.679.679 0 0 0 .535-.298c.04-.074.08-.167.12-.298-.08-.521-.278-.875-.694-1.118-.02 0-.02 0-.04-.037-.257-.205-.376-.503-.456-.894.159-.447.416-.447.773 0 .495-.261.753-.578.832-.988.297.448.773.783 1.446.95-.713-.335-1.208-.763-1.466-1.304.02.02.06.038.08.112.435.466 1.01.839 1.683 1.137.04.018.1.056.179.093"/>
        <path fill="#FDD17A" d="M11.014 2.406c-.065-.018-.113-.018-.161-.035-.065-.034-.114-.068-.146-.085-.016.017-.016.051-.048.085.29.223.145.789-.42 1.715-.065.102-.146.171-.26.188.227.172.373.257.47.257a.645.645 0 0 0 .581-.068c.065-.017.13-.12.178-.275.016-.017-.016-.102-.113-.188.032.051.032.086 0 .154a.595.595 0 0 1-.436.103c-.162-.069-.243-.171-.21-.274a.286.286 0 0 1 .21-.24c0 .085.032.12.08.171a.871.871 0 0 0 .42 0c.098-.051.146-.12.178-.24-.064.069-.129.12-.21.12a.336.336 0 0 1-.242-.12.717.717 0 0 1-.08-.514l.031-.086c.146.155.388.24.68.257a1.062 1.062 0 0 1-.615-.411c-.016-.189 0-.36.113-.514"/>
        <path fill="#1D1D1B" d="M8.444 28.19c-.18.172-.38.328-.58.452-.722.421-1.544.655-2.486.701-.04.546.18.904.582 1.06.52.233.921-.094 1.222-.935.621.327 1.002-.031 1.182-1.06.04-.077.04-.155.08-.218"/>
        <path d="M12.283 7.619c.027.508.11 1.016.192 1.524"/>
        <path fill="#1D1D1B" d="M70.312 13.81c0-.384.239-.556.718-.556.459 0 .719.172.719.555v12.724c0 .384-.26.575-.719.575-.48 0-.718-.191-.718-.575V13.81zm5.688.498c0-2.415-1.657-3.641-4.95-3.641-3.353 0-5.03 1.226-5.03 3.66V26.36c0 1.054.46 1.897 1.397 2.472.899.613 2.096.881 3.613.881 1.457 0 2.655-.306 3.573-.9C75.54 28.22 76 27.376 76 26.323V14.308zM61.773 18.382c.286-.522.409-1.18.409-1.991 0-2.03-.307-3.5-.961-4.37-.675-.89-2.045-1.354-4.09-1.354-3.272 0-4.929 1.237-4.929 3.674v3.287h3.906V14.38c0-.54.307-.812.92-.812.614 0 .92.426.92 1.277 0 1.605-.265 2.881-.817 3.828L52.202 27.2v2.514h9.98v-2.436h-5.338l4.929-8.896zM46.588 21.254v-3.598c0-.497.223-.755.615-.755.429 0 .634.258.634.755v3.598h-1.25zm.596-6.778c-2.796 0-4.194 1.093-4.194 3.3v9.42c0 2.187 1.398 3.28 4.194 3.28 2.852 0 4.25-1.033 4.25-3.16v-3.2h-3.597v3.18c0 .497-.205.775-.634.775-.392 0-.615-.278-.615-.775V23.62h4.846v-5.983c0-2.126-1.398-3.16-4.25-3.16z"/>
        <mask id="d" fill="#fff">
            <use xlink:href="#c"/>
        </mask>
        <path fill="#1D1D1B" d="M62.95 28.952h3.07v-2.285h-3.07zM38.028 16.507c.408 0 .612.232.612.657v9.495c0 .445-.204.677-.612.677-.427 0-.631-.232-.631-.677v-9.476c0-.425.204-.676.63-.676zm4.194 13.014V10.667H38.64v4.06c-.5-.406-1.243-.58-2.227-.58-.724 0-1.355.174-1.856.58-.52.387-.78.87-.78 1.528V27.22c0 .773.335 1.392.984 1.817.613.445 1.43.677 2.357.677a3.32 3.32 0 0 0 2.08-.715l.296.522h2.728zM27.398 15.09v-.518h-3.6v15.142h3.6v-12.19c0-.441.205-.652.613-.652.445 0 .65.23.65.671v12.171h3.581V16.623c0-.71-.278-1.246-.835-1.61-.52-.364-1.132-.537-1.819-.537-1.002 0-1.707.192-2.19.613M10.797 14.397l.17-.64c-.02.407-.02.814.038 1.202l-.208-.562zm7.298 3.16c0-.485.208-.737.643-.737.435 0 .643.252.643.737v9.402c0 .485-.208.756-.643.756-.435 0-.643-.271-.643-.756v-9.402zM4.046 18.623v-5.234c.757 0 1.135.329 1.135.969v3.218c0 .698-.378 1.047-1.135 1.047zm0 2.035c.757 0 1.135.33 1.135.99v4.788c0 .64-.378.988-1.135.988v-6.766zm7.072-8.2h-.038c-1.758-.64-2.836-.93-3.157-.911.208-1.163.321-2.307.397-3.432.87.912 1.777 2.094 2.722 3.548.17.271.208.601.133 1.008.038-.116 0-.174-.057-.213zm-.36.213c.076.039.114.116.095.252a8.184 8.184 0 0 0-.359 1.435c.019.077.057.116.076.174.151.291.283.601.359.989.019.078.076.078.132.058v-.039c0-.019 0-.019.02-.038v.038c0 .04 0 .078.037.117-.076 1.822-.265 3.606-.605 5.312-.492.446-.964.95-1.4 1.434-.037-1.357-.831-2.249-2.476-2.675 1.57-.543 2.344-1.454 2.344-2.792V14.32c0-.834-.189-1.512-.642-2.016.567.077 1.36.213 2.344.33.038 0 .038 0 .076.038zm12.272 4.866c0-1.066-.435-1.822-1.285-2.326-.832-.504-1.835-.756-2.97-.756-2.098 0-3.421.581-4.027 1.686.038-.097.038-.174.057-.252.076-.93.038-1.647-.151-2.23-.227-.561-.567-.95-1.04-1.201-.567-.427-.983-.873-1.21-1.318-.02-.097-.057-.194-.057-.272v-.058l-.019-.039a81.057 81.057 0 0 1-.246-1.977c.435-.504.53-.834.246-1.028-.265-.174-.416-.33-.378-.465-.038-.116-.038-.368-.038-.717 0-.407-.246-.64-.756-.718a1.41 1.41 0 0 1-1.059-.038l-.473-.97c.284.175.492.252.662.214.133-.02.227-.097.303-.214.661-1.047.832-1.686.491-1.938.038-.04.038-.078.057-.097-.643-.31-1.191-.698-1.607-1.183-.02-.077-.057-.097-.076-.116.246.562.719 1.008 1.4 1.357-.644-.175-1.097-.524-1.38-.989-.077.427-.322.756-.795 1.028-.34-.466-.586-.466-.738 0 .076.407.19.717.435.93.02.039.02.039.038.039.397.252.586.62.662 1.163a1.794 1.794 0 0 1-.113.31l.113.31c0 .233-.34.33-1.135.35-.378.058-.567.581-.548 1.57.227 1.24.227 2.54-.019 3.955-.756-.388-1.626-.582-2.59-.582H0v18.902h5.105c.17 0 .34 0 .492-.039-.038.679.17 1.125.548 1.319.492.29.87-.117 1.154-1.164.586.408.945-.038 1.115-1.318.038-.097.038-.194.076-.271.416-.601.624-1.357.624-2.269.586-1.59 1.437-3.179 2.552-4.75.53-1.22.946-2.655 1.248-4.361.133 1.337.17 2.714.076 4.148-.265 1.086-.832 2.346-1.74 3.78-.813 1.087-1.19 2.27-1.153 3.568.208.31.586.33 1.021.058.303.873.756 1.202 1.4.911.283-.232.34-.62.245-1.143.208.077.435.232.662.387-.378-.426-.473-.891-.303-1.454.02-.019.02-.019.02-.058.566-1.706.793-3.528.661-5.467.19-1.26.378-2.52.624-3.76v8.878c0 2.133 1.456 3.2 4.349 3.2 2.836 0 4.254-1.01 4.254-3.083v-9.442z" mask="url(#d)"/>
    </g>
</svg>
