<svg xmlns="http://www.w3.org/2000/svg" width="40" height="39" viewBox="0 0 40 39">
    <g fill="none" fill-rule="evenodd">
        <path fill="#0C3769" d="M31.99 24.627c-3.524 0-6.391 2.868-6.391 6.395 0 3.526 2.867 6.394 6.39 6.394 3.525 0 6.392-2.868 6.392-6.394 0-3.527-2.867-6.395-6.391-6.395zm0 14.38c-4.401 0-7.982-3.583-7.982-7.985 0-4.404 3.58-7.986 7.982-7.986 4.4 0 7.982 3.582 7.982 7.986 0 4.402-3.581 7.985-7.982 7.985z"/>
        <path fill="#20C4EE" d="M30.048 31.41v.816c0 1.068.868 1.937 1.936 1.937h.011a1.938 1.938 0 0 0 1.936-1.937v-.816h-3.883zm1.947 4.343h-.01a3.531 3.531 0 0 1-3.528-3.527v-1.611c0-.44.357-.796.795-.796h5.474c.44 0 .796.356.796.796v1.611a3.53 3.53 0 0 1-3.527 3.527z"/>
        <path fill="#20C4EE" d="M34.227 31.41a.796.796 0 0 1-.795-.795v-1.301a1.44 1.44 0 0 0-1.442-1.434 1.44 1.44 0 0 0-1.443 1.434v1.3a.796.796 0 0 1-1.591 0v-1.3a3.033 3.033 0 0 1 3.034-3.025 3.032 3.032 0 0 1 3.033 3.025v1.3a.796.796 0 0 1-.796.796"/>
        <path fill="#0C3769" d="M19.198 23.717a.796.796 0 0 1-.796-.795V6.116a.796.796 0 0 1 1.591 0v16.806a.796.796 0 0 1-.795.795"/>
        <path fill="#0C3769" d="M34.549 24.172a.78.78 0 0 1-.33-.072 19.09 19.09 0 0 0-14.734-.436.795.795 0 0 1-.574-1.484 20.706 20.706 0 0 1 14.842 0V3.293a19.09 19.09 0 0 0-14.268-.233.793.793 0 0 1-1.028-.454.794.794 0 0 1 .454-1.029 20.687 20.687 0 0 1 15.969.473c.284.13.465.413.465.724v20.602a.795.795 0 0 1-.796.796"/>
        <path fill="#0C3769" d="M3.847 24.172a.795.795 0 0 1-.795-.795V2.773c0-.312.181-.594.465-.724a20.687 20.687 0 0 1 15.968-.473.795.795 0 1 1-.574 1.483 19.09 19.09 0 0 0-14.268.233V22.18a20.7 20.7 0 0 1 14.842 0 .795.795 0 0 1-.574 1.484 19.089 19.089 0 0 0-14.734.436.781.781 0 0 1-.33.072M37.402 27.018a.796.796 0 0 1-.795-.795V7.636l-2.562-2.095a.795.795 0 0 1 1.008-1.23l2.853 2.333a.794.794 0 0 1 .292.616v18.963a.796.796 0 0 1-.796.795"/>
        <path fill="#0C3769" d="M26.118 27.018H.994a.796.796 0 0 1-.795-.795V7.26c0-.238.107-.465.292-.616L3.343 4.31a.795.795 0 1 1 1.008 1.23L1.79 7.637v17.791h24.328a.796.796 0 0 1 0 1.591"/>
    </g>
</svg>
