<svg xmlns="http://www.w3.org/2000/svg" width="32" height="28" viewBox="0 0 32 28">
    <g fill="none" fill-rule="evenodd">
        <path fill="#0C3769" d="M15.685 27.443a3.44 3.44 0 0 1-3.103-1.973 2.176 2.176 0 0 0-1.857-1.253 2.165 2.165 0 0 0-1.965 1.04l-.08.115a3.412 3.412 0 0 1-2.258 1.556 3.385 3.385 0 0 1-2.657-.587l-2.338-1.707A3.508 3.508 0 0 1 .013 22.11a3.447 3.447 0 0 1 .978-2.729l1.831-1.884a2.258 2.258 0 0 0 .64-1.6 2.214 2.214 0 0 0-.684-1.583L1.516 13.08a3.456 3.456 0 0 1-1.023-3.005 3.446 3.446 0 0 1 1.805-2.577L2.67 7.3a2.258 2.258 0 0 0 1.156-1.68l.293-2.213C4.325 1.878 5.525.652 7.036.43l2.72-.391A3.372 3.372 0 0 1 12.2.617a.623.623 0 0 1 .151.862.608.608 0 0 1-.862.151 2.186 2.186 0 0 0-1.556-.364l-2.72.4c-.968.133-1.733.924-1.857 1.902L5.053 5.79A3.462 3.462 0 0 1 3.25 8.403l-.373.196a2.165 2.165 0 0 0-1.147 1.653 2.231 2.231 0 0 0 .649 1.938l1.271 1.227a3.496 3.496 0 0 1 1.058 2.462 3.479 3.479 0 0 1-.987 2.48l-1.84 1.884a2.279 2.279 0 0 0-.631 1.77c.062.648.391 1.235.916 1.617l2.337 1.707a2.155 2.155 0 0 0 1.69.373 2.185 2.185 0 0 0 1.44-.996l.07-.115a3.385 3.385 0 0 1 3.094-1.627c1.27.071 2.355.81 2.906 1.965.498 1.049 1.725 1.537 2.783 1.102l4.933-1.991a.624.624 0 0 1 .471 1.156l-4.933 1.99a3.37 3.37 0 0 1-1.271.25M24.431 23.594a.625.625 0 0 1-.516-.969l5.565-8.257c.258-.374.391-.81.391-1.262V9.034a2.23 2.23 0 0 0-.826-1.742L24.378 3.47a2.15 2.15 0 0 0-2.942.178l-.8.835a3.403 3.403 0 0 1-4.427.445l-.702-.49a.623.623 0 0 1-.151-.861.627.627 0 0 1 .87-.16l.703.497c.88.614 2.062.49 2.8-.284l.8-.836c1.253-1.306 3.236-1.43 4.631-.284l4.676 3.822a3.485 3.485 0 0 1 1.28 2.702v4.072a3.48 3.48 0 0 1-.605 1.955l-5.555 8.258a.638.638 0 0 1-.525.275M13.853 3.15a.578.578 0 0 1-.435-.187.578.578 0 0 1-.187-.435c0-.16.062-.33.187-.436.231-.24.649-.24.871 0a.578.578 0 0 1 .187.436c0 .169-.063.32-.187.435a.565.565 0 0 1-.436.187"/>
        <path fill="#20C4EE" d="M16.156 11.408H15a3.453 3.453 0 0 1-2.738-1.342 2.218 2.218 0 0 0-2.702-.65l-1.164.552a.613.613 0 0 1-.827-.294.616.616 0 0 1 .293-.826l1.165-.551A3.44 3.44 0 0 1 13.24 9.3a2.206 2.206 0 0 0 1.76.862h1.156c.337 0 .684-.08.995-.24l2.258-1.146a.632.632 0 0 1 .836.275.62.62 0 0 1-.276.836l-2.258 1.146a3.4 3.4 0 0 1-1.555.374M18.493 20.448a4.02 4.02 0 0 1-2.408-.8l-1.254-.925a2.8 2.8 0 0 0-2.302-.48l-.089.018c-.329.08-.631.205-.915.391l-1.823 1.182a.628.628 0 0 1-.862-.186.621.621 0 0 1 .187-.862l1.822-1.183c.4-.257.844-.444 1.307-.55l.089-.019a4.025 4.025 0 0 1 3.324.685l1.253.933c.765.56 1.751.702 2.65.374a.618.618 0 0 1 .8.364.615.615 0 0 1-.365.8 4.132 4.132 0 0 1-1.414.258"/>
        <path fill="#0C3769" d="M22.965 16.154h-.8a.624.624 0 0 1-.623-.622c0-.346.276-.622.623-.622h.8c.346 0 .675-.16.897-.444.223-.294.294-.667.205-1.032a.62.62 0 0 1 1.2-.311 2.408 2.408 0 0 1-.427 2.098 2.34 2.34 0 0 1-1.875.933"/>
    </g>
</svg>
