<svg xmlns="http://www.w3.org/2000/svg" width="162" height="38" viewBox="0 0 162 38">
    <g fill="#6B7C93" fill-rule="evenodd">
        <path d="M.406 24.575V35.84c0 .372.11.737.322 1.048a1.939 1.939 0 0 0 2.662.524l8.595-5.631c.21-.141.393-.318.534-.526.586-.868.349-2.04-.534-2.618L3.39 23.001a1.956 1.956 0 0 0-1.066-.312c-1.06 0-1.918.843-1.918 1.886M4.979.869C2.455.869.406 2.884.406 5.369V16.85L32.137 37.73V5.368c0-2.484-2.049-4.5-4.575-4.5H4.979zM156.317 30.476c-.834 0-1.57-.119-2.206-.357a4.385 4.385 0 0 1-1.607-1.014 4.307 4.307 0 0 1-.989-1.588c-.225-.62-.338-1.313-.338-2.079v-8.911h-1.488a1 1 0 0 1-.693-.258c-.191-.172-.287-.424-.287-.756V13.5l2.79-.532 1.03-4.207c.136-.532.52-.798 1.15-.798h2.74v5.038h4.26v3.525h-4.26v8.562c0 .4.098.73.295.99.197.26.482.39.854.39a1.701 1.701 0 0 0 .82-.19 5.71 5.71 0 0 1 .27-.134.707.707 0 0 1 .297-.058c.157 0 .284.036.38.108.095.072.194.186.296.34l1.589 2.445c-.676.499-1.437.872-2.283 1.122-.845.25-1.719.374-2.62.374zm-25.766-.266V12.97h3.246c.327 0 .6.072.82.216.22.144.374.36.465.648l.304.998c.338-.31.687-.598 1.049-.864a6.15 6.15 0 0 1 1.158-.674 6.95 6.95 0 0 1 1.336-.432c.478-.105 1-.158 1.563-.158.958 0 1.806.163 2.545.49.738.328 1.36.782 1.868 1.364.507.581.89 1.274 1.15 2.078.259.804.389 1.677.389 2.619V30.21h-5.242V19.254c0-.843-.197-1.5-.591-1.97-.395-.471-.975-.707-1.742-.707-.574 0-1.115.122-1.623.366a6.31 6.31 0 0 0-1.454.98V30.21h-5.241zm-10.787-13.95c-1.003 0-1.786.281-2.35.84-.563.56-.935 1.367-1.116 2.42h6.544c0-.41-.054-.81-.161-1.197a2.902 2.902 0 0 0-.524-1.04 2.675 2.675 0 0 0-.956-.74c-.394-.188-.873-.282-1.437-.282zm-.101-3.557c1.161 0 2.223.178 3.187.532.963.355 1.792.87 2.485 1.546.693.676 1.234 1.505 1.623 2.486.39.98.583 2.092.583 3.333 0 .388-.016.704-.05.948a1.491 1.491 0 0 1-.186.582.706.706 0 0 1-.364.3 1.733 1.733 0 0 1-.583.082h-10.11c.169 1.442.614 2.486 1.336 3.134.72.649 1.65.973 2.79.973.608 0 1.132-.072 1.572-.216.439-.144.83-.305 1.174-.483.344-.177.66-.337.947-.482.287-.143.59-.216.905-.216.417 0 .732.15.946.45l1.522 1.845a7.744 7.744 0 0 1-1.75 1.488 9.14 9.14 0 0 1-1.927.898c-.66.216-1.319.365-1.978.448-.66.084-1.288.125-1.885.125a9.995 9.995 0 0 1-3.457-.59 7.952 7.952 0 0 1-2.824-1.754c-.806-.776-1.443-1.74-1.91-2.893-.468-1.153-.702-2.494-.702-4.024 0-1.152.2-2.244.6-3.275.4-1.03.975-1.934 1.725-2.71.749-.776 1.656-1.391 2.721-1.845 1.065-.455 2.269-.682 3.61-.682zM98.192 30.21V12.97h3.11c.26 0 .477.022.651.066.175.045.322.114.44.208.118.094.209.22.27.374.062.156.116.344.161.565l.287 1.613c.643-.975 1.364-1.745 2.165-2.311.8-.565 1.673-.848 2.62-.848.8 0 1.443.189 1.928.566l-.677 3.79c-.045.233-.135.397-.27.49-.135.095-.316.142-.541.142-.192 0-.418-.025-.676-.074a5.297 5.297 0 0 0-.981-.076c-1.375 0-2.457.721-3.246 2.162V30.21h-5.241zm-13.965 0V12.97h3.111c.26 0 .476.022.65.066.175.045.322.114.44.208a.9.9 0 0 1 .271.374c.062.156.116.344.16.565l.288 1.613c.642-.975 1.364-1.745 2.164-2.311.8-.565 1.674-.848 2.62-.848.8 0 1.443.189 1.928.566l-.676 3.79c-.046.233-.136.397-.271.49-.135.095-.316.142-.541.142-.191 0-.417-.025-.676-.074a5.297 5.297 0 0 0-.98-.076c-1.376 0-2.458.721-3.247 2.162V30.21h-5.24zM69.518 12.97v10.94c0 .854.197 1.513.592 1.978.395.466.975.699 1.742.699.574 0 1.112-.117 1.614-.35.501-.232.99-.56 1.463-.98V12.969h5.24V30.21h-3.245c-.655 0-1.082-.288-1.285-.865l-.322-.997a10.22 10.22 0 0 1-1.048.873c-.36.26-.747.482-1.158.665a6.96 6.96 0 0 1-1.327.432 7.152 7.152 0 0 1-1.556.158c-.958 0-1.806-.163-2.544-.49a5.23 5.23 0 0 1-1.869-1.372 5.954 5.954 0 0 1-1.149-2.078c-.26-.798-.389-1.674-.389-2.627v-10.94h5.241zm-8.69 4.09a2.89 2.89 0 0 1-.456.449c-.147.111-.355.166-.625.166-.26 0-.494-.061-.702-.183l-.702-.407a5.33 5.33 0 0 0-.913-.407c-.35-.122-.783-.183-1.302-.183-.642 0-1.197.116-1.665.349a3.076 3.076 0 0 0-1.158.997c-.304.432-.53.962-.676 1.588a9.347 9.347 0 0 0-.22 2.12c0 1.652.324 2.92.972 3.807.648.888 1.541 1.33 2.68 1.33.609 0 1.09-.074 1.445-.224.356-.15.657-.316.905-.499.248-.182.476-.352.685-.507.208-.155.47-.233.786-.233.416 0 .733.15.947.45l1.521 1.845a8.225 8.225 0 0 1-1.708 1.488 8.624 8.624 0 0 1-1.834.898 9.578 9.578 0 0 1-1.885.448c-.631.084-1.245.125-1.843.125-1.07 0-2.093-.2-3.068-.598a7.516 7.516 0 0 1-2.57-1.738c-.738-.759-1.324-1.692-1.758-2.801-.434-1.108-.651-2.372-.651-3.791 0-1.241.188-2.403.566-3.483a7.878 7.878 0 0 1 1.673-2.81c.739-.792 1.652-1.416 2.74-1.87 1.087-.455 2.347-.682 3.779-.682 1.374 0 2.58.216 3.617.648a8.701 8.701 0 0 1 2.807 1.895l-1.386 1.813z"/>
    </g>
</svg>
