<svg xmlns="http://www.w3.org/2000/svg" width="100" height="100" viewBox="0 0 100 100">
    <path fill="#6B7C93" fill-rule="evenodd" d="M98.33 55.244a10.32 10.32 0 0 1-4.85 1.204c-5.7 0-10.335-4.606-10.335-10.268 0-3.02 1.32-5.74 3.415-7.62l.002-.002c.44-.419.555-.548.598-1.005.053-.548-.598-1.641-.598-1.641h.002a7.775 7.775 0 0 1-1.036-3.883c0-3.365 2.14-6.244 5.138-7.362h-.002s2.408-.92.37-3.938a2.148 2.148 0 0 1-.16-.277C81.723 8.05 66.954 0 50.292 0 22.517 0 0 22.372 0 49.969c0 27.598 22.517 49.97 50.292 49.97 25.148 0 45.985-18.342 49.701-42.295.108-2.46-1.093-2.512-1.663-2.4zM30.454 24.363h3.862a2.284 2.284 0 0 1 2.292 2.277 2.284 2.284 0 0 1-2.292 2.277h-3.862a2.284 2.284 0 0 1-2.292-2.277 2.284 2.284 0 0 1 2.292-2.277zm12.165 20.849c-1.826 6.242-5.665 9.84-11.736 10.998a2.288 2.288 0 0 1-2.683-1.807 2.277 2.277 0 0 1 1.818-2.665c4.336-.827 6.865-3.232 8.2-7.797 1.333-4.556 1.333-10.747 1.333-17.301a2.284 2.284 0 0 1 2.292-2.277 2.284 2.284 0 0 1 2.292 2.277c0 6.887 0 13.393-1.516 18.572zm20.42 9.191a2.288 2.288 0 0 1-2.682 1.807c-6.071-1.158-9.91-4.756-11.736-10.998-1.515-5.179-1.515-11.685-1.515-18.572a2.284 2.284 0 0 1 2.29-2.277 2.285 2.285 0 0 1 2.293 2.277c0 6.554 0 12.745 1.333 17.3 1.336 4.566 3.865 6.97 8.2 7.798a2.277 2.277 0 0 1 1.818 2.665zm-2.22-14.072h-3.71a2.284 2.284 0 0 1-2.29-2.276 2.284 2.284 0 0 1 2.29-2.277h3.71a2.284 2.284 0 0 1 2.292 2.277 2.284 2.284 0 0 1-2.292 2.276zm1.882-11.414h-5.775a2.284 2.284 0 0 1-2.291-2.277 2.285 2.285 0 0 1 2.291-2.277h5.775a2.284 2.284 0 0 1 2.291 2.277 2.284 2.284 0 0 1-2.291 2.277zm6.796-.033a2.252 2.252 0 0 1-2.259-2.244 2.25 2.25 0 0 1 2.259-2.244 2.25 2.25 0 0 1 2.258 2.244c0 1.24-1.01 2.244-2.258 2.244zm8.808.033v25.057a2.284 2.284 0 0 1-2.291 2.277 2.284 2.284 0 0 1-2.292-2.277V26.64a2.284 2.284 0 0 1 2.292-2.277c.03 0 .058.003.087.004.03 0 .059-.004.089-.004h6.53a2.284 2.284 0 0 1 2.292 2.277 2.284 2.284 0 0 1-2.291 2.277h-4.416zM93.48 40.465c3.172 0 5.752 2.564 5.752 5.715s-2.58 5.715-5.752 5.715c-3.172 0-5.751-2.564-5.751-5.715s2.58-5.715 5.751-5.715zm-.037-11.745c1.837 0 3.331 1.485 3.331 3.31s-1.494 3.31-3.331 3.31-3.331-1.485-3.331-3.31 1.494-3.31 3.331-3.31z"/>
</svg>
