<svg xmlns="http://www.w3.org/2000/svg" width="31" height="36" viewBox="0 0 31 36">
    <g fill="none" fill-rule="evenodd">
        <path fill="#0C3769" d="M15.68 2.203c-2.68 0-5.66 6.612-5.66 16.1 0 9.488 2.98 16.1 5.66 16.1 2.67 0 5.65-6.612 5.65-16.1 0-9.488-2.98-16.1-5.65-16.1zm0 33.6c-3.96 0-7.06-7.687-7.06-17.5 0-9.813 3.1-17.5 7.06-17.5 3.95 0 7.05 7.687 7.05 17.5 0 9.813-3.1 17.5-7.05 17.5z"/>
        <path fill="#0C3769" d="M5.51 30.014c-.46 0-.89-.034-1.3-.105-1.21-.21-2.1-.729-2.67-1.541-2.26-3.273 2.16-10.259 10.08-15.904 5.8-4.137 11.89-6.397 15.52-5.767 1.21.211 2.1.729 2.67 1.541.69.999.79 2.373.29 3.973-.11.37-.5.577-.87.462a.693.693 0 0 1-.46-.875c.25-.82.44-1.964-.12-2.763-.34-.492-.93-.815-1.75-.959-3.23-.562-9.04 1.658-14.47 5.527C4.78 19.064 1.16 25.347 2.7 27.571c.34.493.93.815 1.75.959 3.23.562 9.04-1.658 14.47-5.527 3.62-2.585 6.72-5.666 8.5-8.452a.704.704 0 0 1 .97-.213c.33.208.42.641.21.967-1.9 2.975-5.05 6.113-8.87 8.837-5.15 3.676-10.54 5.872-14.22 5.872"/>
        <path fill="#20C4EE" d="M2.65 14.783a.71.71 0 0 1-.5-.203.762.762 0 0 1-.2-.497.73.73 0 0 1 .2-.49c.26-.266.73-.266 1 0 .12.126.2.308.2.49s-.08.364-.2.497a.71.71 0 0 1-.5.203"/>
        <path fill="#0C3769" d="M25.84 30.014c-3.68 0-9.07-2.196-14.22-5.872-3.36-2.395-6.27-5.184-8.2-7.855a.698.698 0 1 1 1.13-.82c1.85 2.55 4.64 5.227 7.88 7.536 5.43 3.869 11.24 6.089 14.47 5.527.82-.144 1.41-.467 1.75-.959 1.54-2.224-2.08-8.507-9.73-13.968C13.49 9.734 7.67 7.511 4.45 8.076c-.82.144-1.41.466-1.75.959-.55.784-.38 1.902-.14 2.7.11.371-.1.761-.47.872a.702.702 0 0 1-.87-.47c-.47-1.567-.36-2.916.32-3.899.57-.812 1.46-1.33 2.67-1.541 3.63-.631 9.72 1.631 15.52 5.767 7.92 5.645 12.34 12.631 10.08 15.904-.57.812-1.46 1.331-2.67 1.541a7.59 7.59 0 0 1-1.3.105"/>
        <path fill="#20C4EE" d="M15.68 16.833c-.8 0-1.44.66-1.44 1.47 0 .81.64 1.47 1.44 1.47.79 0 1.43-.66 1.43-1.47 0-.81-.64-1.47-1.43-1.47zm0 4.34c-1.57 0-2.84-1.287-2.84-2.87 0-1.583 1.27-2.87 2.84-2.87 1.56 0 2.83 1.287 2.83 2.87 0 1.583-1.27 2.87-2.83 2.87z"/>
    </g>
</svg>
