<svg xmlns="http://www.w3.org/2000/svg" width="30" height="30" viewBox="0 0 30 30">
    <g fill="none" fill-rule="evenodd">
        <path fill="#20C4EE" d="M25.065 5.335a.536.536 0 0 1-.403-.17.549.549 0 0 1 0-.795c.205-.21.59-.21.8 0a.543.543 0 0 1 .165.398.53.53 0 0 1-.164.397.531.531 0 0 1-.398.17"/>
        <path fill="#0C3769" d="M15.142 29.668C7.005 29.668.385 23.05.385 14.91S7.005.154 15.142.154c2.678 0 5.301.722 7.584 2.092.27.162.356.51.195.786a.575.575 0 0 1-.779.195 13.53 13.53 0 0 0-7-1.938C7.632 1.29 1.52 7.403 1.52 14.911s6.111 13.621 13.622 13.621c7.51 0 13.622-6.113 13.622-13.621 0-2.611-.74-5.149-2.14-7.33a.57.57 0 0 1 .172-.786.571.571 0 0 1 .785.17 14.706 14.706 0 0 1 2.318 7.946c0 8.14-6.62 14.757-14.757 14.757"/>
        <path fill="#20C4EE" d="M14.501 18.17a.566.566 0 0 1-.397-.973l7.168-7.021a.568.568 0 0 1 .795.81l-7.168 7.022a.544.544 0 0 1-.398.162"/>
        <path fill="#20C4EE" d="M12.833 19.808a.578.578 0 0 1-.398-.162L8.218 15.51a.568.568 0 0 1-.009-.803.573.573 0 0 1 .803-.008l3.82 3.746 1.272-1.249a.567.567 0 1 1 .795.81l-1.669 1.639a.58.58 0 0 1-.397.162"/>
    </g>
</svg>
