<svg xmlns="http://www.w3.org/2000/svg" width="36" height="27" viewBox="0 0 36 27">
    <g fill="none" fill-rule="evenodd">
        <path fill="#1B63A4" d="M10.63 24.944h2.07v-1.942c0-.334.24-.622.57-.687a7.86 7.86 0 0 0 2.54-.978c.27-.16.61-.124.84.087l1.55 1.431 1.42-1.32-1.47-1.357a.707.707 0 0 1-.09-.915 6.66 6.66 0 0 0 1.04-2.317.692.692 0 0 1 .68-.543h2.16v-1.814h-2.16a.693.693 0 0 1-.68-.543 6.651 6.651 0 0 0-1.04-2.317.709.709 0 0 1 .09-.916l1.47-1.357-1.42-1.319-1.55 1.431a.707.707 0 0 1-.84.086 7.86 7.86 0 0 0-2.54-.978.702.702 0 0 1-.57-.686V6.047h-2.07V7.99c0 .334-.24.622-.56.686-.91.178-1.76.507-2.55.978-.26.16-.6.126-.83-.086L5.14 8.137 3.71 9.456l1.47 1.357c.26.238.3.629.1.916-.5.716-.85 1.495-1.04 2.317a.71.71 0 0 1-.68.543H1.4v1.814h2.16c.32 0 .6.225.68.543a6.66 6.66 0 0 0 1.04 2.317c.2.286.16.678-.1.915l-1.47 1.357 1.43 1.32 1.55-1.431a.694.694 0 0 1 .83-.087c.79.471 1.64.8 2.55.978.32.065.56.353.56.687v1.942zm2.78 1.4H9.93c-.39 0-.7-.313-.7-.7v-2.085a9.502 9.502 0 0 1-1.97-.762l-1.64 1.525a.7.7 0 0 1-.95 0l-2.46-2.273a.717.717 0 0 1-.23-.514c0-.195.09-.381.23-.513l1.59-1.471a8.245 8.245 0 0 1-.78-1.748H.7c-.39 0-.7-.314-.7-.7v-3.214c0-.387.31-.7.7-.7h2.32c.19-.608.45-1.192.78-1.748L2.21 9.97a.717.717 0 0 1-.23-.514c0-.195.09-.381.23-.514L4.67 6.67a.697.697 0 0 1 .95 0l1.64 1.524a9.502 9.502 0 0 1 1.97-.762V5.347c0-.386.31-.7.7-.7h3.48c.38 0 .69.314.69.7v2.085c.69.179 1.35.434 1.97.762l1.65-1.524a.697.697 0 0 1 .95 0l2.46 2.272a.71.71 0 0 1 0 1.028l-1.59 1.471c.33.556.59 1.141.78 1.748h2.32c.38 0 .7.313.7.7v3.214c0 .386-.32.7-.7.7h-2.32a8.245 8.245 0 0 1-.78 1.748l1.59 1.471a.705.705 0 0 1 0 1.027l-2.46 2.273a.7.7 0 0 1-.95 0l-1.65-1.525c-.62.328-1.28.583-1.97.762v2.085c0 .387-.31.7-.69.7z"/>
        <path fill="#1B63A4" d="M16.17 19.981c-.38 0-.7-.31-.7-.697v-.007c0-.387.32-.7.7-.7.39 0 .7.313.7.7 0 .387-.31.704-.7.704"/>
        <path fill="#20C4EE" d="M11.67 21.757c-3.7 0-6.71-2.808-6.71-6.261 0-3.453 3.01-6.262 6.71-6.262s6.71 2.809 6.71 6.262c0 .994-.26 1.985-.74 2.864a.702.702 0 0 1-1.23-.676c.38-.683.57-1.419.57-2.188 0-2.681-2.38-4.862-5.31-4.862-2.93 0-5.31 2.181-5.31 4.862 0 2.68 2.38 4.861 5.31 4.861.93 0 1.85-.224 2.65-.648.34-.181.76-.05.95.292.18.341.05.765-.3.946-1 .53-2.14.81-3.3.81"/>
        <path fill="#1B63A4" d="M26.91 12.582l.7.083.11-.9a.7.7 0 0 1 .64-.613c.53-.04 1.04-.17 1.51-.385a.699.699 0 0 1 .82.186l.67.778.51-.371-.59-.696a.7.7 0 0 1 .01-.92c.33-.37.58-.785.74-1.233a.706.706 0 0 1 .74-.457l1.03.122.07-.548-1.02-.121a.706.706 0 0 1-.62-.621 3.764 3.764 0 0 0-.42-1.37.697.697 0 0 1 .2-.897l.75-.539-.41-.475-.83.603a.7.7 0 0 1-.84-.014c-.41-.32-.87-.564-1.37-.726a.7.7 0 0 1-.48-.751l.11-.895-.71-.083-.11.9a.7.7 0 0 1-.64.613c-.52.04-1.03.17-1.51.385a.697.697 0 0 1-.82-.186l-.66-.778-.51.371.59.695c.22.267.22.66-.02.921-.33.371-.58.785-.74 1.233a.704.704 0 0 1-.74.457l-1.03-.122-.07.547 1.03.122c.32.038.58.297.61.622.05.472.19.932.43 1.369a.71.71 0 0 1-.21.896l-.75.54.41.475.83-.603a.7.7 0 0 1 .84.014c.41.32.88.564 1.38.726a.71.71 0 0 1 .48.751l-.11.895zm1.31 1.56a.537.537 0 0 1-.08-.005l-2.1-.247a.729.729 0 0 1-.47-.263.734.734 0 0 1-.14-.518l.13-1.048a5.543 5.543 0 0 1-.82-.438l-.95.69a.707.707 0 0 1-.95-.114l-1.31-1.545a.66.66 0 0 1-.16-.537.675.675 0 0 1 .28-.483l.89-.646a5.22 5.22 0 0 1-.23-.763l-1.2-.142a.729.729 0 0 1-.47-.263.688.688 0 0 1-.14-.517l.23-1.938a.71.71 0 0 1 .78-.61l1.2.143c.12-.24.26-.47.42-.691l-.71-.833a.66.66 0 0 1-.16-.537.678.678 0 0 1 .28-.483l1.65-1.195c.3-.215.71-.165.94.114l.76.89c.3-.102.6-.181.91-.235l.13-1.052a.696.696 0 0 1 .78-.61l2.09.248c.18.022.35.117.47.263.11.147.16.333.14.517l-.13 1.048c.29.125.56.271.83.439l.95-.69c.29-.215.7-.165.94.114l1.31 1.545c.13.148.19.343.17.536a.722.722 0 0 1-.29.483l-.89.646c.1.25.18.505.23.764l1.2.142a.68.68 0 0 1 .47.262.65.65 0 0 1 .14.518l-.23 1.937a.708.708 0 0 1-.78.61l-1.2-.142c-.12.239-.26.47-.41.691l.7.833a.66.66 0 0 1 .16.537.678.678 0 0 1-.28.483l-1.65 1.194a.695.695 0 0 1-.94-.113l-.76-.89c-.29.102-.6.18-.91.235l-.13 1.051a.693.693 0 0 1-.69.615z"/>
        <path fill="#20C4EE" d="M27.96 10.277c-.14 0-.27-.008-.41-.024-.89-.106-1.71-.558-2.24-1.24-.5-.636-.73-1.416-.63-2.198.21-1.68 1.82-2.871 3.61-2.664.89.105 1.71.557 2.25 1.24.5.636.72 1.416.62 2.197a2.95 2.95 0 0 1-.53 1.362.704.704 0 0 1-.98.158.709.709 0 0 1-.16-.977c.16-.215.25-.455.28-.713.05-.409-.07-.822-.33-1.163a1.978 1.978 0 0 0-1.31-.714c-1.02-.123-1.95.527-2.06 1.444-.05.409.07.822.34 1.163.3.392.78.652 1.31.714.33.039.66-.001.96-.117.36-.138.77.04.91.401.13.36-.04.766-.41.905-.38.149-.8.226-1.22.226"/>
    </g>
</svg>
