<svg xmlns="http://www.w3.org/2000/svg" width="31" height="36" viewBox="0 0 31 36">
    <g fill="none" fill-rule="evenodd">
        <path fill="#1B63A4" d="M12.683 35.48C6.079 35.48.719 30.12.719 23.53V16.6c0-.39.313-.7.7-.7H23.93c.387 0 .7.31.7.7v4.22c0 .39-.313.7-.7.7-.387 0-.7-.31-.7-.7V17.3H2.119v6.23c0 5.81 4.732 10.55 10.548 10.55 2.515 0 4.939-.89 6.841-2.51a.695.695 0 0 1 .986.08c.251.29.215.74-.08.99a11.954 11.954 0 0 1-7.731 2.84"/>
        <path fill="#1B63A4" d="M20.468 17.3c-.387 0-.7-.32-.7-.7V8.96c0-3.91-3.182-7.08-7.093-7.08a7.13 7.13 0 0 0-5.761 2.94.691.691 0 0 1-.977.16.69.69 0 0 1-.159-.97A8.526 8.526 0 0 1 12.675.48c4.683 0 8.493 3.8 8.493 8.48v7.64c0 .38-.313.7-.7.7"/>
        <path fill="#20C4EE" d="M4.882 7.74a.706.706 0 0 1-.497-.2.71.71 0 0 1-.203-.5c0-.18.07-.36.203-.5.26-.26.728-.26.988 0 .132.14.209.32.209.5a.72.72 0 0 1-.209.5.689.689 0 0 1-.491.2"/>
        <path fill="#1B63A4" d="M4.881 17.3c-.387 0-.7-.32-.7-.7v-6.38c0-.38.313-.7.7-.7.387 0 .7.32.7.7v6.38c0 .38-.313.7-.7.7M11.747 29.03h1.855l-.452-3.61a.715.715 0 0 1 .334-.69c.485-.29.775-.79.775-1.35a1.585 1.585 0 0 0-3.17 0c0 .56.29 1.06.776 1.35.238.15.368.42.334.69l-.452 3.61zm2.648 1.4h-3.441a.707.707 0 0 1-.694-.79l.498-3.98a2.936 2.936 0 0 1-1.069-2.28c0-1.64 1.34-2.98 2.986-2.98a2.988 2.988 0 0 1 2.984 2.98c0 .9-.392 1.72-1.068 2.28l.498 3.98a.707.707 0 0 1-.694.79zM23.843 21.83c-2.971 0-5.388 2.39-5.388 5.33 0 .49.065.96.193 1.42.64 2.31 2.777 3.92 5.195 3.92 2.971 0 5.388-2.39 5.388-5.34 0-2.94-2.417-5.33-5.388-5.33zm0 12.07c-3.044 0-5.736-2.03-6.544-4.94a6.714 6.714 0 0 1-.244-1.8c0-3.71 3.046-6.73 6.788-6.73 3.743 0 6.788 3.02 6.788 6.73 0 3.72-3.045 6.74-6.788 6.74z"/>
        <path fill="#20C4EE" d="M23.843 28.39c.112 0 .224.03.326.08l.648.34-.123-.72a.697.697 0 0 1 .201-.62l.525-.51-.725-.11a.682.682 0 0 1-.527-.38l-.325-.66-.324.66a.682.682 0 0 1-.527.38l-.725.11.525.51c.165.16.24.39.201.62l-.124.72.649-.34a.743.743 0 0 1 .325-.08zm1.904 2.4a.63.63 0 0 1-.325-.08l-1.579-.83-1.578.83a.68.68 0 0 1-.737-.05.706.706 0 0 1-.278-.69l.301-1.75-1.277-1.25a.684.684 0 0 1-.177-.71.695.695 0 0 1 .565-.48l1.764-.26.79-1.6c.235-.48 1.02-.48 1.255 0l.789 1.6 1.765.26c.264.04.482.22.565.48.082.25.014.53-.177.71l-1.278 1.25.302 1.75a.706.706 0 0 1-.278.69.688.688 0 0 1-.412.13z"/>
    </g>
</svg>
