<svg xmlns="http://www.w3.org/2000/svg" width="44" height="43" viewBox="0 0 44 43">
    <g fill="none" fill-rule="evenodd">
        <path fill="#0C3769" d="M17.749 35a.88.88 0 0 1-.88-.885c0-2.921-1.016-5.602-2.86-7.552-.29-.305-.565-.632-.819-.97a.889.889 0 0 1 .175-1.239.876.876 0 0 1 1.232.175 9.4 9.4 0 0 0 .686.813c1.968 2.08 3.13 4.853 3.318 7.888l6.798-.003c.195-3.004 1.373-5.796 3.37-7.938a9.185 9.185 0 0 0 2.471-6.279c0-2.539-1.01-4.906-2.841-6.665a9.181 9.181 0 0 0-6.843-2.563c-4.524.211-8.372 3.905-8.76 8.406a9.228 9.228 0 0 0 .546 4.052.887.887 0 0 1-.512 1.14.877.877 0 0 1-1.134-.515 10.987 10.987 0 0 1-.654-4.828c.47-5.46 4.956-9.769 10.433-10.024a10.879 10.879 0 0 1 8.14 3.051A10.921 10.921 0 0 1 33 19.01c0 2.787-1.047 5.448-2.948 7.489-1.883 2.022-2.92 4.726-2.92 7.613a.883.883 0 0 1-.88.885L17.749 35"/>
        <path fill="#0C3769" d="M22 35c-.553 0-1-.4-1-.894V19.894c0-.494.447-.894 1-.894.553 0 1 .4 1 .894v14.212c0 .494-.447.894-1 .894"/>
        <path fill="#20C4EE" d="M24.817 22a.894.894 0 0 1-.451-.122l-1.87-1.09-1.867 1.09a.895.895 0 0 1-.9 0l-2.317-1.354a.8.8 0 0 1-.285-1.13.886.886 0 0 1 1.186-.272l1.867 1.09 1.865-1.09a.895.895 0 0 1 .901 0l1.87 1.09 1.87-1.09a.888.888 0 0 1 1.187.271.8.8 0 0 1-.285 1.13l-2.32 1.355a.897.897 0 0 1-.451.121"/>
        <path fill="#0C3769" d="M24.162 38h-5.324c-.463 0-.838-.447-.838-1 0-.553.375-1 .838-1h5.324c.463 0 .838.447.838 1 0 .553-.375 1-.838 1M23.206 40h-2.412c-.44 0-.794-.447-.794-1 0-.553.355-1 .794-1h2.412c.44 0 .794.447.794 1 0 .553-.355 1-.794 1M22.118 43h-.236c-.488 0-.882-.447-.882-1 0-.553.394-1 .882-1h.236c.488 0 .882.447.882 1 0 .553-.394 1-.882 1"/>
        <path fill="#20C4EE" d="M22 6c-.553 0-1-.393-1-.88V.88c0-.487.447-.88 1-.88.553 0 1 .393 1 .88v4.24c0 .487-.447.88-1 .88M38.91 18c-.378 0-.73-.22-.86-.57-.163-.438.09-.917.567-1.067l4.176-1.318c.476-.148.994.082 1.157.522.164.44-.09.917-.566 1.068l-4.178 1.32c-.097.03-.196.045-.295.045M31.83 9a.815.815 0 0 1-.483-.158.853.853 0 0 1-.192-1.177l2.34-3.313a.822.822 0 0 1 1.159-.194c.372.272.458.8.19 1.178l-2.338 3.312a.826.826 0 0 1-.677.352M5.088 18c-.098 0-.197-.016-.296-.046l-4.176-1.32c-.476-.15-.73-.627-.566-1.067.163-.44.68-.67 1.157-.522l4.176 1.318c.477.15.73.63.568 1.068-.13.35-.483.569-.863.569M12.17 9a.826.826 0 0 1-.676-.352L9.155 5.336a.853.853 0 0 1 .191-1.178.822.822 0 0 1 1.16.194l2.339 3.313a.853.853 0 0 1-.191 1.177.818.818 0 0 1-.483.158"/>
    </g>
</svg>
