<svg xmlns="http://www.w3.org/2000/svg" width="40" height="41" viewBox="0 0 40 41">
    <g fill="none" fill-rule="evenodd">
        <path fill="#20C4EE" d="M32.58 7.009a2.19 2.19 0 0 0-2.191 2.19c0 1.202.983 2.19 2.191 2.19a2.197 2.197 0 0 0 2.192-2.19 2.19 2.19 0 0 0-2.192-2.19zm0 5.882a3.696 3.696 0 0 1-3.694-3.692 3.695 3.695 0 0 1 7.389 0 3.695 3.695 0 0 1-3.695 3.692zM7.51 29.882a2.197 2.197 0 0 0-2.193 2.19c0 1.212.984 2.2 2.192 2.2a2.199 2.199 0 0 0 2.192-2.2c0-1.203-.983-2.19-2.192-2.19zm0 5.893a3.705 3.705 0 0 1-3.695-3.703 3.702 3.702 0 0 1 3.694-3.693 3.703 3.703 0 0 1 3.695 3.693 3.705 3.705 0 0 1-3.695 3.703z"/>
        <path fill="#0C3769" d="M29.637 9.95H13.453a.756.756 0 0 1-.751-.751c0-.419.336-.752.751-.752h16.184c.416 0 .752.333.752.752a.756.756 0 0 1-.752.75M32.58 23.55a.756.756 0 0 1-.751-.752V12.14c0-.42.336-.752.751-.752.416 0 .752.333.752.752v10.658a.756.756 0 0 1-.752.751M7.51 29.882a.749.749 0 0 1-.752-.751V18.472c0-.408.336-.751.751-.751.416 0 .751.343.751.751v10.659a.749.749 0 0 1-.75.75M26.304 32.823h-5.353a.749.749 0 0 1-.752-.751c0-.408.336-.752.752-.752h5.353c.416 0 .752.344.752.752a.749.749 0 0 1-.752.75M17.9 32.823a.708.708 0 0 1-.534-.226.702.702 0 0 1-.218-.525c0-.194.075-.387.218-.526.278-.269.781-.28 1.059 0a.744.744 0 0 1-.526 1.277M14.844 32.823h-4.392a.749.749 0 0 1-.751-.751c0-.408.336-.752.751-.752h4.392c.416 0 .752.344.752.752a.749.749 0 0 1-.752.75M1.565 11.528a.756.756 0 0 1-.751-.752V3.231C.814 1.49 2.199.086 3.903.086h7.213c.415 0 .75.333.75.751a.756.756 0 0 1-.75.752H3.903c-.875 0-1.587.74-1.587 1.642v7.545a.756.756 0 0 1-.751.752"/>
        <path fill="#0C3769" d="M11.116 18.945H3.903c-1.704 0-3.09-1.407-3.09-3.145v-5.024c0-.418.337-.751.752-.751s.751.333.751.751V15.8c0 .912.712 1.642 1.587 1.642h7.213c.874 0 1.586-.73 1.586-1.642V3.23c0-.418.336-.75.751-.75.416 0 .752.332.752.75V15.8c0 1.738-1.387 3.145-3.09 3.145"/>
        <path fill="#0C3769" d="M13.453 3.982a.749.749 0 0 1-.751-.751c0-.902-.712-1.642-1.586-1.642a.756.756 0 0 1-.752-.752c0-.418.336-.751.752-.751 1.702 0 3.089 1.406 3.089 3.145a.749.749 0 0 1-.752.751M13.453 15.403H1.565a.749.749 0 0 1-.751-.752c0-.408.336-.751.75-.751h11.89c.415 0 .75.343.75.751a.749.749 0 0 1-.75.752M26.637 33.488a.756.756 0 0 1-.751-.751v-7.546c0-1.738 1.386-3.144 3.088-3.144h7.213c.415 0 .751.332.751.75a.756.756 0 0 1-.751.752h-7.213c-.874 0-1.585.74-1.585 1.642v7.546a.756.756 0 0 1-.752.751"/>
        <path fill="#0C3769" d="M36.187 40.905h-7.213c-1.702 0-3.088-1.406-3.088-3.145v-5.023c0-.419.336-.751.751-.751a.75.75 0 0 1 .752.751v5.023c0 .913.711 1.643 1.585 1.643h7.213c.875 0 1.586-.73 1.586-1.643V25.191c0-.418.336-.75.752-.75.415 0 .75.332.75.75v12.57c0 1.738-1.385 3.144-3.088 3.144"/>
        <path fill="#0C3769" d="M38.525 25.943a.749.749 0 0 1-.752-.752c0-.901-.711-1.642-1.586-1.642a.756.756 0 0 1-.752-.751c0-.419.336-.751.752-.751 1.703 0 3.089 1.406 3.089 3.144a.749.749 0 0 1-.751.752M38.525 37.363H26.637a.749.749 0 0 1-.751-.751c0-.408.336-.752.751-.752h11.888c.415 0 .75.344.75.752a.749.749 0 0 1-.75.751"/>
    </g>
</svg>
