<svg xmlns="http://www.w3.org/2000/svg" xmlns:xlink="http://www.w3.org/1999/xlink" width="84" height="21" viewBox="0 0 84 21">
    <defs>
        <path id="a" d="M0 .053h4.986v8.483H0z"/>
    </defs>
    <g fill="none" fill-rule="evenodd">
        <path fill="#000" d="M24.285 9.056c1.45.005 2.853.036 4.254-.003.305-.008.7-.191.885-.424.419-.528.373-1.174.133-1.772-.217-.545-.728-.645-1.257-.649-1.183-.009-2.364-.011-3.547-.016-.144 0-.288 0-.456-.002l-.012 2.866m-.032 5.784c1.734.006 3.422.033 5.108.01.554-.008.914-.363.998-.913.066-.431.059-.874.06-1.312.003-1.02-.428-1.442-1.462-1.448-1.43-.008-2.862-.013-4.293-.017-.129 0-.258.013-.396.021-.004 1.235-.01 2.426-.015 3.659m6.357-4.889c.206.08.315.123.424.163 1.035.38 1.652 1.19 1.664 2.272.009.741.002 1.49-.095 2.223-.17 1.296-1.05 2.122-2.359 2.303a7.22 7.22 0 0 1-.995.068c-2.195-.002-4.391-.013-6.586-.023-.623-.003-.729-.11-.726-.729.015-3.804.03-7.609.047-11.412.003-.646.092-.73.757-.727 2.01.009 4.021.005 6.032.035.45.006.914.074 1.343.206 1.168.356 1.687 1.244 1.825 2.378.056.457.062.927.025 1.386-.068.831-.456 1.48-1.356 1.857M40.801 13.174c-1.09-.005-2.148-.04-3.204 0-.591.02-.85.424-.846 1.112.004.658.27 1.024.86 1.064.6.041 1.209.051 1.807.001.794-.066 1.269-.551 1.375-1.335.035-.26.008-.53.008-.842m.05-1.75c-.021-.449-.002-.841-.066-1.22-.096-.571-.502-.888-1.085-.902-.469-.01-.938-.013-1.406-.006-.561.009-.883.3-.969.856-.084.551-.139.598-.714.597-.272 0-.543-.004-.814-.006-.32-.001-.482-.17-.481-.476 0-1.145.389-2.45 1.983-2.672 1.179-.165 2.415-.125 3.602.018 1.108.133 1.79 1.031 1.887 2.143.044.496.05.998.05 1.497-.002 1.683-.012 3.365-.02 5.047-.004.634-.112.737-.762.736-.21 0-.42.002-.629-.003-.483-.01-.598-.128-.615-.612-.003-.091-.02-.18-.03-.278-.056.019-.09.019-.1.034-.52.834-1.31 1.083-2.25 1.025-.565-.035-1.138-.005-1.696-.086-1.093-.158-1.766-.764-1.902-1.84a7.25 7.25 0 0 1 .073-2.207c.182-.975.918-1.512 1.884-1.584 1.165-.087 2.34-.048 3.51-.063.159-.001.318.001.55.003M68.886 12.45h.004c-.002.633-.018 1.267-.004 1.901.015.688.4 1.108 1.09 1.14.763.035 1.53.039 2.293.009.704-.028 1.114-.462 1.125-1.155.02-1.243.024-2.487.018-3.731-.003-.734-.466-1.173-1.213-1.181-.68-.008-1.358-.01-2.036-.01-.824.001-1.25.413-1.268 1.234-.012.597-.007 1.195-.01 1.792zm-1.994-.009c.004-.768-.011-1.535.015-2.303.048-1.477.979-2.449 2.48-2.514a37.582 37.582 0 0 1 3.473.01c1.519.074 2.42.854 2.508 2.354.1 1.685.074 3.387-.033 5.073-.084 1.307-.853 2.088-2.164 2.192-1.368.11-2.761.102-4.129-.017-1.319-.115-2.098-1.069-2.147-2.383-.03-.803 0-1.608.004-2.412h-.007zM56.24 12.41c.05-.947.04-1.903.166-2.84.135-.997.762-1.717 1.768-1.877 1.572-.252 3.17-.276 4.739.053.823.173 1.355.75 1.56 1.552.122.478.158.984.179 1.48.016.404-.153.535-.572.54-.32.004-.641-.002-.962-.006-.299-.003-.442-.159-.474-.449-.14-1.3-.337-1.472-1.659-1.478-.493-.002-.986-.006-1.479-.004-.701.003-1.166.402-1.181 1.083a118.152 118.152 0 0 0-.017 3.876c.008.673.4 1.073 1.08 1.107.701.036 1.407.038 2.108.008.7-.03 1.073-.427 1.123-1.114.009-.121.005-.244.016-.365.025-.254.169-.413.426-.42.394-.011.791-.022 1.182.02.132.015.314.172.358.302.376 1.095-.386 2.748-1.472 3.158a3.74 3.74 0 0 1-1.186.24c-.998.03-1.998.032-2.995-.007-1.65-.065-2.561-.957-2.648-2.59-.04-.753-.001-1.51.002-2.267l-.062-.002M47.466 8.667l.23-.31c.315-.438.742-.774 1.274-.793.945-.035 1.907-.062 2.837.075 1.17.171 1.886 1.074 1.946 2.294.046.95.022 1.901.022 2.853 0 1.207-.007 2.413-.015 3.62-.003.556-.12.672-.668.674-.247.001-.494.003-.74-.004-.452-.013-.595-.15-.597-.603-.003-.903.005-1.805.01-2.707.003-1 .01-2 .012-3 .002-1.042-.372-1.418-1.414-1.424-.407-.002-.814-.004-1.221-.004-1.087 0-1.695.584-1.705 1.67-.016 1.731-.017 3.463-.024 5.194 0 .11-.004.22-.002.33.007.353-.188.513-.524.521-.308.007-.617.008-.925-.005-.413-.016-.552-.155-.555-.566-.006-.622.002-1.243.005-1.866l.026-6.255c.003-.581.101-.673.697-.673l.666.003c.526.005.626.101.645.614.003.084.009.167.02.362M7.046 20.676c-.009-.128-.022-.22-.02-.312.005-1.659.016-3.316.014-4.975 0-.23.059-.369.276-.488 2.086-1.149 4.165-2.31 6.246-3.467.03-.017.065-.028.136-.057.009.12.022.22.022.322-.005 1.657-.015 3.315-.019 4.973 0 .19-.012.332-.219.446-2.087 1.149-4.166 2.311-6.248 3.47-.05.027-.105.049-.188.088M.066 4.541l3.007 1.717c.576.329 1.155.652 1.723.993.1.059.221.19.221.289.005 1.802-.005 3.606-.013 5.476-.212-.118-.38-.209-.544-.303-1.397-.8-2.794-1.598-4.185-2.405-.099-.058-.222-.185-.223-.28C.047 8.225.058 6.42.066 4.54"/>
        <g transform="translate(0 12.162)">
            <mask id="b" fill="#fff">
                <use xlink:href="#a"/>
            </mask>
            <path fill="#000" d="M4.97 8.536C3.443 7.662 1.995 6.813.522 6.006c-.397-.218-.531-.456-.52-.9C.037 3.557.026 2.01.032.462c0-.118 0-.234.002-.41l3.15 1.798c.531.303 1.067.603 1.592.92.097.058.208.19.208.289.006 1.803-.005 3.604-.013 5.476" mask="url(#b)"/>
        </g>
        <path fill="#000" d="M7.08 12.992c-.01-.123-.022-.216-.022-.308.005-1.67.008-3.34.029-5.008.001-.14.097-.34.211-.405 1.524-.873 3.06-1.726 4.592-2.582.039-.023.085-.033.16-.06.007.133.017.237.016.341-.005 1.633-.017 3.266-.014 4.899 0 .258-.071.412-.314.546-1.495.823-2.98 1.666-4.468 2.501-.05.028-.108.044-.19.076M1.394 2.746L4.42 1.013C4.986.69 5.547.362 6.116.048c.085-.046.235-.067.312-.025 1.56.882 3.113 1.774 4.666 2.666.04.022.073.057.145.112-.75.423-1.475.83-2.2 1.237-.834.468-1.665.942-2.507 1.397-.118.065-.324.107-.425.048C4.553 4.596 3.01 3.69 1.394 2.746M79.955 8.602c.254-.205.51-.45.802-.64.676-.44 1.442-.342 2.187-.266.116.011.278.244.297.39.045.336.024.68.01 1.021-.012.314-.214.451-.513.456-.333.007-.666.002-.999 0-1.219-.01-1.8.548-1.808 1.746-.009 1.718-.014 3.435-.022 5.152-.003.613-.117.727-.73.726-.234 0-.468.002-.701-.005-.426-.014-.57-.156-.584-.583-.007-.244.001-.488.002-.731l.03-7.271c.004-.696.088-.779.783-.776.197 0 .394 0 .592.003.523.004.627.106.643.617.002.081.011.163.011.161"/>
    </g>
</svg>
