<svg xmlns="http://www.w3.org/2000/svg" xmlns:xlink="http://www.w3.org/1999/xlink" width="129" height="56" viewBox="0 0 129 56">
    <defs>
        <filter id="a" width="129.7%" height="129.7%" x="-14.9%" y="-13.4%" filterUnits="objectBoundingBox">
            <feOffset dy="2" in="SourceAlpha" result="shadowOffsetOuter1"/>
            <feGaussianBlur in="shadowOffsetOuter1" result="shadowBlurOuter1" stdDeviation="6.5"/>
            <feColorMatrix in="shadowBlurOuter1" result="shadowMatrixOuter1" values="0 0 0 0 0.419607843 0 0 0 0 0.48627451 0 0 0 0 0.576470588 0 0 0 0.420855978 0"/>
            <feMerge>
                <feMergeNode in="shadowMatrixOuter1"/>
                <feMergeNode in="SourceGraphic"/>
            </feMerge>
        </filter>
        <path id="b" d="M.334.1h19.08v28.803H.333z"/>
    </defs>
    <g fill="none" fill-rule="evenodd" filter="url(#a)" transform="translate(-5 -43)">
        <path fill="#FFF" d="M17.178 79.782l4.348-5.229c2.04 1.64 4.615 2.792 6.744 2.792 2.307 0 3.284-.754 3.284-2.038 0-1.374-1.464-1.817-3.905-2.792l-3.594-1.507c-3.106-1.24-5.812-3.855-5.812-8.02 0-4.92 4.437-8.951 10.737-8.951 3.284 0 6.922 1.24 9.584 3.855l-3.816 4.785c-1.952-1.373-3.638-2.083-5.768-2.083-1.863 0-3.017.665-3.017 1.95 0 1.374 1.642 1.861 4.26 2.88l3.505 1.375c3.594 1.417 5.635 3.899 5.635 7.887 0 4.874-4.082 9.216-11.27 9.216-3.639 0-7.809-1.328-10.915-4.12M42.734 54.569h7.632v22.42H61.28v6.382H42.734zM75.744 69.191c0-9.66 6.655-15.154 13.932-15.154 3.816 0 6.921 1.772 8.963 3.81l-3.994 4.875c-1.42-1.241-2.84-2.128-4.792-2.128-3.372 0-6.3 3.103-6.3 8.331 0 5.407 2.484 8.42 6.212 8.42 2.218 0 3.993-1.152 5.235-2.481l3.994 4.785c-2.44 2.836-5.769 4.254-9.496 4.254-7.365 0-13.754-4.874-13.754-14.712"/>
        <g transform="translate(101.587 54.469)">
            <mask id="c" fill="#fff">
                <use xlink:href="#b"/>
            </mask>
            <path fill="#FFF" d="M.334.1H18.97v6.38H7.966V11h9.406v6.38H7.966v5.141h11.448v6.382H.334z" mask="url(#c)"/>
        </g>
        <path fill="#FFF" d="M65 55v29h8V55z"/>
    </g>
</svg>
