<svg xmlns="http://www.w3.org/2000/svg" xmlns:xlink="http://www.w3.org/1999/xlink" width="32" height="32" viewBox="0 0 32 32">
    <defs>
        <path id="a" d="M.053.329h31.37v31.395H.052z"/>
    </defs>
    <g fill="none" fill-rule="evenodd">
        <path fill="#20C4EE" d="M5.689 26.907H16.07v-9.245a.62.62 0 0 1 .622-.622h9.323V6.578H5.689v20.329zm11.004 1.244H5.067a.62.62 0 0 1-.623-.622V5.956c0-.338.279-.623.623-.623h21.571c.344 0 .622.285.622.623v11.706a.62.62 0 0 1-.622.622h-9.322v9.245a.62.62 0 0 1-.623.622z"/>
        <path fill="#1B63A4" d="M15.071 13.093H10.4a.62.62 0 0 1-.622-.622.62.62 0 0 1 .622-.622h4.049V5.956c0-.338.278-.623.622-.623s.622.285.622.623v6.515a.62.62 0 0 1-.622.622M11.181 22.676a.626.626 0 0 1-.622-.623v-3.92H5.067a.626.626 0 0 1-.623-.622.62.62 0 0 1 .623-.622h6.114a.62.62 0 0 1 .623.622v4.542a.626.626 0 0 1-.623.623M26.46 12.8h-5.393a.62.62 0 0 1-.623-.622.62.62 0 0 1 .623-.622h5.393a.62.62 0 0 1 .622.622.62.62 0 0 1-.622.622"/>
        <g>
            <mask id="b" fill="#fff">
                <use xlink:href="#a"/>
            </mask>
            <path fill="#0C3769" d="M13.375 1.573a.631.631 0 0 1-.628-.622c0-.347.272-.622.616-.622h.012a.62.62 0 0 1 .622.622.626.626 0 0 1-.622.622M24.324 31.724H.622A.626.626 0 0 1 0 31.102V13.004a.62.62 0 0 1 .622-.622.62.62 0 0 1 .622.622V30.48h22.822l6.112-6.116V1.574h-14.34a.626.626 0 0 1-.623-.623.62.62 0 0 1 .622-.622H30.8a.62.62 0 0 1 .622.622v23.671a.625.625 0 0 1-.182.445l-6.476 6.47a.634.634 0 0 1-.44.187M.622 10.062A.62.62 0 0 1 0 9.44V.951A.62.62 0 0 1 .622.33h10.266a.62.62 0 0 1 .622.622.626.626 0 0 1-.622.622H1.244V9.44a.62.62 0 0 1-.622.622" mask="url(#b)"/>
        </g>
        <path fill="#0C3769" d="M23.733 31.724a.626.626 0 0 1-.622-.622v-6.48c0-.338.278-.622.622-.622.343 0 .623.284.623.622v6.48c0 .338-.28.622-.623.622"/>
        <path fill="#0C3769" d="M30.21 25.244h-6.477a.62.62 0 0 1-.622-.622c0-.338.278-.622.622-.622h6.477c.344 0 .622.284.622.622a.62.62 0 0 1-.622.622"/>
    </g>
</svg>
