<svg xmlns="http://www.w3.org/2000/svg" xmlns:xlink="http://www.w3.org/1999/xlink" width="68" height="78" viewBox="0 0 68 78">
    <defs>
        <path id="a" d="M0 .148h67.994V22H0z"/>
    </defs>
    <g fill="none" fill-rule="evenodd">
        <g transform="translate(0 56)">
            <mask id="b" fill="#fff">
                <use xlink:href="#a"/>
            </mask>
            <path fill="#414242" d="M43.266 8.766c2.143 0 3.275 1.032 3.336 3.23H39.21c.362-2.198 2.005-3.23 4.056-3.23zm.228 9.65c-2.081 0-3.65-1.194-4.194-3.299h11.646c.392-6.067-2.008-10.11-7.71-10.11-4.948 0-8.357 3.405-8.357 8.543 0 5.045 3.289 8.45 8.478 8.45 2.926 0 4.8-.822 6.429-2.679l-2.444-2.538c-1.116 1.145-2.309 1.634-3.848 1.634zm-21.692-6.42c.362-2.198 2.005-3.23 4.056-3.23 2.143 0 3.275 1.032 3.336 3.23h-7.392zm4.026-6.988c-4.948 0-8.357 3.404-8.357 8.542 0 5.045 3.289 8.45 8.478 8.45 2.927 0 4.8-.822 6.43-2.679l-2.445-2.538c-1.116 1.145-2.31 1.634-3.848 1.634-2.082 0-3.65-1.195-4.193-3.3h11.645c.392-6.067-2.008-10.11-7.71-10.11zm36.645 8.264l5.159-8.11h-5.069l-3.168 5.045-2.987-5.045h-5.31l5.22 8.14-5.612 8.512h5.13l3.56-5.447 3.257 5.447h5.34l-5.52-8.542zM17.288 3.429V.15H.222v4.39l10.733-.044L0 18.503v3.311h17.396l.03-4.085H6.256l11.032-14.3z" mask="url(#b)"/>
        </g>
        <path fill="#2EAAE1" d="M13.881 12A24.35 24.35 0 0 0 11 23.53c0 4.159 1.034 8.066 2.845 11.47L25 23.481 13.881 12z"/>
        <path fill="#FCD527" d="M45 2.853A22.552 22.552 0 0 0 34 0a22.55 22.55 0 0 0-11 2.853L34 14 45 2.853zM23 43.13A22.451 22.451 0 0 0 34 46c3.99 0 7.738-1.045 11-2.87L34 32 23 43.13z"/>
        <path fill="#EF5369" d="M54.155 35A24.356 24.356 0 0 0 57 23.531c0-4.184-1.05-8.112-2.881-11.531L43 23.481 54.155 35z"/>
        <path fill="#FFF" d="M54 33.987L42.994 22.97l10.97-10.98A22.916 22.916 0 0 0 44.957 3L34 13.968 23.043 3a22.918 22.918 0 0 0-9.007 8.99l10.97 10.98L14 33.987A22.912 22.912 0 0 0 22.983 43L34 31.973 45.017 43A22.912 22.912 0 0 0 54 33.987"/>
    </g>
</svg>
