<svg xmlns="http://www.w3.org/2000/svg" width="174" height="44" viewBox="0 0 174 44">
    <g fill="#6B7C93" fill-rule="evenodd">
        <path d="M50.698 18.877c3.012 0 5.928.053 8.838-.041.633-.02 1.452-.408 1.834-.9.865-1.112.763-2.47.262-3.725-.457-1.143-1.52-1.348-2.618-1.352-2.456-.008-4.912-.003-7.368-.003h-.948v6.021zm-.015 12.156c3.6 0 7.106.04 10.61-.023 1.151-.02 1.894-.77 2.065-1.927.133-.905.114-1.837.112-2.757-.002-2.142-.9-3.026-3.049-3.03-2.972-.006-5.944-.003-8.916 0-.269.001-.537.031-.822.048v7.689zm13.161-10.327c.43.165.655.255.883.338 2.152.79 3.443 2.487 3.477 4.76.024 1.558.016 3.132-.178 4.674-.342 2.723-2.163 4.467-4.88 4.858-.683.099-1.378.151-2.067.153-4.56.013-9.122.009-13.683.007-1.293 0-1.513-.225-1.513-1.526-.002-7.994-.002-15.988 0-23.983 0-1.357.183-1.533 1.566-1.533 4.177 0 8.353-.023 12.53.021.934.01 1.9.15 2.792.421 2.428.738 3.515 2.601 3.812 4.983.12.96.135 1.947.062 2.912-.133 1.747-.934 3.112-2.801 3.915zM85.044 27.391c-2.266 0-4.464-.066-6.656.026-1.23.052-1.763.9-1.748 2.346.014 1.382.568 2.149 1.796 2.228 1.247.081 2.51.097 3.754-.013 1.647-.146 2.63-1.17 2.843-2.818.07-.548.01-1.112.01-1.769m.088-3.677c-.047-.944-.011-1.769-.146-2.564-.204-1.2-1.052-1.862-2.263-1.886-.974-.02-1.948-.02-2.92 0-1.166.021-1.833.636-2.005 1.807-.17 1.158-.284 1.256-1.479 1.26-.563.002-1.127-.004-1.69-.005-.665 0-1.004-.354-1.006-.997-.008-2.407.789-5.15 4.097-5.632 2.448-.357 5.016-.282 7.483.007 2.303.27 3.726 2.152 3.94 4.487.096 1.043.11 2.097.114 3.146.012 3.536.006 7.071.003 10.607-.001 1.331-.226 1.549-1.575 1.552-.436 0-.872.007-1.307 0-1.003-.018-1.245-.265-1.283-1.283-.007-.19-.041-.378-.065-.582-.115.038-.186.04-.206.072-1.075 1.757-2.714 2.288-4.667 2.174-1.174-.069-2.365-.003-3.524-.167-2.271-.322-3.675-1.59-3.966-3.852a15.42 15.42 0 0 1 .133-4.636c.37-2.05 1.893-3.187 3.899-3.346 2.42-.191 4.86-.12 7.292-.161.33-.006.66 0 1.14 0M143.377 25.628h.01c0 1.332-.025 2.665.008 3.997.036 1.445.838 2.324 2.274 2.385 1.586.067 3.178.069 4.763 0 1.462-.064 2.31-.98 2.327-2.437a400.8 400.8 0 0 0 .006-7.84c-.014-1.543-.98-2.462-2.533-2.473-1.409-.01-2.818-.01-4.228-.002-1.712.01-2.595.878-2.622 2.603-.021 1.255-.005 2.511-.005 3.767zm-4.14 0c0-1.613-.038-3.227.008-4.839.087-3.107 2.013-5.156 5.13-5.306a77.075 77.075 0 0 1 7.218-.01c3.154.146 5.032 1.777 5.229 4.927.221 3.542.183 7.118-.026 10.663-.162 2.746-1.754 4.394-4.474 4.625-2.843.24-5.737.237-8.58-.003-2.74-.23-4.367-2.229-4.48-4.988-.07-1.687-.013-3.379-.013-5.069h-.012zM117.108 25.654c.095-1.992.067-4 .321-5.972.271-2.093 1.566-3.612 3.656-3.959 3.262-.541 6.58-.604 9.843.072 1.71.355 2.823 1.565 3.255 3.248.258 1.005.338 2.067.385 3.109.038.85-.315 1.126-1.183 1.14-.666.01-1.333.001-1.998-.004-.62-.005-.921-.33-.988-.94-.305-2.729-.714-3.09-3.459-3.092-1.024 0-2.05-.005-3.073.003-1.458.012-2.42.855-2.445 2.288-.045 2.714-.046 5.43-.002 8.145.024 1.414.843 2.251 2.254 2.318a46.47 46.47 0 0 0 4.378-.002c1.456-.068 2.225-.906 2.324-2.351.017-.255.007-.513.03-.768.049-.534.346-.868.882-.886.818-.027 1.644-.053 2.453.035.276.03.654.356.748.628.791 2.3-.778 5.779-3.031 6.65-.774.3-1.634.487-2.461.515a87.653 87.653 0 0 1-6.224.011c-3.428-.123-5.328-1.99-5.522-5.42-.09-1.584-.016-3.176-.016-4.764l-.127-.004M98.85 17.862l.473-.655c.652-.922 1.535-1.63 2.641-1.676 1.963-.08 3.961-.145 5.894.134 2.435.351 3.927 2.242 4.061 4.805.105 1.993.064 3.996.071 5.994.01 2.537.005 5.073.001 7.61-.001 1.168-.243 1.411-1.383 1.42-.513.005-1.026.012-1.538 0-.938-.024-1.235-.31-1.243-1.264-.015-1.896-.006-3.792-.006-5.688 0-2.101.005-4.203.001-6.304-.004-2.192-.783-2.976-2.949-2.982-.845-.001-1.691 0-2.536.002-2.26.008-3.517 1.243-3.528 3.524-.017 3.639-.004 7.278-.004 10.917 0 .23-.007.461-.002.692.017.741-.386 1.08-1.085 1.1-.64.018-1.28.023-1.92-.001-.859-.032-1.148-.323-1.16-1.186-.016-1.307-.004-2.614-.004-3.92 0-4.382-.002-8.765.001-13.146.001-1.222.204-1.416 1.44-1.421.461-.002.923-.003 1.384 0 1.093.007 1.301.207 1.345 1.286.008.175.02.35.045.76M14.987 43.444c-.02-.267-.046-.461-.046-.656-.002-3.484.008-6.968-.011-10.452-.003-.487.12-.778.569-1.03 4.323-2.432 8.632-4.89 12.946-7.338.063-.036.134-.06.282-.122.018.25.047.463.048.676.002 3.484-.003 6.968.003 10.451 0 .399-.02.698-.452.94-4.325 2.431-8.634 4.893-12.948 7.344-.105.06-.218.105-.39.187M.348 9.597c2.186 1.25 4.224 2.415 6.262 3.582 1.2.686 2.405 1.362 3.589 2.072.207.124.46.399.461.605.028 3.79.02 7.58.02 11.509-.442-.246-.79-.435-1.134-.633-2.908-1.668-5.817-3.334-8.714-5.019-.205-.12-.462-.386-.463-.585-.028-3.79-.02-7.579-.02-11.53M10.677 43.508c-3.182-1.823-6.2-3.596-9.266-5.278-.827-.454-1.106-.955-1.088-1.889.063-3.251.024-6.505.024-9.758v-.86l6.559 3.75c1.108.635 2.224 1.259 3.317 1.92.2.121.434.4.435.608.026 3.786.02 7.574.02 11.507M14.991 27.297c-.02-.258-.048-.453-.048-.648-.002-3.508-.012-7.016.018-10.523.002-.293.198-.717.435-.855 3.158-1.846 6.34-3.651 9.516-5.465.082-.047.178-.068.333-.126.015.28.036.498.036.717.003 3.43-.007 6.862.013 10.293.003.544-.145.869-.649 1.152-3.098 1.742-6.173 3.526-9.258 5.293-.104.06-.225.093-.396.162M3.09 5.812c2.176-1.27 4.227-2.468 6.277-3.667 1.17-.683 2.331-1.379 3.511-2.042.176-.098.488-.144.647-.054 3.248 1.84 6.482 3.702 9.717 5.561.083.048.152.118.3.236l-4.556 2.616c-1.73.992-3.453 1.994-5.197 2.959-.246.136-.672.225-.883.105C9.671 9.673 6.457 7.78 3.091 5.812M166.338 17.449c.525-.433 1.055-.948 1.659-1.35 1.403-.934 2.994-.733 4.542-.581.241.023.58.512.622.819.094.704.054 1.43.029 2.145-.024.658-.441.95-1.063.963-.69.016-1.382.01-2.073.007-2.534-.01-3.737 1.167-3.741 3.686-.006 3.609 0 7.218-.001 10.827 0 1.287-.24 1.527-1.51 1.531-.487.002-.974.01-1.46-.004-.883-.026-1.183-.323-1.215-1.22-.018-.512-.003-1.024-.003-1.536V17.454c0-1.46.176-1.636 1.62-1.637.409 0 .819-.002 1.228 0 1.086.007 1.305.22 1.341 1.292.006.172.025.343.025.34"/>
    </g>
</svg>
