<?xml version="1.0" encoding="utf-8"?>
<!-- Generator: Adobe Illustrator 22.1.0, SVG Export Plug-In . SVG Version: 6.00 Build 0)  -->
<svg version="1.1" id="Layer_1" xmlns="http://www.w3.org/2000/svg" xmlns:xlink="http://www.w3.org/1999/xlink" x="0px" y="0px"
	 viewBox="0 0 3072 2304" style="enable-background:new 0 0 3072 2304;" xml:space="preserve">
<style type="text/css">
	.st0{display:none;fill:#FFFFFF;}
	.st1{display:none;fill:none;stroke:#E6EBF1;stroke-width:4.5;stroke-linecap:round;stroke-linejoin:round;}
	.st2{display:none;opacity:0.5;fill:#E6EBF1;enable-background:new    ;}
	.st3{display:none;fill:#525F7F;}
	.st4{display:none;fill:none;stroke:#CFD7DF;stroke-width:4.5;stroke-linecap:round;stroke-linejoin:round;}
	.st5{display:none;fill:#E6EBF1;}
	.st6{display:none;fill:#32325D;}
	.st7{display:none;fill:#8898AA;}
	.st8{display:none;fill:#6772E5;}
	.st9{display:none;fill:#0080FF;}
	
		.st10{display:none;opacity:0.3;fill:none;stroke:#0080FF;stroke-width:7.5;stroke-linecap:round;stroke-linejoin:round;enable-background:new    ;}
	.st11{display:none;opacity:0.3;fill:#0080FF;enable-background:new    ;}
	.st12{display:none;fill:none;stroke:#0080FF;stroke-width:7.5;stroke-linecap:round;stroke-linejoin:round;}
	.st13{display:none;fill:none;stroke:#AAB7C4;stroke-width:6;stroke-linecap:round;stroke-linejoin:round;}
	.st14{fill:#CFD7DF;}
	.st15{fill:#E6EBF1;}
	.st16{fill:#AAB7C4;}
	.st17{fill:none;stroke:#AAB7C4;stroke-width:4.5;stroke-linecap:round;stroke-linejoin:round;}
	.st18{opacity:0.2;fill:url(#SVGID_1_);enable-background:new    ;}
</style>
<image style="overflow:visible;" width="1598" height="1626" xlink:href="Screen Shot 2018-06-18 at 9.06.05 pm.jpeg"  transform="matrix(1.2941 0 0 1.2941 485.17 151.5)">
</image>
<path class="st0" d="M-4,0h3072v2304H-4V0z"/>
<path class="st1" d="M2659.5,632h-2247c-8.3,0-15,6.7-15,15v1657h2277V647C2674.5,638.7,2667.8,632,2659.5,632z"/>
<path class="st2" d="M735,868.5h1602c3.3,0,6,2.7,6,6v15c0,3.3-2.7,6-6,6H735c-3.3,0-6-2.7-6-6v-15C729,871.2,731.7,868.5,735,868.5
	z"/>
<path class="st2" d="M915,929h1242c3.3,0,6,2.7,6,6v15c0,3.3-2.7,6-6,6H915c-3.3,0-6-2.7-6-6v-15C909,931.7,911.7,929,915,929z"/>
<path class="st3" d="M1338,807.5v-60h26.7c10.4,0,16.8,6.3,16.8,15.3c0,7.6-5,12.6-10.5,13.8c6.4,1,11.7,7.6,11.7,14.8
	c0,9.6-6.4,16.2-17.4,16.2L1338,807.5z M1373.8,763.9c0-5.4-3.6-9.7-10.3-9.7h-18v19.3h18C1370.2,773.5,1373.8,769.4,1373.8,763.9
	L1373.8,763.9z M1375,790.5c0-5.5-3.8-10.3-11.2-10.3h-18.4v20.7h18.4C1370.8,800.9,1375,796.9,1375,790.5L1375,790.5z
	 M1393.1,753.4c-0.1-2.5,1.8-4.6,4.3-4.8s4.6,1.8,4.8,4.3c0,0.1,0,0.3,0,0.4c-0.1,2.5-2.2,4.4-4.8,4.3
	C1395.1,757.6,1393.2,755.7,1393.1,753.4z M1394.3,807.5v-43.5h6.8v43.5H1394.3z M1414.6,807.5v-60h6.8v60H1414.6z M1434.8,807.5
	v-60h6.8v60H1434.8z M1453.9,753.4c-0.1-2.5,1.8-4.6,4.3-4.8s4.6,1.8,4.8,4.3c0,0.1,0,0.3,0,0.4c-0.1,2.5-2.2,4.4-4.8,4.3
	C1455.9,757.6,1454,755.7,1453.9,753.4z M1455.1,807.5v-43.5h6.8v43.5H1455.1z M1504.6,807.5v-28.4c0-7.7-3.9-10.1-9.7-10.1
	c-5.1,0.2-9.8,2.7-12.9,6.8v31.8h-6.8v-43.5h6.7v6.3c3.1-3.6,9-7.4,15.5-7.4c9.1,0,13.9,4.6,13.9,14v30.5L1504.6,807.5z
	 M1524.8,818.7l3.4-5c3.6,4.3,7.9,5.9,14.1,5.9c7.2,0,14-3.5,14-13v-6.2c-3.3,4.8-8.8,7.6-14.6,7.7c-11.3,0-19.3-8.5-19.3-22.5
	s7.9-22.6,19.3-22.6c5.8,0,11.2,2.9,14.6,7.7v-6.6h6.7v42.2c0,14.4-10.1,18.9-20.7,18.9C1535,825.2,1529.9,823.7,1524.8,818.7
	L1524.8,818.7z M1556.3,795v-19c-2.9-4.3-7.8-6.9-13-7c-8.7,0-13.9,6.9-13.9,16.6s5.2,16.6,13.9,16.6
	C1548.5,802,1553.4,799.3,1556.3,795L1556.3,795z M1600,807.5v-60h7.5v60H1600z M1650.6,807.5v-28.4c0-7.7-3.9-10.1-9.7-10.1
	c-5.1,0.2-9.8,2.7-12.9,6.8v31.8h-6.8v-43.5h6.7v6.3c3.1-3.6,9-7.4,15.5-7.4c9.1,0,13.9,4.6,13.9,14v30.5L1650.6,807.5z
	 M1672.8,807.5V770h-7.2v-5.9h7.2v-3.3c0-8.9,4.9-14.1,12.6-14.1c3.4-0.2,6.7,1,9.2,3.3l-2.8,4.4c-1.5-1.4-3.4-2.1-5.4-2.2
	c-4.4,0-6.8,3.1-6.8,8.5v3.3h8.8v5.9h-8.8v37.5H1672.8z M1693.8,785.8c0-12.6,8.3-22.8,21.5-22.8s21.5,10.2,21.5,22.8
	s-8.3,22.9-21.5,22.9S1693.8,798.3,1693.8,785.8z M1729.7,785.8c0-8.8-5.1-16.7-14.4-16.7s-14.5,7.9-14.5,16.7s5.2,16.8,14.5,16.8
	S1729.7,794.7,1729.7,785.8z"/>
<path class="st4" d="M577.5,2075.5h583.4c8.3,0,15,6.7,15,15v116.6c0,8.3-6.7,15-15,15H577.5c-8.3,0-15-6.7-15-15v-116.6
	C562.5,2082.2,569.2,2075.5,577.5,2075.5z"/>
<path class="st5" d="M598.5,2102.5h113.9c3.3,0,6,2.7,6,6v3c0,3.3-2.7,6-6,6H598.5c-3.3,0-6-2.7-6-6v-3
	C592.5,2105.2,595.2,2102.5,598.5,2102.5z"/>
<path class="st6" d="M594.8,2183.4l2.9-3.8c3.2,3.6,7.8,5.7,12.6,5.7c7.1,0,9.4-3.8,9.4-6.9c0-10.3-23.7-4.6-23.7-18.9
	c0-6.6,5.9-11.1,13.7-11.1c6.1,0,10.9,2,14.2,5.6l-3,3.7c-3-3.2-7.2-4.9-11.6-4.8c-4.8,0-8.2,2.6-8.2,6.4c0,9,23.7,3.8,23.7,18.8
	c0,5.8-4,11.8-14.8,11.8C603.2,2189.7,598.1,2187.1,594.8,2183.4L594.8,2183.4z M650.3,2189v-3.3c-2.5,2.7-6,4.1-9.6,4
	c-4.9,0-10.1-3.3-10.1-9.6c0-6.5,5.2-9.5,10.1-9.5c4,0,7.3,1.3,9.6,4v-5.2c0-3.9-3.1-6.1-7.3-6.1c-3.4,0-6.7,1.4-8.9,4l-2.1-3.1
	c3-3.2,7.2-4.9,11.6-4.8c6.1,0,11.2,2.8,11.2,9.8v19.9H650.3z M650.3,2182.9v-5.5c-1.9-2.4-4.9-3.7-8-3.6c-4.2,0-7.1,2.6-7.1,6.4
	s2.9,6.3,7.1,6.3C645.4,2186.6,648.3,2185.3,650.3,2182.9z M683.3,2189v-19c0-5.1-2.6-6.7-6.5-6.7c-3.4,0.1-6.6,1.8-8.6,4.5v21.2
	h-4.5v-29h4.5v4.2c2.6-3,6.3-4.8,10.3-4.9c6.1,0,9.2,3.1,9.2,9.4v20.4H683.3z M712.5,2189v-40h26.2v4.4h-21.2v12.9h20.8v4.4h-20.8
	v18.2H712.5z M745.3,2189v-29h4.5v4.7c2.3-3.1,5.7-5.3,9.7-5.3v4.6c-0.6-0.1-1.2-0.2-1.8-0.2c-3.2,0.3-6.1,2-7.9,4.6v20.6H745.3z
	 M783.2,2189v-3.3c-2.5,2.7-6,4.1-9.6,4c-4.9,0-10.1-3.3-10.1-9.6c0-6.5,5.2-9.5,10.1-9.5c4,0,7.3,1.3,9.6,4v-5.2
	c0-3.9-3.1-6.1-7.3-6.1c-3.4,0-6.7,1.4-8.9,4l-2.1-3.1c3-3.2,7.2-4.9,11.6-4.8c6.1,0,11.2,2.8,11.2,9.8v19.9H783.2z M783.2,2182.9
	v-5.5c-1.9-2.4-4.9-3.7-8-3.6c-4.2,0-7.1,2.6-7.1,6.4s2.9,6.3,7.1,6.3C778.3,2186.6,781.3,2185.3,783.2,2182.9z M816.3,2189v-19
	c0-5.1-2.6-6.7-6.5-6.7c-3.4,0.1-6.6,1.8-8.6,4.5v21.2h-4.5v-29h4.5v4.2c2.6-3,6.3-4.8,10.3-4.9c6.1,0,9.2,3.1,9.2,9.4v20.4H816.3z
	 M828.1,2174.5c0-8.6,5.8-15.2,14.5-15.2c4.2-0.2,8.1,1.7,10.6,5l-3,2.8c-1.6-2.4-4.4-3.9-7.4-3.8c-6.2,0-10,4.7-10,11.2
	s3.8,11.2,10,11.2c2.9,0.1,5.7-1.4,7.4-3.8l3,2.8c-2.5,3.3-6.5,5.2-10.6,5C833.9,2189.7,828.1,2183.1,828.1,2174.5z M858.7,2152.9
	c0-1.7,1.4-3,3-3c1.7,0,3,1.4,3,3s-1.4,3-3,3C860.1,2155.9,858.7,2154.6,858.7,2152.9z M859.5,2189v-29h4.5v29H859.5z M870.5,2185.2
	l2.3-3.2c2.5,2.6,5.9,4.1,9.5,4.1c4.4,0,6.8-2.1,6.8-5c0-7-17.9-2.7-17.9-13.4c0-4.5,3.9-8.3,10.8-8.3c4-0.1,7.9,1.4,10.7,4.2
	l-2.1,3.1c-2.2-2.4-5.4-3.7-8.6-3.7c-4,0-6.4,2-6.4,4.6c0,6.4,17.9,2.2,17.9,13.4c0,4.9-3.9,8.8-11.4,8.8
	C877.4,2189.7,873.4,2188.3,870.5,2185.2L870.5,2185.2z M899.2,2174.5c0-8.6,5.8-15.2,14.5-15.2c4.2-0.2,8.1,1.7,10.6,5l-3,2.8
	c-1.6-2.4-4.4-3.9-7.4-3.8c-6.2,0-10,4.7-10,11.2s3.8,11.2,10,11.2c2.9,0.1,5.7-1.4,7.4-3.8l3,2.8c-2.5,3.3-6.5,5.2-10.6,5
	C905,2189.7,899.2,2183.1,899.2,2174.5z M928.9,2174.5c0-8.4,5.5-15.2,14.3-15.2s14.3,6.8,14.3,15.2s-5.5,15.2-14.3,15.2
	S928.9,2182.9,928.9,2174.5z M952.8,2174.5c0-5.9-3.4-11.2-9.6-11.2s-9.7,5.3-9.7,11.2s3.5,11.2,9.7,11.2S952.8,2180.4,952.8,2174.5
	z"/>
<path class="st4" d="M1245.3,2075.5h584.2c8.3,0,15,6.7,15,15v116.6c0,8.3-6.7,15-15,15h-584.2c-8.3,0-15-6.7-15-15v-116.6
	C1230.3,2082.2,1237,2075.5,1245.3,2075.5z"/>
<path class="st5" d="M1266.3,2102.5h236.2c3.3,0,6,2.7,6,6v3c0,3.3-2.7,6-6,6h-236.2c-3.3,0-6-2.7-6-6v-3
	C1260.3,2105.2,1263,2102.5,1266.3,2102.5z"/>
<path class="st6" d="M1259.6,2169c0-12.3,9.1-20.7,20.6-20.7c6.1-0.1,11.8,2.9,15.2,7.9l-4.2,2.3c-2.5-3.6-6.6-5.8-11-5.8
	c-8.8,0-15.4,6.7-15.4,16.3s6.7,16.3,15.4,16.3c4.4,0,8.5-2.2,11-5.8l4.3,2.3c-3.4,4.6-8.2,7.9-15.2,7.9
	C1268.6,2189.7,1259.6,2181.3,1259.6,2169L1259.6,2169z M1319.7,2189v-3.3c-2.5,2.7-6,4.1-9.6,4c-4.9,0-10.1-3.3-10.1-9.6
	c0-6.5,5.2-9.5,10.1-9.5c4,0,7.3,1.3,9.6,4v-5.2c0-3.9-3.1-6.1-7.3-6.1c-3.4,0-6.7,1.4-8.9,4l-2.1-3.1c3-3.2,7.2-4.9,11.6-4.8
	c6.1,0,11.2,2.8,11.2,9.8v19.9H1319.7z M1319.7,2182.9v-5.5c-1.9-2.4-4.9-3.7-8-3.6c-4.2,0-7.1,2.6-7.1,6.4s2.9,6.3,7.1,6.3
	C1314.8,2186.6,1317.7,2185.3,1319.7,2182.9z M1333.2,2189v-40h4.5v40H1333.2z M1345.9,2152.9c0-1.7,1.4-3,3-3s3,1.4,3,3s-1.4,3-3,3
	S1345.9,2154.6,1345.9,2152.9z M1346.7,2189v-29h4.5v29H1346.7z M1361.4,2189v-25h-4.8v-4h4.8v-2.2c0-5.9,3.2-9.4,8.4-9.4
	c2.3-0.1,4.5,0.7,6.1,2.2l-1.9,2.9c-1-0.9-2.3-1.4-3.6-1.4c-2.9,0-4.6,2-4.6,5.7v2.2h5.9v4h-5.9v25H1361.4z M1375.5,2174.5
	c0-8.4,5.5-15.2,14.3-15.2s14.3,6.8,14.3,15.2s-5.5,15.2-14.3,15.2S1375.5,2182.9,1375.5,2174.5z M1399.4,2174.5
	c0-5.9-3.4-11.2-9.6-11.2s-9.7,5.3-9.7,11.2s3.5,11.2,9.7,11.2S1399.4,2180.4,1399.4,2174.5z M1411.5,2189v-29h4.5v4.7
	c2.3-3.1,5.7-5.3,9.7-5.3v4.6c-0.6-0.1-1.2-0.2-1.8-0.2c-3.2,0.3-6.1,2-7.9,4.6v20.6H1411.5z M1450.8,2189v-19
	c0-5.1-2.6-6.7-6.5-6.7c-3.4,0.1-6.6,1.8-8.6,4.5v21.2h-4.5v-29h4.5v4.2c2.6-3,6.3-4.8,10.3-4.9c6.1,0,9.2,3.1,9.2,9.4v20.4H1450.8z
	 M1463.6,2152.9c0-1.7,1.4-3,3-3s3,1.4,3,3s-1.4,3-3,3S1463.6,2154.6,1463.6,2152.9z M1464.3,2189v-29h4.5v29H1464.3z M1496,2189
	v-3.3c-2.5,2.7-6,4.1-9.6,4c-4.9,0-10.1-3.3-10.1-9.6c0-6.5,5.2-9.5,10.1-9.5c4,0,7.3,1.3,9.6,4v-5.2c0-3.9-3.1-6.1-7.3-6.1
	c-3.4,0-6.7,1.4-8.9,4l-2.1-3.1c3-3.2,7.2-4.9,11.6-4.8c6.1,0,11.2,2.8,11.2,9.8v19.9H1496z M1496,2182.9v-5.5
	c-1.9-2.4-4.9-3.7-8-3.6c-4.2,0-7.1,2.6-7.1,6.4s2.9,6.3,7.1,6.3C1491.1,2186.6,1494.1,2185.3,1496,2182.9z"/>
<path class="st4" d="M1913.6,2075.5h577.8c8.3,0,15,6.7,15,15v116.6c0,8.3-6.7,15-15,15h-577.8c-8.3,0-15-6.7-15-15v-116.6
	C1898.6,2082.2,1905.3,2075.5,1913.6,2075.5z"/>
<path class="st5" d="M1933.8,2102.5H2098c3.3,0,6,2.7,6,6v3c0,3.3-2.7,6-6,6h-164.2c-3.3,0-6-2.7-6-6v-3
	C1927.8,2105.2,1930.5,2102.5,1933.8,2102.5z"/>
<path class="st6" d="M1929.5,2184.9l2.5-3.7c2,2.7,5.2,4.2,8.6,4.1c8.1,0,11.3-8.1,11.3-15.7c0-0.5,0-1.1-0.1-1.6
	c-2.6,3.7-6.7,6.1-11.3,6.2c-7.2,0-13.1-4.3-13.1-12.8c0-6.9,5.3-13.1,14-13.1c11.2,0,15.5,9.8,15.5,20.7s-5,20.6-16.3,20.6
	C1936.4,2189.8,1932.3,2188.1,1929.5,2184.9L1929.5,2184.9z M1951.7,2163.9c-0.4-5-3.1-11.2-10-11.2c-6.1,0-9.2,4.7-9.2,8.5
	c0,5.9,4.1,8.6,9.2,8.6C1945.9,2169.7,1949.6,2167.5,1951.7,2163.9L1951.7,2163.9z M1980.9,2189v-10.1h-19v-4.1l17.1-25.7h6.8v25.5
	h5.6v4.4h-5.6v10.1L1980.9,2189z M1980.9,2153.6l-14,20.9h14V2153.6z M2004.1,2189v-33.4l-6.4,6.8l-3-3.1l10-10.3h4.4v40
	L2004.1,2189z M2016.8,2169c0-9.8,4.3-20.6,15.3-20.6s15.3,10.9,15.3,20.6s-4.4,20.7-15.3,20.7S2016.8,2178.7,2016.8,2169z
	 M2042.3,2169c0-8-2.6-16.2-10.2-16.2s-10.2,8.2-10.2,16.2s2.6,16.3,10.2,16.3S2042.3,2177,2042.3,2169z M2057.8,2189l16.1-35.6
	h-21.5v-4.4h27.3v3.4l-16.4,36.6L2057.8,2189z"/>
<path class="st4" d="M577.5,1877.5h1917c8.3,0,15,6.7,15,15v116.6c0,8.3-6.7,15-15,15h-1917c-8.3,0-15-6.7-15-15v-116.6
	C562.5,1884.2,569.2,1877.5,577.5,1877.5z"/>
<path class="st5" d="M598.5,1904.5h233.9c3.3,0,6,2.7,6,6v3c0,3.3-2.7,6-6,6H598.5c-3.3,0-6-2.7-6-6v-3
	C592.5,1907.2,595.2,1904.5,598.5,1904.5z"/>
<path class="st6" d="M603.2,1987v-33.4l-6.4,6.8l-3-3.1l10-10.3h4.4v40L603.2,1987z M616,1976.9c0-5.3,4.6-9,9.5-10.5
	c-4.6-1.3-8.9-4.3-8.9-9.6c0-7.2,7-10.4,13.7-10.4s13.7,3.2,13.7,10.4c0,5.3-4.3,8.3-8.9,9.6c5,1.5,9.5,5.2,9.5,10.5
	c0,6.8-6.5,10.9-14.3,10.9S616,1983.7,616,1976.9z M639.6,1976.3c0-5.2-6.8-7.4-9.3-7.7c-2.5,0.3-9.4,2.5-9.4,7.7c0,4.3,4.4,7,9.4,7
	S639.6,1980.6,639.6,1976.3L639.6,1976.3z M639,1957.4c0-4.1-3.9-6.6-8.7-6.6s-8.7,2.5-8.7,6.6c0,4.9,6.3,6.5,8.7,6.9
	C632.8,1963.9,639,1962.3,639,1957.4L639,1957.4z M651.7,1981.3l3.1-3.3c2.6,3.5,6.7,5.4,11,5.3c5.5,0,9.2-3.7,9.2-8.6
	c0-5.3-3.8-8.6-9.2-8.6c-3.5-0.1-6.8,1.3-9.2,3.8l-3.7-1.3V1947h24.5v4.4h-19.5v13.9c2.5-2.4,5.9-3.6,9.4-3.6
	c6.7,0,12.7,4.6,12.7,12.8s-6.2,13.2-14.2,13.2C659,1987.7,654.7,1985.3,651.7,1981.3L651.7,1981.3z M703.3,1987v-40h17.8
	c7,0,11.2,4.2,11.2,10.2c0.2,4.3-2.8,8.2-7,9.2c4.3,0.7,7.8,5,7.8,9.8c0,6.4-4.3,10.8-11.6,10.8L703.3,1987z M727.1,1957.9
	c0-3.6-2.4-6.5-6.9-6.5h-12v12.9h12C724.7,1964.3,727.1,1961.6,727.1,1957.9z M727.9,1975.7c0-3.7-2.5-6.9-7.4-6.9h-12.2v13.8h12.2
	C725.2,1982.6,727.9,1979.9,727.9,1975.7z M739.1,1972.5c0-8.4,6-15.2,14.3-15.2c8.8,0,13.9,6.8,13.9,15.5v1.2h-23.5
	c0.4,5.5,4.2,10,10.4,10c3.3,0,6.6-1.3,8.9-3.7l2.2,2.9c-3.1,3-7.2,4.6-11.5,4.4C745.3,1987.7,739.1,1981.5,739.1,1972.5
	L739.1,1972.5z M753.4,1961c-6.2,0-9.2,5.2-9.5,9.7h19C762.8,1966.4,760,1961,753.4,1961z M774.6,1987v-29h4.5v4.7
	c2.3-3.1,5.7-5.3,9.7-5.3v4.6c-0.6-0.1-1.2-0.2-1.8-0.2c-3.2,0.3-6.1,2-7.9,4.6v20.6L774.6,1987z M794.4,1987v-29h4.5v4.7
	c2.3-3.1,5.7-5.3,9.7-5.3v4.6c-0.6-0.1-1.2-0.2-1.8-0.2c-3.2,0.3-6.1,2-7.9,4.6v20.6L794.4,1987z M813.3,1994.3
	c0.8,0.3,1.6,0.5,2.5,0.5c2,0,3.3-0.7,4.3-3.1l1.9-4.4l-12.1-29.3h4.9l9.7,23.8l9.6-23.8h4.9l-14.5,34.9c-1.7,4.2-4.7,5.8-8.5,5.9
	c-1.1,0-2.2-0.2-3.3-0.4L813.3,1994.3z M856.8,1981.4l2.9-3.8c3.2,3.6,7.8,5.7,12.6,5.7c7.1,0,9.4-3.8,9.4-6.9
	c0-10.3-23.7-4.6-23.7-18.9c0-6.6,5.9-11.1,13.7-11.1c6.1,0,10.9,2,14.2,5.6l-3,3.7c-3-3.2-7.2-4.9-11.6-4.8c-4.8,0-8.2,2.6-8.2,6.4
	c0,9,23.7,3.8,23.7,18.8c0,5.8-4,11.8-14.8,11.8C865.2,1987.7,860.1,1985.1,856.8,1981.4L856.8,1981.4z M894.1,1980.9v-19h-4.8v-4
	h4.8v-7.9h4.5v8h5.9v4h-5.9v18c0,2.2,1,3.7,2.9,3.7c1.1,0,2.2-0.4,3.1-1.2l1.3,3.4c-1.5,1.3-3.4,2-5.4,1.9
	C896.3,1987.7,894.1,1985.3,894.1,1980.9L894.1,1980.9z"/>
<path class="st4" d="M577.5,1678h920.9c8.3,0,15,6.7,15,15v116.6c0,8.3-6.7,15-15,15H577.5c-8.3,0-15-6.7-15-15V1693
	C562.5,1684.7,569.2,1678,577.5,1678z"/>
<path class="st5" d="M598.5,1705h179.9c3.3,0,6,2.7,6,6v3c0,3.3-2.7,6-6,6H598.5c-3.3,0-6-2.7-6-6v-3
	C592.5,1707.7,595.2,1705,598.5,1705z"/>
<path class="st6" d="M593.2,1783.6l2.6-3.8c1.7,2.1,4.1,4,7.6,4c4.9,0,8-3.4,8-8.4v-27.9h5v28c0,8.7-5.6,12.8-12.7,12.8
	C599.6,1788.5,595.7,1786.7,593.2,1783.6L593.2,1783.6z M623.8,1773c0-8.4,6-15.2,14.3-15.2c8.8,0,13.9,6.8,13.9,15.5v1.1h-23.5
	c0.4,5.5,4.2,10,10.4,10c3.3,0,6.6-1.3,8.9-3.7l2.2,2.9c-3.1,3-7.2,4.6-11.5,4.4C630,1788.2,623.8,1782,623.8,1773L623.8,1773z
	 M638,1761.5c-6.2,0-9.2,5.2-9.5,9.7h19C647.5,1766.9,644.6,1761.5,638,1761.5z M678.8,1787.5v-19c0-5.1-2.6-6.7-6.5-6.7
	c-3.4,0.1-6.6,1.8-8.6,4.5v21.2h-4.5v-29h4.5v4.2c2.6-3,6.3-4.8,10.3-4.9c6.1,0,9.2,3.1,9.2,9.4v20.3L678.8,1787.5z M711.9,1787.5
	v-19c0-5.1-2.6-6.7-6.5-6.7c-3.4,0.1-6.6,1.8-8.6,4.5v21.2h-4.5v-29h4.5v4.2c2.6-3,6.3-4.8,10.3-4.9c6.1,0,9.2,3.1,9.2,9.4v20.3
	L711.9,1787.5z M724.5,1794.8c0.8,0.3,1.6,0.5,2.5,0.5c2,0,3.3-0.7,4.3-3.1l1.9-4.4l-12.1-29.3h4.9l9.7,23.8l9.6-23.8h4.9
	l-14.5,34.9c-1.7,4.2-4.7,5.8-8.5,5.9c-1.1,0-2.2-0.2-3.3-0.4L724.5,1794.8z"/>
<path class="st4" d="M1581.3,1678h913.2c8.3,0,15,6.7,15,15v116.6c0,8.3-6.7,15-15,15h-913.2c-8.3,0-15-6.7-15-15V1693
	C1566.3,1684.7,1573,1678,1581.3,1678z"/>
<path class="st5" d="M1602.3,1705h185.2c3.3,0,6,2.7,6,6v3c0,3.3-2.7,6-6,6h-185.2c-3.3,0-6-2.7-6-6v-3
	C1596.3,1707.7,1599,1705,1602.3,1705z"/>
<path class="st6" d="M1625.3,1787.5l-10.2-15.9h-8v15.9h-5v-40h16.1c7.3,0,12.5,4.7,12.5,12.1c0,7.2-4.9,11.2-10.4,11.6l10.8,16.3
	L1625.3,1787.5z M1625.6,1759.5c0-4.5-3.2-7.6-8-7.6h-10.5v15.3h10.5C1622.4,1767.2,1625.6,1764,1625.6,1759.5L1625.6,1759.5z
	 M1635,1773c0-8.4,5.5-15.2,14.3-15.2s14.3,6.8,14.3,15.2s-5.5,15.2-14.3,15.2S1635,1781.4,1635,1773z M1658.9,1773
	c0-5.9-3.4-11.2-9.6-11.2s-9.7,5.3-9.7,11.2s3.5,11.2,9.7,11.2S1658.9,1778.9,1658.9,1773z M1668.5,1783.7l2.3-3.2
	c2.5,2.6,5.9,4.1,9.5,4.1c4.4,0,6.8-2.1,6.8-5c0-7-17.9-2.7-17.9-13.4c0-4.5,3.9-8.3,10.8-8.3c4-0.1,7.9,1.4,10.7,4.2l-2.1,3.1
	c-2.2-2.4-5.4-3.8-8.6-3.7c-4,0-6.4,2-6.4,4.6c0,6.4,17.9,2.2,17.9,13.4c0,4.9-3.9,8.8-11.4,8.8
	C1675.4,1788.2,1671.4,1786.8,1668.5,1783.7z M1697.2,1773c0-8.4,6-15.2,14.3-15.2c8.8,0,13.9,6.8,13.9,15.5v1.1H1702
	c0.4,5.5,4.2,10,10.4,10c3.3,0,6.6-1.3,8.9-3.7l2.2,2.9c-3.1,3-7.2,4.6-11.5,4.4C1703.4,1788.2,1697.2,1782,1697.2,1773L1697.2,1773
	z M1711.4,1761.5c-6.2,0-9.2,5.2-9.5,9.7h19C1720.9,1766.9,1718,1761.5,1711.4,1761.5L1711.4,1761.5z M1752.2,1787.5v-19
	c0-5.1-2.6-6.7-6.5-6.7c-3.4,0.1-6.6,1.8-8.6,4.5v21.2h-4.5v-29h4.5v4.2c2.6-3,6.3-4.8,10.3-4.9c6.1,0,9.2,3.1,9.2,9.4v20.3
	L1752.2,1787.5z"/>
<path class="st7" d="M566.4,1620.9v-30h14.8c5.5,0,8.5,3.4,8.5,7.7c0.2,3.3-2,6.2-5.2,6.9c3.2,0.5,5.8,3.7,5.8,7.4
	c0,4.6-3.1,8.1-8.7,8.1L566.4,1620.9z M584.3,1599.4c0-2.2-1.5-3.9-4.2-3.9h-8.4v7.8h8.4C582.8,1603.3,584.3,1601.7,584.3,1599.4z
	 M584.9,1612.1c0-2.2-1.6-4.1-4.6-4.1h-8.6v8.3h8.6C583.2,1616.3,584.9,1614.7,584.9,1612.1L584.9,1612.1z M597.8,1620.9v-30h5.3v30
	H597.8z M611.7,1620.9v-30h5.3v25.4h13.2v4.6L611.7,1620.9z M637.2,1620.9v-30h5.3v25.4h13.2v4.6L637.2,1620.9z M662.8,1620.9v-30
	h5.2v30H662.8z M697.6,1620.9l-15.7-21.4v21.4h-5.3v-30h5.4l15.3,20.8v-20.8h5.3v30H697.6z M710,1605.9c0-9.4,7.1-15.5,15.8-15.5
	c4.8-0.1,9.4,2.2,12.1,6.2l-4.3,2.4c-1.8-2.5-4.7-4-7.8-4c-5.9,0-10.3,4.5-10.3,10.8s4.4,10.9,10.3,10.9c2.6,0,5.1-1,7.1-2.7v-4.7
	h-9v-4.6h14.2v11.2c-3.1,3.5-7.7,5.5-12.4,5.4C717,1621.5,710,1615.3,710,1605.9L710,1605.9z M780.7,1620.9l-2.2-5.8h-13.8l-2.2,5.8
	h-6l11.8-30h6.6l11.8,30H780.7z M771.6,1596.2l-5.4,14.3H777L771.6,1596.2z M792.2,1620.9v-30h11.2c9.4,0,15.7,6.2,15.7,15
	s-6.3,15-15.7,15H792.2z M813.6,1605.9c0-5.8-3.6-10.4-10.3-10.4h-5.9v20.7h5.9C809.9,1616.3,813.6,1611.6,813.6,1605.9
	L813.6,1605.9z M826.4,1620.9v-30h11.2c9.4,0,15.7,6.2,15.7,15s-6.3,15-15.7,15H826.4z M847.8,1605.9c0-5.8-3.6-10.4-10.3-10.4h-5.9
	v20.7h5.9C844.1,1616.3,847.8,1611.6,847.8,1605.9L847.8,1605.9z M877.7,1620.9l-6.7-11.2h-5.2v11.2h-5.3v-30h13.2
	c5.9,0,9.8,3.9,9.8,9.4c0,5.3-3.5,8.2-7.1,8.8l7.3,11.8L877.7,1620.9z M878.2,1600.3c0-2.9-2.2-4.8-5.1-4.8h-7.2v9.5h7.2
	C876,1605.1,878.2,1603.2,878.2,1600.3z M891.1,1620.9v-30h20.6v4.6h-15.3v7.8h15v4.6h-15v8.3h15.3v4.6L891.1,1620.9z M917.4,1616.7
	l2.9-4.1c2.5,2.6,5.9,4.1,9.5,4.1c4.3,0,6-2.1,6-4.1c0-6.3-17.5-2.4-17.5-13.4c0-5,4.4-8.8,10.9-8.8c4.2-0.2,8.2,1.4,11.2,4.2
	l-3,3.9c-2.3-2.2-5.5-3.5-8.7-3.4c-3.1,0-5.1,1.5-5.1,3.7c0,5.6,17.5,2.1,17.5,13.3c0,5-3.5,9.3-11.6,9.3
	C924,1621.4,920,1619.5,917.4,1616.7L917.4,1616.7z M946.3,1616.7l2.9-4.1c2.5,2.6,5.9,4.1,9.5,4.1c4.3,0,6-2.1,6-4.1
	c0-6.3-17.5-2.4-17.5-13.4c0-5,4.4-8.8,10.9-8.8c4.2-0.2,8.2,1.4,11.2,4.2l-3,3.9c-2.3-2.2-5.5-3.5-8.7-3.4c-3.1,0-5.1,1.5-5.1,3.7
	c0,5.6,17.5,2.1,17.5,13.3c0,5-3.5,9.3-11.6,9.3C953,1621.4,949,1619.5,946.3,1616.7L946.3,1616.7z"/>
<path class="st4" d="M577.5,1351h920.9c8.3,0,15,6.7,15,15v116.6c0,8.3-6.7,15-15,15H577.5c-8.3,0-15-6.7-15-15V1366
	C562.5,1357.7,569.2,1351,577.5,1351z"/>
<path class="st8" d="M1485.9,1370.8H1358c-4.1,0-7.5,3.4-7.5,7.5l0,0v92.1c0,4.1,3.4,7.5,7.5,7.5l0,0h127.9c4.1,0,7.5-3.4,7.5-7.5
	l0,0v-92.1C1493.4,1374.1,1490.1,1370.8,1485.9,1370.8C1485.9,1370.8,1485.9,1370.8,1485.9,1370.8z M1382.8,1441.2l-6.9-26.5
	c-0.4-1.6-0.8-2.2-2-2.9c-2.7-1.3-5.6-2.2-8.5-2.8l0.2-1h14.7c2,0,3.7,1.4,4,3.4l3.6,19.2l9-22.6h9l-14,33.2L1382.8,1441.2z
	 M1402.4,1441.2l7.1-33.2h8.6l-7.1,33.2H1402.4z M1426.5,1441.7c-3.3,0-6.5-0.6-9.6-1.8l1.6-7.3c2.7,1.4,5.8,2.2,8.8,2.1
	c2.5,0,5.1-1,5.2-3.3c0-1.4-1.1-2.5-4.5-4.1s-7.6-4.3-7.5-9c0-6.5,6-11,14.6-11c2.7,0,5.4,0.5,8,1.5l-1.5,7
	c-2.6-1.2-5.6-1.8-8.5-1.5c-2.5,0.3-3.6,1.6-3.7,2.8c-0.1,3.9,12.1,4.4,12.1,13.2C1441.5,1437.2,1435.6,1441.7,1426.5,1441.7
	L1426.5,1441.7z M1464,1441.2l-1-5h-11l-1.8,5h-9l12.9-30.8c0.6-1.5,2.1-2.4,3.7-2.4h7.2l7,33.2H1464z M1454.4,1429.4h7.2l-2.6-12.5
	L1454.4,1429.4z"/>
<path class="st5" d="M598.5,1378h416.9c3.3,0,6,2.7,6,6v3c0,3.3-2.7,6-6,6H598.5c-3.3,0-6-2.7-6-6v-3
	C592.5,1380.7,595.2,1378,598.5,1378z"/>
<path class="st6" d="M613.4,1460.5v-10.1h-19v-4.1l17.2-25.7h6.8v25.5h5.6v4.4h-5.6v10.1L613.4,1460.5z M613.4,1425.1l-14,20.9h14
	V1425.1z M629.2,1460.5v-4c14.4-11.3,22.2-18,22.2-24.9c0-5.1-4.2-7.3-8.3-7.3c-4.2-0.1-8.2,1.7-10.9,5l-3.1-3.2
	c3.1-4,8.3-6.3,13.9-6.3c6.7,0,13.4,3.8,13.4,11.8c0,8.2-8.3,15.6-19.4,24.4h19.6v4.4L629.2,1460.5z M682.2,1460.5v-10.1h-19v-4.1
	l17.2-25.7h6.8v25.5h5.6v4.4h-5.6v10.1L682.2,1460.5z M682.2,1425.1l-14,20.9h14V1425.1z M698,1460.5v-4
	c14.4-11.3,22.2-18,22.2-24.9c0-5.1-4.2-7.3-8.3-7.3c-4.2-0.1-8.2,1.7-10.9,5l-3.1-3.2c3.1-4,8.3-6.3,13.9-6.3
	c6.7,0,13.4,3.8,13.4,11.8c0,8.2-8.3,15.6-19.4,24.4h19.6v4.4L698,1460.5z M748.6,1450.4c0-5.3,4.6-9,9.5-10.5
	c-4.6-1.3-8.9-4.3-8.9-9.6c0-7.2,7-10.4,13.7-10.4s13.7,3.2,13.7,10.4c0,5.3-4.3,8.3-8.9,9.6c5,1.5,9.5,5.2,9.5,10.5
	c0,6.8-6.5,10.9-14.3,10.9S748.6,1457.2,748.6,1450.4L748.6,1450.4z M772.3,1449.8c0-5.2-6.8-7.4-9.3-7.7c-2.5,0.3-9.4,2.5-9.4,7.7
	c0,4.3,4.4,7,9.4,7S772.3,1454.1,772.3,1449.8z M771.7,1430.9c0-4.1-3.9-6.6-8.7-6.6s-8.7,2.5-8.7,6.6c0,4.9,6.3,6.5,8.7,6.9
	C765.4,1437.4,771.7,1435.8,771.7,1430.9z M783.6,1460.5v-4c14.4-11.3,22.2-18,22.2-24.9c0-5.1-4.2-7.3-8.3-7.3
	c-4.2-0.1-8.2,1.7-10.9,5l-3.1-3.2c3.1-4,8.3-6.3,13.9-6.3c6.7,0,13.4,3.8,13.4,11.8c0,8.2-8.3,15.6-19.4,24.4h19.6v4.4
	L783.6,1460.5z M818.9,1460.5v-4c14.4-11.3,22.2-18,22.2-24.9c0-5.1-4.2-7.3-8.3-7.3c-4.2-0.1-8.2,1.7-10.9,5l-3.1-3.2
	c3.1-4,8.3-6.3,13.9-6.3c6.7,0,13.4,3.8,13.4,11.8c0,8.2-8.3,15.6-19.4,24.4h19.6v4.4L818.9,1460.5z M871.9,1460.5v-10.1h-19v-4.1
	l17.1-25.7h6.8v25.5h5.6v4.4h-5.6v10.1L871.9,1460.5z M871.9,1425.1l-14,20.9h14V1425.1z M902.9,1440.6c0-10.9,5-20.7,16.3-20.7
	c4.2-0.2,8.3,1.6,11.1,4.8l-2.5,3.7c-2-2.7-5.2-4.2-8.6-4.1c-7.7,0-11.3,7.9-11.3,15.7c0,0.5,0,1,0.1,1.6c2.6-3.8,6.8-6.1,11.3-6.2
	c7.2,0,13.1,4.3,13.1,12.8c0,7-5.3,13.1-14,13.1C907.2,1461.2,902.9,1451.4,902.9,1440.6L902.9,1440.6z M927.4,1448.3
	c0-5.9-4.1-8.6-9.2-8.6c-4.1,0.2-7.9,2.4-10,6c0.5,5,3.1,11.1,10.1,11.1C924.4,1456.8,927.4,1452.2,927.4,1448.3z M937.1,1454.6
	l2.9-3.1c2.7,3.4,6.8,5.4,11.2,5.3c5.8,0,9.4-2.9,9.4-7.5c0-5-4.1-7.1-10-7.1c-1.7,0-3.5,0-4.1,0.1v-4.6c0.7,0.1,2.5,0.1,4.1,0.1
	c5,0,9.3-2,9.3-6.6c0-4.4-4.1-6.8-8.9-6.8c-4.1,0-7.9,1.7-10.6,4.9l-2.8-3.1c3.4-4,8.4-6.3,13.7-6.2c7.7,0,13.6,3.9,13.6,10.7
	c0,5.8-4.9,8.6-8.6,9.3c3.7,0.3,9.2,3.4,9.2,9.8c0,6.7-5.3,11.5-14.2,11.5C944.5,1461.2,939.5,1458.2,937.1,1454.6L937.1,1454.6z
	 M979.4,1460.5v-33.4l-6.4,6.8l-3-3.1l10-10.3h4.4v40L979.4,1460.5z M992.2,1440.5c0-9.8,4.3-20.6,15.3-20.6s15.3,10.9,15.3,20.6
	s-4.4,20.7-15.3,20.7S992.2,1450.2,992.2,1440.5z M1017.7,1440.5c0-8-2.6-16.2-10.2-16.2s-10.2,8.2-10.2,16.2s2.6,16.3,10.2,16.3
	S1017.7,1448.5,1017.7,1440.5z M1044.4,1450.4c0-5.3,4.6-9,9.5-10.5c-4.6-1.3-8.9-4.3-8.9-9.6c0-7.2,7-10.4,13.7-10.4
	s13.7,3.2,13.7,10.4c0,5.3-4.3,8.3-8.9,9.6c5,1.5,9.5,5.2,9.5,10.5c0,6.8-6.5,10.9-14.3,10.9S1044.4,1457.2,1044.4,1450.4
	L1044.4,1450.4z M1068,1449.8c0-5.2-6.8-7.4-9.3-7.7c-2.5,0.3-9.4,2.5-9.4,7.7c0,4.3,4.4,7,9.4,7S1068,1454.1,1068,1449.8z
	 M1067.5,1430.9c0-4.1-3.9-6.6-8.7-6.6s-8.7,2.5-8.7,6.6c0,4.9,6.3,6.5,8.7,6.9C1061.2,1437.4,1067.5,1435.8,1067.5,1430.9z
	 M1079.4,1460.5v-4c14.4-11.3,22.2-18,22.2-24.9c0-5.1-4.2-7.3-8.3-7.3c-4.2-0.1-8.2,1.7-10.8,5l-3.1-3.2c3.1-4,8.3-6.3,13.9-6.3
	c6.7,0,13.4,3.8,13.4,11.8c0,8.2-8.3,15.6-19.4,24.4h19.6v4.4L1079.4,1460.5z M1122.1,1460.5v-33.4l-6.4,6.8l-3-3.1l10-10.3h4.4v40
	L1122.1,1460.5z M1134.8,1440.5c0-9.8,4.3-20.6,15.3-20.6s15.3,10.9,15.3,20.6s-4.4,20.7-15.3,20.7S1134.8,1450.2,1134.8,1440.5z
	 M1160.3,1440.5c0-8-2.6-16.2-10.2-16.2s-10.2,8.2-10.2,16.2s2.6,16.3,10.2,16.3S1160.3,1448.5,1160.3,1440.5z"/>
<path class="st4" d="M1581.3,1351h416.2c8.3,0,15,6.7,15,15v116.6c0,8.3-6.7,15-15,15h-416.2c-8.3,0-15-6.7-15-15V1366
	C1566.3,1357.7,1573,1351,1581.3,1351z"/>
<path class="st5" d="M1602.3,1378h155.2c3.3,0,6,2.7,6,6v3c0,3.3-2.7,6-6,6h-155.2c-3.3,0-6-2.7-6-6v-3
	C1596.3,1380.7,1599,1378,1602.3,1378z"/>
<path class="st6" d="M1600.6,1440.5c0-9.8,4.3-20.6,15.3-20.6s15.3,10.9,15.3,20.6s-4.4,20.7-15.3,20.7S1600.6,1450.2,1600.6,1440.5
	z M1626.1,1440.5c0-8-2.6-16.2-10.2-16.2s-10.2,8.2-10.2,16.2s2.6,16.3,10.2,16.3S1626.1,1448.5,1626.1,1440.5z M1639.3,1456.4
	l2.5-3.7c2,2.7,5.2,4.2,8.6,4.1c8.1,0,11.3-8.1,11.3-15.7c0-0.5,0-1.1-0.1-1.6c-2.6,3.7-6.7,6.1-11.3,6.2c-7.2,0-13.1-4.3-13.1-12.8
	c0-6.9,5.3-13.1,14-13.1c11.2,0,15.5,9.8,15.5,20.7s-5,20.6-16.3,20.6C1646.1,1461.3,1642,1459.6,1639.3,1456.4L1639.3,1456.4z
	 M1661.4,1435.4c-0.4-5-3.1-11.2-10-11.2c-6.1,0-9.2,4.7-9.2,8.5c0,5.9,4.1,8.6,9.2,8.6C1655.6,1441.2,1659.3,1439,1661.4,1435.4
	L1661.4,1435.4z M1685.2,1461.7l14.2-42.4h3.5l-14.2,42.4H1685.2z M1721.6,1460.5v-4c14.4-11.3,22.2-18,22.2-24.9
	c0-5.1-4.2-7.3-8.3-7.3c-4.2-0.1-8.2,1.7-10.9,5l-3.1-3.2c3.1-4,8.3-6.3,13.9-6.3c6.7,0,13.4,3.8,13.4,11.8
	c0,8.2-8.3,15.6-19.4,24.4h19.6v4.4L1721.6,1460.5z M1756.7,1440.5c0-9.8,4.3-20.6,15.3-20.6s15.3,10.9,15.3,20.6
	s-4.4,20.7-15.3,20.7S1756.7,1450.2,1756.7,1440.5z M1782.2,1440.5c0-8-2.6-16.2-10.2-16.2s-10.2,8.2-10.2,16.2s2.6,16.3,10.2,16.3
	S1782.2,1448.5,1782.2,1440.5z M1801.1,1460.5v-33.4l-6.4,6.8l-3-3.1l10-10.3h4.4v40L1801.1,1460.5z M1815.8,1456.4l2.5-3.7
	c2,2.7,5.2,4.2,8.6,4.1c8.1,0,11.3-8.1,11.3-15.7c0-0.5,0-1.1-0.1-1.6c-2.6,3.7-6.7,6.1-11.3,6.2c-7.2,0-13.1-4.3-13.1-12.8
	c0-6.9,5.3-13.1,14-13.1c11.2,0,15.5,9.8,15.5,20.7s-5,20.6-16.3,20.6C1822.7,1461.3,1818.6,1459.6,1815.8,1456.4L1815.8,1456.4z
	 M1837.9,1435.4c-0.4-5-3.1-11.2-10-11.2c-6.1,0-9.2,4.7-9.2,8.5c0,5.9,4.1,8.6,9.2,8.6C1832.1,1441.2,1835.8,1439,1837.9,1435.4
	L1837.9,1435.4z"/>
<path class="st4" d="M2077.8,1351h416.7c8.3,0,15,6.7,15,15v116.6c0,8.3-6.7,15-15,15h-416.7c-8.3,0-15-6.7-15-15V1366
	C2062.8,1357.7,2069.5,1351,2077.8,1351z"/>
<path class="st5" d="M2098.8,1378h68.2c3.3,0,6,2.7,6,6v3c0,3.3-2.7,6-6,6h-68.2c-3.3,0-6-2.7-6-6v-3
	C2092.8,1380.7,2095.5,1378,2098.8,1378z"/>
<path class="st5" d="M2418.3,1394.5h48c3.3,0,6,2.7,6,6v48c0,3.3-2.7,6-6,6h-48c-3.3,0-6-2.7-6-6v-48
	C2412.3,1397.2,2415,1394.5,2418.3,1394.5z"/>
<path class="st6" d="M2101.3,1460.5l16.1-35.6h-21.5v-4.4h27.3v3.4l-16.4,36.6L2101.3,1460.5z M2128,1450.4c0-5.3,4.6-9,9.5-10.5
	c-4.6-1.3-8.9-4.3-8.9-9.6c0-7.2,7-10.4,13.7-10.4s13.7,3.2,13.7,10.4c0,5.3-4.3,8.3-8.9,9.6c5,1.5,9.5,5.2,9.5,10.5
	c0,6.8-6.5,10.9-14.3,10.9S2128,1457.2,2128,1450.4z M2151.6,1449.8c0-5.2-6.8-7.4-9.3-7.7c-2.5,0.3-9.4,2.5-9.4,7.7
	c0,4.3,4.4,7,9.4,7S2151.7,1454.1,2151.6,1449.8L2151.6,1449.8z M2151,1430.9c0-4.1-3.9-6.6-8.7-6.6s-8.7,2.5-8.7,6.6
	c0,4.9,6.3,6.5,8.7,6.9C2144.8,1437.4,2151.1,1435.8,2151,1430.9L2151,1430.9z M2164.8,1456.4l2.5-3.7c2,2.7,5.2,4.2,8.6,4.1
	c8.1,0,11.3-8.1,11.3-15.7c0-0.5,0-1.1-0.1-1.6c-2.6,3.7-6.7,6.1-11.3,6.2c-7.2,0-13.1-4.3-13.1-12.8c0-6.9,5.3-13.1,14-13.1
	c11.2,0,15.5,9.8,15.5,20.7s-5,20.6-16.3,20.6C2171.7,1461.3,2167.6,1459.6,2164.8,1456.4L2164.8,1456.4z M2186.9,1435.4
	c-0.4-5-3.1-11.2-10-11.2c-6.1,0-9.2,4.7-9.2,8.5c0,5.9,4.1,8.6,9.2,8.6C2181.1,1441.2,2184.9,1439,2186.9,1435.4z"/>
<path class="st7" d="M565.1,1278.9c0-9.2,6.9-15.5,15.8-15.5c5-0.1,9.6,2.5,12.1,6.8l-4.5,2.3c-1.6-2.7-4.5-4.3-7.6-4.4
	c-5.9,0-10.3,4.5-10.3,10.8s4.4,10.8,10.3,10.8c3.1,0,6-1.7,7.6-4.4l4.5,2.3c-2.5,4.3-7.1,6.9-12.1,6.8
	C572,1294.4,565.1,1288.1,565.1,1278.9z M620.2,1293.9l-2.2-5.8h-13.8l-2.2,5.8h-6l11.8-30h6.6l11.8,30H620.2z M611.1,1269.2
	l-5.4,14.3h10.8L611.1,1269.2z M648.8,1293.9l-6.7-11.2h-5.2v11.2h-5.3v-30h13.2c5.9,0,9.8,3.9,9.8,9.4c0,5.3-3.5,8.2-7.1,8.8
	l7.3,11.8L648.8,1293.9z M649.3,1273.3c0-2.9-2.2-4.8-5.1-4.8h-7.2v9.5h7.2C647.1,1278.1,649.3,1276.2,649.3,1273.3z M662.2,1293.9
	v-30h11.2c9.4,0,15.7,6.2,15.7,15s-6.3,15-15.7,15H662.2z M683.6,1278.9c0-5.8-3.6-10.4-10.3-10.4h-5.9v20.7h5.9
	C679.9,1289.3,683.6,1284.6,683.6,1278.9L683.6,1278.9z M710.2,1293.9v-30h11.2c9.4,0,15.7,6.2,15.7,15s-6.3,15-15.7,15H710.2z
	 M731.7,1278.9c0-5.8-3.6-10.4-10.3-10.4h-5.9v20.7h5.9C727.9,1289.3,731.7,1284.6,731.7,1278.9L731.7,1278.9z M744.4,1293.9v-30
	H765v4.6h-15.3v7.8h15v4.6h-15v8.3H765v4.6L744.4,1293.9z M779.8,1293.9v-25.4h-9.1v-4.6h23.4v4.6H785v25.4H779.8z M818.9,1293.9
	l-2.2-5.8h-13.8l-2.2,5.8h-6l11.8-30h6.6l11.8,30H818.9z M809.8,1269.2l-5.4,14.3h10.8L809.8,1269.2z M830.4,1293.9v-30h5.3v30
	H830.4z M844.3,1293.9v-30h5.3v25.4h13.2v4.6L844.3,1293.9z M867.9,1289.7l2.9-4.1c2.5,2.6,5.9,4.1,9.5,4.1c4.3,0,6-2.1,6-4.1
	c0-6.3-17.5-2.4-17.5-13.4c0-5,4.4-8.8,10.9-8.8c4.2-0.2,8.2,1.4,11.2,4.2l-3,3.9c-2.3-2.2-5.5-3.5-8.7-3.4c-3.1,0-5.1,1.5-5.1,3.7
	c0,5.6,17.5,2.1,17.5,13.3c0,5-3.5,9.3-11.6,9.3C874.6,1294.4,870.6,1292.5,867.9,1289.7L867.9,1289.7z"/>
<path class="st5" d="M562.5,1144h1947v6h-1947V1144z"/>
<path class="st9" d="M562.5,1144h453v6h-453V1144z M565.4,1085.4c0-11.1,8.3-18.6,18.9-18.6c5.9-0.1,11.5,3,14.5,8.1l-5.4,2.8
	c-1.9-3.2-5.3-5.2-9.1-5.2c-7.1,0-12.4,5.4-12.4,13s5.3,13,12.4,13c3.7,0,7.2-2,9.1-5.2l5.4,2.8c-3,5.1-8.5,8.2-14.5,8.1
	C573.7,1104,565.4,1096.5,565.4,1085.4z M603.7,1103.4v-26.1h5.7v3.8c2-2.7,5.1-4.3,8.5-4.4v5.6c-0.6-0.1-1.2-0.2-1.8-0.2
	c-2.4,0-5.6,1.6-6.7,3.5v17.8L603.7,1103.4z M620.8,1090.3c0-7.6,5.5-13.7,13.2-13.7s12.8,6,12.8,14.2v1.3h-20.1
	c0.4,4.2,4.1,7.4,8.3,7.2c2.7,0,5.4-1,7.4-2.9l2.6,3.7c-2.9,2.6-6.7,3.9-10.6,3.8C626.7,1104,620.8,1098.6,620.8,1090.3z
	 M634.1,1081.3c-4.9,0-7.1,3.7-7.3,6.9h14.7c0-3.9-3.2-7-7.1-6.9C634.3,1081.3,634.2,1081.3,634.1,1081.3L634.1,1081.3z
	 M670.9,1103.4v-3.6c-2,2.6-5.1,4.2-8.4,4.2c-6.7,0-11.6-5.1-11.6-13.7c0-8.4,4.9-13.7,11.6-13.7c3.3,0,6.4,1.6,8.4,4.3v-13.6h5.7
	v36L670.9,1103.4z M670.9,1095.6v-10.4c-1.6-2.2-4.1-3.5-6.8-3.5c-4.5,0-7.3,3.6-7.3,8.7s2.9,8.6,7.3,8.6
	C666.8,1099,669.3,1097.7,670.9,1095.6z M683.2,1070.6c0-1.9,1.6-3.5,3.5-3.5s3.5,1.6,3.5,3.5s-1.6,3.5-3.5,3.5
	C684.8,1074.1,683.2,1072.6,683.2,1070.6z M683.9,1103.4v-26.1h5.7v26.1H683.9z M698.1,1097.4v-15.1h-4.3v-5h4.3v-7.1h5.7v7.1h5.3v5
	h-5.3v13.7c0,1.8,0.9,3.1,2.5,3.1c0.9,0,1.8-0.3,2.5-0.9l1.3,4.3c-1,1-2.7,1.7-5.3,1.7C700.4,1104,698.1,1101.7,698.1,1097.4
	L698.1,1097.4z M724.4,1104.5l12.8-38.2h4.2l-12.8,38.2H724.4z M759.1,1103.4v-36h13.4c11.2,0,18.8,7.4,18.8,18s-7.6,18-18.8,18
	H759.1z M784.8,1085.4c0-7-4.3-12.5-12.4-12.5h-7.1v24.9h7.1C780.3,1097.8,784.8,1092.2,784.8,1085.4L784.8,1085.4z M795.6,1090.3
	c0-7.6,5.5-13.7,13.2-13.7s12.8,6,12.8,14.2v1.3h-20.1c0.4,4.2,4.1,7.4,8.3,7.2c2.7,0,5.4-1,7.4-2.9l2.6,3.7
	c-2.9,2.5-6.7,3.9-10.6,3.7C801.5,1104,795.6,1098.6,795.6,1090.3L795.6,1090.3z M808.9,1081.3c-4.9,0-7.1,3.7-7.3,6.9h14.7
	c0-3.9-3.2-7-7.1-6.9C809.1,1081.3,809,1081.3,808.9,1081.3L808.9,1081.3z M827.3,1103.4v-36h5.7v13.6c1.9-2.7,5.1-4.3,8.4-4.3
	c6.7,0,11.5,5.3,11.5,13.7c0,8.6-4.9,13.7-11.5,13.7c-3.3,0-6.4-1.6-8.4-4.2v3.6L827.3,1103.4z M839.7,1099c4.5,0,7.4-3.6,7.4-8.6
	s-2.9-8.7-7.4-8.7c-2.7,0.1-5.1,1.4-6.7,3.6v10.3C834.6,1097.7,837.1,1099,839.7,1099z M858,1070.6c0-1.9,1.6-3.5,3.5-3.5
	s3.5,1.6,3.5,3.5s-1.6,3.5-3.5,3.5C859.6,1074.1,858,1072.6,858,1070.6z M858.7,1103.4v-26.1h5.7v26.1H858.7z M872.9,1097.4v-15.1
	h-4.3v-5h4.3v-7.1h5.7v7.1h5.3v5h-5.3v13.7c0,1.8,0.9,3.1,2.5,3.1c0.9,0,1.8-0.3,2.5-0.9l1.3,4.3c-1,1-2.7,1.7-5.3,1.7
	C875.2,1104,872.9,1101.7,872.9,1097.4L872.9,1097.4z M901.4,1085.4c0-11.1,8.3-18.6,18.9-18.6c5.9-0.1,11.5,3,14.5,8.1l-5.4,2.8
	c-1.9-3.2-5.3-5.2-9.1-5.2c-7.1,0-12.4,5.4-12.4,13s5.3,13,12.4,13c3.7,0,7.2-2,9.1-5.2l5.4,2.8c-3,5.1-8.5,8.2-14.5,8.1
	C909.6,1104,901.4,1096.5,901.4,1085.4z M955.6,1103.4v-2.8c-2.2,2.3-5.3,3.6-8.4,3.4c-4.3,0-9.1-2.9-9.1-8.6c0-6,4.8-8.5,9.1-8.5
	c3.5,0,6.5,1.1,8.4,3.3v-3.9c0-3-2.5-4.9-6.1-4.9c-2.9,0-5.7,1.2-7.7,3.3l-2.3-3.9c3-2.8,6.9-4.3,11-4.2c5.8,0,10.9,2.4,10.9,9.4
	v17.3H955.6z M955.6,1097.5v-4c-1.5-1.8-3.8-2.8-6.2-2.7c-3.2,0-5.6,1.8-5.6,4.7s2.4,4.7,5.6,4.7
	C951.7,1100.2,954,1099.3,955.6,1097.5z M968.6,1103.4v-26.1h5.7v3.8c2-2.7,5.1-4.3,8.5-4.4v5.6c-0.6-0.1-1.2-0.2-1.8-0.2
	c-2.4,0-5.6,1.6-6.7,3.5v17.8L968.6,1103.4z M1005.7,1103.4v-3.6c-2,2.6-5.1,4.2-8.4,4.2c-6.7,0-11.6-5.1-11.6-13.7
	c0-8.4,4.9-13.7,11.6-13.7c3.3,0,6.4,1.6,8.4,4.3v-13.6h5.7v36L1005.7,1103.4z M1005.7,1095.6v-10.4c-1.6-2.2-4.1-3.5-6.8-3.5
	c-4.5,0-7.3,3.6-7.3,8.7s2.9,8.6,7.3,8.6C1001.6,1099,1004.1,1097.7,1005.7,1095.6z"/>
<circle class="st10" cx="2052.4" cy="516" r="30.8"/>
<path class="st11" d="M2128.9,502.5h224.2c3.3,0,6,2.7,6,6v15c0,3.3-2.7,6-6,6h-224.2c-3.3,0-6-2.7-6-6v-15
	C2122.9,505.2,2125.6,502.5,2128.9,502.5z"/>
<circle class="st12" cx="1399.9" cy="516" r="30.8"/>
<path class="st9" d="M1476.4,502.5h224.2c3.3,0,6,2.7,6,6v15c0,3.3-2.7,6-6,6h-224.2c-3.3,0-6-2.7-6-6v-15
	C1470.4,505.2,1473.1,502.5,1476.4,502.5z"/>
<circle class="st10" cx="732.4" cy="516" r="30.8"/>
<path class="st11" d="M808.9,502.5h224.2c3.3,0,6,2.7,6,6v15c0,3.3-2.7,6-6,6H808.9c-3.3,0-6-2.7-6-6v-15
	C802.9,505.2,805.6,502.5,808.9,502.5z"/>
<path class="st9" d="M456.7,280.5c-31.6-9.9-60.7,13.6-60.7,43.8h17.8c0-18.9,18.7-33.5,38.6-26.3c7.4,2.7,13.2,8.5,15.9,15.9
	c7.2,19.9-7.4,38.6-26.3,38.6v-17.7h-17.8v17.8h-13.7v-11.5h-11.4v11.4h11.4v13.7h13.7v-13.6h17.7v17.8c30.1,0,53.6-29.1,43.8-60.7
	C481.4,295.8,470.6,284.9,456.7,280.5L456.7,280.5z M559.9,304.9c-5.3-3.7-11.8-5.5-19.5-5.5h-16.7v53h16.7c7.7,0,14.2-2,19.5-5.8
	c3-2.2,5.3-5.1,6.7-8.5c1.7-4,2.5-8.2,2.4-12.5c0.1-4.2-0.7-8.5-2.4-12.4C565.3,309.8,562.9,306.9,559.9,304.9L559.9,304.9z
	 M552.9,339.9c-3.5,2.3-8.3,3.5-14.2,3.5h-5.3v-35h5.2c5.8,0,10.6,1.1,14.3,3.4c4,2.4,6.1,7.1,6.1,13.8
	C559.1,332.4,557,337.2,552.9,339.9L552.9,339.9z M580.6,298.7c-1.5,0-3,0.6-4.1,1.7c-1.1,1-1.7,2.5-1.7,4c-0.1,3.2,2.4,5.9,5.6,6
	c3.2,0.1,5.9-2.4,6-5.6c0-0.2,0-0.3,0-0.5c0-1.5-0.6-3-1.7-4C583.7,299.3,582.2,298.7,580.6,298.7L580.6,298.7z M575.8,352.3h9.4
	V315h-9.4V352.3z M619.3,318.1c-2.5-2.5-5.9-3.9-9.4-4c-4.8-0.1-9.5,1.8-12.8,5.3c-3.4,3.6-5.2,8.4-5.1,13.4
	c-0.1,4.9,1.7,9.7,5,13.4c3.4,3.5,8.1,5.4,13,5.3c3.3,0.1,6.6-1,9.3-3v0.9c0,3.1-0.8,5.5-2.5,7.2c-1.8,1.7-4.3,2.7-6.8,2.5
	c-4.3,0-7-1.7-10.4-6.2l-6.4,6.2l0.2,0.2c1.7,2.3,3.9,4.2,6.3,5.6c3.1,1.9,6.8,2.8,10.4,2.7c5.6,0,10.1-1.7,13.4-5.1s5-8,5-13.5V315
	h-9.2L619.3,318.1z M616.9,340.1c-1.6,1.9-4,2.9-6.4,2.8c-2.4,0.1-4.8-0.9-6.4-2.8c-1.7-2.1-2.5-4.7-2.4-7.3
	c-0.1-2.7,0.7-5.3,2.4-7.4c3.3-3.5,8.9-3.7,12.4-0.4c0.1,0.1,0.3,0.3,0.4,0.4c1.7,2.1,2.6,4.7,2.5,7.4
	C619.4,335.5,618.6,338.1,616.9,340.1L616.9,340.1z M636.6,352.3h9.4V315h-9.4L636.6,352.3z M641.4,298.7c-1.5,0-3,0.6-4.1,1.7
	c-1.1,1-1.7,2.5-1.7,4c-0.1,3.2,2.4,5.9,5.6,6c3.2,0.1,5.9-2.4,6-5.6c0-0.2,0-0.3,0-0.5c0-1.5-0.6-3-1.7-4
	C644.4,299.3,642.9,298.7,641.4,298.7L641.4,298.7z M666.5,304.9h-9.2V315H652v8.5h5.4V339c0,4.8,1,8.3,2.9,10.3s5.3,3,10.1,3
	c1.5,0,3.1,0,4.6-0.1h0.4v-8.5l-3.2,0.2c-2.2,0-3.7-0.4-4.4-1.2s-1.1-2.5-1.1-4.9v-14.2h8.7V315h-8.7L666.5,304.9z M719.3,352.3h9.4
	v-53h-9.4V352.3z M818.8,343.3c-1.5,0.9-3.2,1.3-4.9,1.3c-2.6,0.1-5.1-1.1-6.8-3.1c-3.6-4.6-3.6-11.1,0-15.8c1.7-2,4.2-3.1,6.8-3.1
	c3,0,6.2,1.9,8.9,5.1l6.2-6c-3.5-4.9-9.3-7.8-15.4-7.7c-5-0.1-9.8,2-13.3,5.6c-7.3,7.8-7.3,20,0,27.8c3.5,3.6,8.3,5.6,13.3,5.6
	c6.4,0.2,12.5-3,16-8.3l-6.1-5.9C822.1,340.6,820.6,342.1,818.8,343.3L818.8,343.3z M862,320.2c-1.4-1.9-3.3-3.4-5.4-4.4
	c-2.4-1.1-5.1-1.7-7.8-1.6c-4.9-0.1-9.6,2-12.7,5.8c-3.2,4-4.9,8.9-4.7,14c0,5.6,1.7,10.3,5.2,13.9s8,5.4,13.5,5.4
	c6.1,0.1,11.8-2.7,15.4-7.6l0.2-0.3l-6.1-5.9c-0.7,0.8-1.4,1.5-2.1,2.1c-0.8,0.8-1.7,1.5-2.7,2c-1.5,0.7-3.1,1.1-4.7,1
	c-2.3,0.1-4.6-0.7-6.4-2.3c-1.6-1.5-2.5-3.5-2.7-5.7h24.9l0.1-3.4c0-2.3-0.3-4.7-1-6.9C864.3,324.1,863.3,322.1,862,320.2L862,320.2
	z M841.5,329c0.4-1.7,1.2-3.2,2.5-4.4c1.3-1.3,3.1-2,4.9-1.9c1.9-0.1,3.8,0.6,5.2,1.9c1.1,1.2,1.8,2.7,1.9,4.4H841.5z M898.1,317.8
	c-2.8-2.4-6.8-3.7-11.7-3.7c-3,0-6,0.7-8.7,2c-2.7,1.3-4.9,3.4-6.4,6l0.1,0.1l6,5.8c2.5-4,5.2-5.3,8.9-5.3c1.7-0.1,3.5,0.5,4.8,1.6
	c1.2,1,1.9,2.4,1.8,4v1.8c-2.2-0.7-4.6-1.1-6.9-1.1c-4.7,0-8.5,1.1-11.3,3.3c-2.9,2.2-4.5,5.7-4.3,9.3c-0.1,3.2,1.2,6.3,3.6,8.5
	c2.6,2.1,5.8,3.2,9.1,3.1c3.7-0.1,7.2-1.5,10-3.9v3.1h9.2v-24C902.4,323.8,901,320.3,898.1,317.8L898.1,317.8z M893,342
	c-2.2,2-5.1,3-8.1,2.9c-1.3,0.1-2.7-0.3-3.8-1.1c-0.8-0.7-1.3-1.7-1.2-2.8c-0.1-1.2,0.5-2.3,1.5-3c1.4-0.8,2.9-1.1,4.5-1
	c2.4,0,4.8,0.5,7.1,1.3V342z M938.5,318.6c-2.6-2.9-6.3-4.4-10.9-4.4c-3.3-0.1-6.5,1-9,3.2V315h-9.2v37.3h9.4v-20.5
	c-0.1-2.4,0.6-4.7,2-6.7c1.4-1.6,3.4-2.5,5.6-2.4c1.9-0.1,3.7,0.7,4.9,2.1c1.3,1.7,1.9,3.8,1.8,5.9v21.6h9.4v-21.6
	C942.4,325.5,941.1,321.4,938.5,318.6L938.5,318.6z M707.5,317.8c-2.8-2.4-6.8-3.7-11.7-3.7c-3,0-6,0.7-8.7,2
	c-2.7,1.3-4.9,3.4-6.4,6l0.1,0.1l6,5.8c2.5-4,5.2-5.3,8.9-5.3c1.7-0.1,3.5,0.5,4.8,1.6c1.2,1,1.9,2.4,1.8,4v1.8
	c-2.2-0.7-4.6-1.1-6.9-1.1c-4.7,0-8.5,1.1-11.3,3.3c-2.9,2.2-4.5,5.7-4.3,9.3c-0.1,3.2,1.2,6.3,3.6,8.5c2.6,2.1,5.8,3.2,9.1,3.1
	c3.7-0.1,7.2-1.5,10-3.9v3.1h9.2v-24C711.9,323.8,710.4,320.3,707.5,317.8L707.5,317.8z M702.5,342c-2.2,2-5.1,3-8.1,2.9
	c-1.3,0.1-2.7-0.3-3.8-1.1c-0.8-0.7-1.3-1.7-1.3-2.7c-0.1-1.2,0.5-2.3,1.5-3c1.3-0.8,2.9-1.2,4.5-1.1c2.4,0,4.9,0.5,7.1,1.4V342z
	 M762.8,298.6c-15.1,0-27.3,12.2-27.3,27.3c0,15.1,12.2,27.3,27.3,27.3c15.1,0,27.3-12.2,27.3-27.3c0,0,0,0,0,0
	C790.1,310.8,777.9,298.5,762.8,298.6L762.8,298.6z M762.8,343.6c-9.8,0-17.7-7.9-17.7-17.7c0-9.8,7.9-17.7,17.7-17.7
	c9.8,0,17.7,7.9,17.7,17.7c0,0,0,0,0,0C780.4,335.6,772.5,343.5,762.8,343.6L762.8,343.6z"/>
<ellipse class="st5" cx="2568.2" cy="331.5" rx="58.5" ry="58.5"/>
<path class="st13" d="M2648.1,324l12.9,12.9l12.9-12.9"/>
<path class="st14" d="M484,147h2068v3.3H484V147z"/>
<path class="st15" d="M484,9.8h2068V147H484V9.8z"/>
<path class="st14" d="M857.6,63.5h1320.8c5.6,0,10.1,4.9,10.1,11v41.7c0,6.1-4.5,11-10.1,11H857.6c-5.6,0-10.1-4.9-10.1-11V74.5
	C847.5,68.4,852,63.5,857.6,63.5z"/>
<path class="st16" d="M1357.4,85.5h321.1c2.2,0,4,2,4,4.4v11c0,2.4-1.8,4.4-4,4.4h-321.1c-2.2,0-4-2-4-4.4v-11
	C1353.4,87.5,1355.2,85.5,1357.4,85.5z"/>
<path class="st16" d="M1331.2,91.6v-2.8c0-4.8-3.6-8.8-8.1-8.8s-8.1,3.9-8.1,8.8v2.8c-1.2,0.8-2,2.2-2,3.8v8.8c0,2.4,1.8,4.4,4,4.4
	h12.1c2.2,0,4-2,4-4.4v-8.8C1333.2,93.8,1332.4,92.3,1331.2,91.6z M1327.2,93.2h-8.1v-4.4c0-2.4,1.8-4.4,4-4.4s4,2,4,4.4V93.2z"/>
<path class="st17" d="M560.9,80.7l-14.5,15.8l14.5,15.8 M654.4,112.3L669,96.5l-14.5-15.8 M757,77.4c-8.9,0-9.7,7-9.7,7V116
	c0,0,3.2-5.3,11.3-5.3c7.3,0,8.1,7,8.1,7V84.4C766.7,84.4,765.9,77.4,757,77.4L757,77.4z M766.7,84.4c0,0,0.8-7,9.7-7s9.7,7,9.7,7
	V116c0,0-3.2-5.3-11.3-5.3c-7.3,0-8.1,7-8.1,7"/>
<path class="st17" d="M2258,83.4h22.6c1.8,0,3.2,1.6,3.2,3.5v24.6c0,1.9-1.4,3.5-3.2,3.5H2258c-1.8,0-3.2-1.6-3.2-3.5V86.9
	C2254.7,85,2256.2,83.4,2258,83.4z"/>
<path class="st17" d="M2275.7,77.3l-6.5-7l-6.5,7 M2377.3,77.8v35.1 M2361.2,95.4h32.3"/>
<path class="st17" d="M2471.9,83.8h21c2.2,0,4,2,4,4.4v22.8c0,2.4-1.8,4.4-4,4.4h-21c-2.2,0-4-2-4-4.4V88.2
	C2467.9,85.8,2469.7,83.8,2471.9,83.8z"/>
<path class="st17" d="M2502.6,105.8c1.8,0,3.2-1.6,3.2-3.5c0,0,0,0,0,0V77.7c0-1.9-1.4-3.5-3.2-3.5l0,0H2480c-1.8,0-3.2,1.6-3.2,3.5
	c0,0,0,0,0,0"/>
<linearGradient id="SVGID_1_" gradientUnits="userSpaceOnUse" x1="307.4458" y1="2083.3367" x2="2719.7244" y2="269.808" gradientTransform="matrix(1 0 0 -1 0 2304)">
	<stop  offset="0" style="stop-color:#FFFFFF"/>
	<stop  offset="0.48" style="stop-color:#FFFFFF;stop-opacity:0"/>
	<stop  offset="0.52" style="stop-color:#6B7C93;stop-opacity:0"/>
	<stop  offset="1" style="stop-color:#6B7C93"/>
</linearGradient>
<path class="st18" d="M474-0.9h2079.2v2256.6H474V-0.9z"/>
</svg>
