<svg xmlns="http://www.w3.org/2000/svg" width="36" height="41" viewBox="0 0 36 41">
    <g fill="none" fill-rule="evenodd">
        <path fill="#0C3769" d="M14.403 11.815C7.554 11.815.275 9.75.275 5.92c0-.438.36-.807.807-.807.447 0 .808.369.808.807 0 2.031 5.14 4.281 12.513 4.281 7.375 0 12.514-2.25 12.514-4.28 0-.44.361-.808.808-.808.446 0 .807.369.807.807 0 3.831-7.28 5.896-14.129 5.896M14.403 21.346C7.554 21.346.275 19.281.275 15.45c0-.45.36-.808.807-.808.447 0 .808.358.808.808 0 2.03 5.14 4.28 12.513 4.28 7.375 0 12.514-2.25 12.514-4.28 0-.45.361-.808.808-.808.446 0 .807.358.807.808 0 3.83-7.28 5.896-14.129 5.896M14.403 30.877C7.554 30.877.275 28.812.275 24.98c0-.45.36-.808.807-.808.447 0 .808.358.808.808 0 2.03 5.14 4.28 12.513 4.28 1.923 0 3.772-.15 5.497-.461a.8.8 0 0 1 .937.646.811.811 0 0 1-.653.946 33.174 33.174 0 0 1-5.78.485M6.62 2.596c-.21 0-.42-.08-.573-.23a.834.834 0 0 1-.234-.578.78.78 0 0 1 .242-.565c.291-.3.84-.311 1.14 0a.801.801 0 0 1 .233.565.85.85 0 0 1-.234.577.825.825 0 0 1-.573.231"/>
        <path fill="#0C3769" d="M27.725 20.965a.812.812 0 0 1-.808-.807V5.919c0-2.019-5.14-4.28-12.514-4.28-1.603 0-3.17.115-4.653.323a.796.796 0 0 1-.916-.681.808.808 0 0 1 .682-.912 33.557 33.557 0 0 1 4.887-.346c6.85 0 14.13 2.065 14.13 5.896v14.239a.812.812 0 0 1-.808.807M14.403 40.408c-6.849 0-14.128-2.066-14.128-5.896V5.919c0-1.061.6-2.607 3.462-3.946a.809.809 0 0 1 .684 1.465C2.814 4.188 1.89 5.1 1.89 5.92v28.593c0 2.019 5.14 4.28 12.513 4.28 6.642 0 11.298-1.846 12.306-3.577a.81.81 0 0 1 1.106-.3c.385.231.515.727.29 1.108-1.523 2.62-7.029 4.385-13.702 4.385"/>
        <path fill="#0C3769" d="M27.725 20.965c-3.617 0-6.559 2.943-6.559 6.566 0 .588.08 1.177.236 1.742a6.58 6.58 0 0 0 6.323 4.823c3.617 0 6.558-2.954 6.558-6.565 0-3.623-2.941-6.566-6.558-6.566zm0 14.735a8.183 8.183 0 0 1-7.881-6 8.155 8.155 0 0 1-.293-2.17c0-4.51 3.667-8.18 8.174-8.18s8.173 3.67 8.173 8.18c0 4.5-3.666 8.17-8.173 8.17z"/>
        <path fill="#00ADEF" d="M26.597 30.854a.796.796 0 0 1-.57-.242l-2.776-2.77a.809.809 0 0 1 0-1.142.794.794 0 0 1 1.142 0l2.204 2.204 4.46-4.466a.815.815 0 0 1 1.142 0 .806.806 0 0 1 0 1.143l-5.03 5.03a.796.796 0 0 1-.572.243"/>
    </g>
</svg>
