<svg xmlns="http://www.w3.org/2000/svg" width="35" height="25" viewBox="0 0 35 25">
    <g fill="none" fill-rule="evenodd">
        <path fill="#0C3769" d="M9.712 22.005h-6.83c-.39 0-.7-.313-.7-.7V.795c0-.387.31-.7.7-.7.38 0 .7.313.7.7v19.81h6.13c.38 0 .7.314.7.7 0 .387-.32.7-.7.7M13.672 22.004a.717.717 0 0 1-.49-.203.725.725 0 0 1-.21-.497c0-.182.08-.364.21-.497.25-.259.73-.259.99 0a.715.715 0 0 1 0 .994.723.723 0 0 1-.5.203M34.012 22.005h-16.37c-.38 0-.7-.313-.7-.7 0-.386.32-.7.7-.7h16.37c.39 0 .7.314.7.7 0 .387-.31.7-.7.7"/>
        <path fill="#0C3769" d="M.692 4.213a.705.705 0 0 1-.54-1.139L2.332.356c.24-.3.68-.35.98-.107.31.241.35.682.11.984l-2.18 2.718a.702.702 0 0 1-.55.262"/>
        <path fill="#0C3769" d="M5.062 4.213c-.21 0-.41-.09-.55-.262l-2.18-2.718a.703.703 0 0 1 .11-.984c.3-.243.74-.193.98.107l2.18 2.718c.24.302.2.743-.11.985a.67.67 0 0 1-.43.154M34.292 22.005c-.15 0-.3-.05-.43-.152l-2.73-2.175a.702.702 0 0 1 .88-1.094l2.72 2.174a.7.7 0 1 1-.44 1.247"/>
        <path fill="#0C3769" d="M31.572 24.179a.7.7 0 0 1-.44-1.247l2.73-2.174c.3-.241.74-.191.98.111s.19.743-.11.984l-2.72 2.174a.714.714 0 0 1-.44.152"/>
        <path fill="#20C4EE" d="M7.962 6.663c-.63 0-1.14.506-1.14 1.128 0 .622.51 1.129 1.14 1.129.62 0 1.14-.507 1.14-1.129a1.14 1.14 0 0 0-1.14-1.128zm0 3.657c-1.4 0-2.54-1.134-2.54-2.529a2.537 2.537 0 0 1 2.54-2.528c1.4 0 2.54 1.134 2.54 2.528a2.537 2.537 0 0 1-2.54 2.529zM6.892 14.711c-.62 0-1.13.506-1.13 1.128 0 .622.51 1.128 1.13 1.128.63 0 1.14-.506 1.14-1.128 0-.622-.51-1.128-1.14-1.128zm0 3.656a2.529 2.529 0 1 1 0-5.056c1.4 0 2.54 1.134 2.54 2.528a2.537 2.537 0 0 1-2.54 2.528zM17.192 1.495c-.63 0-1.14.506-1.14 1.128 0 .622.51 1.128 1.14 1.128.62 0 1.13-.506 1.13-1.128 0-.622-.51-1.128-1.13-1.128zm0 3.656c-1.4 0-2.54-1.134-2.54-2.528a2.537 2.537 0 0 1 2.54-2.528 2.529 2.529 0 1 1 0 5.056zM17.192 11.054c-.63 0-1.14.506-1.14 1.128a1.135 1.135 0 0 0 2.27 0c0-.622-.51-1.128-1.13-1.128zm0 3.657c-1.4 0-2.54-1.134-2.54-2.529a2.537 2.537 0 0 1 2.54-2.528 2.529 2.529 0 1 1 0 5.057zM28.772 6.663c-.63 0-1.14.506-1.14 1.128 0 .622.51 1.129 1.14 1.129.63 0 1.14-.507 1.14-1.129s-.51-1.128-1.14-1.128zm0 3.657c-1.4 0-2.54-1.134-2.54-2.529a2.537 2.537 0 0 1 2.54-2.528c1.4 0 2.54 1.134 2.54 2.528a2.537 2.537 0 0 1-2.54 2.529zM32.452 14.211c-.63 0-1.14.507-1.14 1.129s.51 1.128 1.14 1.128c.62 0 1.13-.506 1.13-1.128 0-.622-.51-1.129-1.13-1.129zm0 3.657c-1.4 0-2.54-1.134-2.54-2.528a2.537 2.537 0 0 1 2.54-2.529 2.529 2.529 0 1 1 0 5.057z"/>
        <path fill="#20C4EE" d="M9.332 7.283a.698.698 0 0 1-.63-.392.698.698 0 0 1 .32-.937l6.26-3.07c.35-.17.77-.026.94.32.17.348.02.767-.32.937l-6.26 3.07a.716.716 0 0 1-.31.072M26.932 7.929c-.1 0-.2-.021-.29-.067l-7.91-3.716a.705.705 0 0 1-.34-.931c.16-.35.58-.5.93-.336l7.91 3.716c.35.164.5.581.34.931a.702.702 0 0 1-.64.403M8.732 16.04a.691.691 0 0 1-.66-.48.697.697 0 0 1 .44-.885l6.86-2.271c.36-.122.76.076.88.444a.704.704 0 0 1-.44.884l-6.86 2.272a.66.66 0 0 1-.22.036M30.612 16.04a.829.829 0 0 1-.14-.013l-11.58-2.272a.694.694 0 0 1-.55-.822.69.69 0 0 1 .82-.552l11.58 2.272c.38.074.63.442.56.821a.707.707 0 0 1-.69.566"/>
    </g>
</svg>
