<svg xmlns="http://www.w3.org/2000/svg" width="36" height="27" viewBox="0 0 36 27">
    <g fill="none" fill-rule="evenodd">
        <path fill="#0C3769" d="M10.7 24.056H3.25c-.38 0-.7-.314-.7-.7V.866c0-.386.32-.7.7-.7.39 0 .7.314.7.7v21.79h6.75c.39 0 .71.313.71.7 0 .386-.32.7-.71.7M15.03 24.052c-.18 0-.36-.07-.49-.203a.696.696 0 0 1-.21-.49.7.7 0 0 1 .21-.497c.25-.259.73-.266.99 0 .13.126.2.308.2.497a.686.686 0 0 1-.7.693M34.16 24.056h-14.8c-.39 0-.7-.314-.7-.7 0-.387.31-.7.7-.7h14.8c.39 0 .7.313.7.7 0 .386-.31.7-.7.7"/>
        <path fill="#0C3769" d="M.87 4.547c-.15 0-.3-.05-.43-.153a.703.703 0 0 1-.11-.984L2.71.43a.697.697 0 0 1 .98-.111c.3.242.35.682.11.984l-2.38 2.98a.7.7 0 0 1-.55.264"/>
        <path fill="#0C3769" d="M5.63 4.547c-.2 0-.41-.091-.54-.264l-2.38-2.98a.694.694 0 0 1 .11-.984c.3-.241.74-.191.98.111l2.38 2.98c.24.302.19.743-.11.984a.695.695 0 0 1-.44.153M34.47 24.056a.69.69 0 0 1-.43-.154l-2.98-2.384a.693.693 0 0 1-.1-.984.696.696 0 0 1 .98-.109l2.97 2.385c.3.241.35.682.11.984a.702.702 0 0 1-.55.262"/>
        <path fill="#0C3769" d="M31.5 26.44c-.2 0-.41-.09-.54-.262a.693.693 0 0 1 .1-.984l2.98-2.384c.3-.242.74-.194.98.108.24.301.19.742-.11.984l-2.97 2.384a.696.696 0 0 1-.44.154"/>
        <path fill="#20C4EE" d="M7.91 9.905h8.62V7.883H7.91v2.022zm9.32 1.4H7.21c-.39 0-.7-.313-.7-.7V7.183c0-.387.31-.7.7-.7h10.02c.38 0 .7.313.7.7v3.422c0 .387-.32.7-.7.7zM7.91 18.724h19.53v-2.023H7.91v2.023zm20.23 1.4H7.21c-.39 0-.7-.313-.7-.7v-3.423c0-.387.31-.7.7-.7h20.93c.39 0 .7.313.7.7v3.423c0 .387-.31.7-.7.7z"/>
    </g>
</svg>
