<svg xmlns="http://www.w3.org/2000/svg" width="111" height="38" viewBox="0 0 111 38">
    <g fill="#FFF" fill-rule="evenodd">
        <path d="M.634 37.365h109.718V.64H.634v36.724zM0 38h111V0H0v38z"/>
        <path d="M96.077 17.644c.17-.007.323-.019.475-.021.602-.013 1.204-.02 1.807-.038.467-.014.678-.227.693-.693.004-.213 0-.426-.002-.639-.014-.994.038-1.99-.114-2.979-.043-.292-.182-.429-.442-.498-.12-.03-.24-.041-.362-.041-.618 0-1.238 0-1.854.003-.065 0-.138-.025-.201.033v4.873zm1.704 3.802c-.43.145-.842.07-1.251.059-.23-.007-.322.096-.323.308-.003.296-.003.594-.003.89v6.412c0 .12.003.243-.01.364-.023.221-.163.378-.351.378-1.092.003-2.183.001-3.281.001a4.612 4.612 0 0 1-.06-.815c.002-6.365 0-12.731 0-19.096 0-.084-.002-.169 0-.252.01-.363.152-.512.52-.515.564-.006 1.13.003 1.696.003 1.762.001 3.526.004 5.29-.001a2.052 2.052 0 0 1 1.454.556c.297.273.62.518.894.817.287.317.443.67.437 1.11-.015 1.46-.015 2.92-.017 4.381 0 .972.003 1.946.016 2.919.005.375-.118.687-.387.936-.341.317-.69.623-1.04.928-.156.134-.177.26-.123.473.148.564.249 1.141.353 1.716.306 1.672.603 3.346.905 5.02.055.297.117.592.18.891.06.29-.002.554-.14.812-.054.096-.116.12-.219.119a308.04 308.04 0 0 0-2.817.001c-.148.002-.236-.072-.223-.194.04-.406-.12-.774-.196-1.157-.363-1.808-.675-3.625-1.001-5.44-.097-.53-.198-1.057-.303-1.624zM70.124 26.301h2.304c.507 0 .784-.278.784-.788l-.007-9.674c0-.768-.005-1.536.001-2.305.006-.526-.36-.888-.898-.868-.344.013-.686.013-1.03.002-.38-.01-.76-.002-1.154-.002V26.3zm-3.617-6.91v-7.347c0-.706-.007-1.415-.011-2.122 0-.061-.002-.12.002-.182.026-.445.146-.563.592-.563.558 0 1.116.006 1.674.006 1.84 0 3.68 0 5.52-.009.446-.001.805.124 1.106.476.332.383.713.724 1.077 1.08.273.267.384.598.386.965.004 1.993.002 3.987.002 5.978 0 3.21-.004 6.421.006 9.629 0 .35-.03.68-.278.931-.171.171-.346.344-.52.514-.36.346-.696.719-1.13.988a.4.4 0 0 1-.23.064c-2.512 0-5.026.003-7.537-.002-.21-.003-.349-.131-.486-.321-.241-.331-.169-.68-.169-1.026-.007-3.018-.004-6.039-.004-9.06zM26.098 20.174v5.501c0 .06-.004.122.001.184.016.167.102.262.279.266.764.022 1.526.045 2.289.022.522-.017.677-.174.686-.693.005-.388.008-.776.008-1.164V16.49c0-1.087.002-2.174-.006-3.261 0-.38-.176-.557-.557-.561a77.012 77.012 0 0 0-2.152 0c-.47.009-.556.112-.553.577.015 2.061.04 4.12.005 6.93m7.014-.63c0 2.64-.002 5.278.001 7.918 0 .391-.139.7-.448.95-.48.389-.862.884-1.336 1.282a.41.41 0 0 1-.283.108c-2.122-.003-4.247-.003-6.368-.003-.066 0-.137.02-.198-.03-.303-.251-.643-.453-.9-.768-.21-.255-.482-.457-.72-.693-.266-.26-.343-.579-.343-.912-.001-5.156.006-10.314 0-15.47 0-.59.18-1.063.632-1.446.242-.205.478-.431.681-.676.379-.456.878-.605 1.439-.618.465-.013.931-.009 1.398-.009 1.266 0 2.533.003 3.8.006.59 0 1.082.196 1.47.656.239.285.509.547.769.811.276.28.411.6.41 1-.009 2.632-.004 5.265-.004 7.894M17.057 21.589c.282.165.514.373.751.576.684.594 1.364 1.194 2.042 1.794.065.058.172.114.132.219-.04.112-.158.063-.243.065-.281.004-.563.001-.885.001 0 .443-.002.88 0 1.318.001.548.004 1.094.007 1.642.003.48-.111.904-.49 1.245-.45.407-.844.879-1.346 1.233a.613.613 0 0 1-.376.12c-2.025-.002-4.048-.013-6.07.007-.4.003-.712-.138-1-.366a5.02 5.02 0 0 1-.7-.686c-.408-.482-.622-.996-.62-1.669.031-5.24.018-10.48.014-15.72 0-.155.039-.269.147-.385.37-.402.766-.782 1.105-1.213.33-.419.764-.606 1.315-.6 1.81.019 3.62.013 5.429.003.449-.003.807.115 1.113.463.34.387.727.734 1.093 1.096.286.28.389.623.387 1.013-.004.98-.001 1.96-.001 2.959h1.176c.002.135-.093.188-.16.25-.859.81-1.774 1.555-2.678 2.315-.175.148-.308-.003-.415-.112a28.544 28.544 0 0 0-2.212-1.981c-.157-.128-.324-.248-.512-.39.402-.108.79-.042 1.186-.077 0-.47.038-.934-.012-1.39-.037-.32-.37-.675-.82-.658-.578.025-1.16.015-1.74.006-.479-.007-.811.327-.814.814-.003.556.006 1.11.006 1.666v8.92c0 .525-.003 1.05-.007 1.575-.003.367.19.69.67.668.686-.032 1.373-.008 2.06-.009a.684.684 0 0 0 .663-.663v-1.473h-1.23l3.035-2.576M83.84 21.325v5.04c.076.051.152.028.226.028l4.512-.01c.199 0 .35.148.35.347 0 .843.003 1.687 0 2.531-.001.091.01.19-.023.27-.055.136-.11.274-.315.273-2.678-.005-5.359-.003-8.037-.003-.033 0-.061-.006-.076-.007-.179-.23-.144-.49-.144-.741l-.001-18.983c0-.136-.006-.273-.014-.41-.014-.302.16-.483.473-.483l5.609.006c.664 0 1.328-.003 1.993-.006.362 0 .44.076.44.438 0 .874.002 1.749 0 2.623 0 .364-.1.445-.465.442-1.482-.009-2.963-.01-4.443-.013-.022 0-.044.008-.078.014v5.124c.08.042.164.02.247.02 1.32.002 2.64.002 3.96-.004.245-.002.441.055.597.263a.36.36 0 0 1 .088.235c.003.807.001 1.612.012 2.418.003.177-.065.325-.129.477-.052.12-.166.111-.276.111h-4.26M51.706 26.301h3.917c.258 0 .517.236.518.49.006.806.003 1.612.003 2.417 0 .06-.016.12-.029.18-.087.38-.126.413-.51.413H48.24c-.161-.23-.141-.48-.141-.728V9.635c0-.315.144-.456.46-.456.896 0 1.788.003 2.68.004.336 0 .467.13.467.46v16.494M40.394 26.301h3.861c.407 0 .545.137.547.53l.011 2.462c0 .364-.143.508-.496.508h-7.1a.454.454 0 0 1-.439-.4c-.008-.076-.003-.152-.003-.229l-.001-19.276c0-.687.033-.719.723-.719l2.45.006c.287.001.417.135.417.43l.001 16.402c0 .089-.021.181.03.286M59.477 29.8c-.17-.245-.146-.504-.146-.759V9.948c0-.128-.007-.257-.002-.388.014-.229.168-.38.4-.38.954-.003 1.907-.003 2.861.007.188.003.313.131.343.324.007.062.001.124.001.183v14.05c0 1.734.003 3.469.005 5.202 0 .092.003.183-.006.272-.05.515-.126.581-.637.581"/>
    </g>
</svg>
