<svg xmlns="http://www.w3.org/2000/svg" width="35" height="34" viewBox="0 0 35 34">
    <g fill="none" fill-rule="evenodd">
        <path fill="#1B63A4" d="M30.527 20a.881.881 0 0 1-.216-.026c-.455-.102-.719-.49-.587-.863.395-1.222.599-2.49.599-3.768 0-1.86-.42-3.668-1.258-5.375-.18-.358.024-.768.456-.915.43-.147.922.024 1.09.382a13.291 13.291 0 0 1 .73 10.049c-.108.312-.443.516-.814.516M15.772 31C7.07 31 0 24.046 0 15.5S7.07 0 15.772 0c4.14 0 8.048 1.564 11.019 4.403a.696.696 0 0 1 .01.985.712.712 0 0 1-.997.015c-2.7-2.586-6.265-4.01-10.032-4.01C7.856 1.393 1.41 7.72 1.41 15.5c0 7.778 6.446 14.107 14.362 14.107 1.793 0 3.546-.322 5.208-.955a.713.713 0 0 1 .916.397.693.693 0 0 1-.403.9A15.97 15.97 0 0 1 15.773 31"/>
        <path fill="#20C4EE" d="M27.5 8a.47.47 0 0 1-.35-.15.473.473 0 0 1-.15-.353c0-.136.05-.267.15-.357a.508.508 0 0 1 .7 0c.1.095.15.226.15.357 0 .13-.05.261-.15.352A.494.494 0 0 1 27.5 8"/>
        <path fill="#1B63A4" d="M15.5 31c-.279 0-.5-.312-.5-.696V.696c0-.384.221-.696.5-.696s.5.312.5.696v29.608c0 .384-.221.696-.5.696"/>
        <path fill="#1B63A4" d="M31.293 16H4.707C4.313 16 4 15.776 4 15.5s.313-.5.707-.5h26.586c.394 0 .707.224.707.5s-.313.5-.707.5"/>
        <path fill="#1B63A4" d="M16 31c-4.489 0-8-6.809-8-15.5C8 6.809 11.511 0 16 0s8 6.809 8 15.5a.689.689 0 0 1-.685.696.695.695 0 0 1-.684-.696c0-7.647-3.032-14.107-6.631-14.107S9.37 7.853 9.37 15.5c0 7.647 3.031 14.107 6.63 14.107 1.36 0 2.455-.938 3.13-1.724a.68.68 0 0 1 .968-.066.7.7 0 0 1 .058.983C18.924 30.24 17.486 31 16 31"/>
        <path fill="#20C4EE" d="M23.499 17.391a6.059 6.059 0 0 0-4.315 1.788 6.109 6.109 0 0 0 0 8.641 6.055 6.055 0 0 0 4.315 1.789 6.059 6.059 0 0 0 4.315-1.788 6.11 6.11 0 0 0 0-8.642 6.059 6.059 0 0 0-4.315-1.788zm0 13.609a7.447 7.447 0 0 1-5.304-2.198 7.5 7.5 0 0 1 0-10.604A7.443 7.443 0 0 1 23.499 16a7.47 7.47 0 0 1 5.314 2.197c2.916 2.925 2.916 7.681 0 10.605A7.47 7.47 0 0 1 23.499 31z"/>
        <path fill="#20C4EE" d="M34.317 34a.656.656 0 0 1-.476-.199l-5.644-5.636a.689.689 0 0 1 0-.964.679.679 0 0 1 .962-.002l5.644 5.636a.689.689 0 0 1 0 .964.692.692 0 0 1-.486.201"/>
    </g>
</svg>
