<svg xmlns="http://www.w3.org/2000/svg" width="31" height="37" viewBox="0 0 31 37">
    <g fill="none" fill-rule="evenodd">
        <path fill="#0C3769" d="M24.15 12.57c-.66 0-1.84-.417-4.17-2.199a.692.692 0 0 1-.13-.981.698.698 0 0 1 .98-.132c1.76 1.348 2.67 1.746 3.07 1.863a2.324 2.324 0 0 0-.35-1.023c-1.13-1.795-2.66-2.991-4.66-3.658a.702.702 0 0 1-.45-.885.71.71 0 0 1 .89-.443c2.32.773 4.09 2.159 5.41 4.238.43.696.63 1.502.54 2.27-.04.391-.27.701-.62.852-.13.055-.29.098-.51.098"/>
        <path fill="#0C3769" d="M9.65 11.578c-3.41 0-6.23-3.39-6.37-3.555a.7.7 0 0 1 .01-.903l3.56-4.088a.67.67 0 0 1 .5-.24c.17-.012.38.066.52.202 0 .001 1.52 1.314 6.91 1.408.55.01 1.1.042 1.61.096.39.04.67.385.63.769a.697.697 0 0 1-.77.623c-.48-.049-.98-.079-1.49-.088-4.24-.074-6.34-.866-7.26-1.384l-2.74 3.15c.95.978 3.47 3.214 5.96 2.45 1.62-.502 3.49-.699 5.71-.6 1.24.053 1.86-.167 1.93-.411-.01.028 0-.151-.16-.348-.19-.212-.7-.574-2.13-.61-3.55-.166-5.61-.553-6.11-1.152a.695.695 0 0 1 .09-.986c.29-.25.73-.211.98.085.38.25 2.96.554 5.09.654 1.53.039 2.61.43 3.19 1.163.56.704.43 1.438.41 1.519-.3 1.085-1.42 1.566-3.35 1.484-2.06-.089-3.77.086-5.24.54-.5.153-1 .222-1.48.222"/>
        <path fill="#20C4EE" d="M17.72 6.106c-.18 0-.36-.07-.5-.203a.744.744 0 0 1-.2-.497c0-.182.08-.363.2-.49.26-.266.74-.259 1 0a.713.713 0 0 1 0 .987.71.71 0 0 1-.5.203"/>
        <path fill="#0C3769" d="M2.24 5.596l1.47 1.045 2.66-3.057-1.46-1.163-2.67 3.175zm1.58 2.683a.679.679 0 0 1-.4-.129L.81 6.298a.685.685 0 0 1-.29-.482.668.668 0 0 1 .16-.54L4.27.998a.71.71 0 0 1 .98-.097l2.56 2.043c.15.119.24.294.26.484.02.19-.04.379-.17.523L4.35 8.039a.7.7 0 0 1-.53.24zM24.18 34.27a.718.718 0 0 1-.46-.165c0-.001-1.62-1.188-7-.846-.56.034-1.1.045-1.61.034a.7.7 0 0 1 .03-1.4c.47.011.97.002 1.49-.032 4.23-.27 6.39.353 7.35.794l2.48-3.361c-1.03-.899-3.72-2.925-6.14-1.96-1.58.631-3.43.977-5.64 1.058-1.24.045-1.84.317-1.89.566v-.004s.02.171.18.337c.2.197.75.513 2.17.437 3.56-.124 5.63.099 6.18.655a.697.697 0 1 1-.99.985c-.4-.218-2.99-.313-5.12-.242-1.54.087-2.64-.218-3.28-.902a1.938 1.938 0 0 1-.53-1.481c.21-1.105 1.29-1.679 3.22-1.75 2.09-.076 3.73-.381 5.18-.959 3.93-1.567 7.93 2.513 8.09 2.688.24.246.27.626.06.901l-3.21 4.362a.717.717 0 0 1-.56.285"/>
        <path fill="#0C3769" d="M15.12 33.293a.905.905 0 0 1-.09-.005l-2.82-.356a.696.696 0 0 1-.61-.782.697.697 0 0 1 .78-.607l2.83.356a.71.71 0 0 1 .61.782.708.708 0 0 1-.7.612"/>
        <path fill="#0C3769" d="M12.3 32.938a.705.705 0 0 1-.17-.02c-2.38-.584-4.25-1.823-5.73-3.789-.49-.658-.75-1.446-.72-2.218.01-.393.21-.721.55-.9.51-.267 1.57-.38 4.83 1.718.32.209.42.643.21.967a.703.703 0 0 1-.97.21c-1.87-1.201-2.8-1.525-3.21-1.609.06.345.2.688.43.993 1.27 1.696 2.89 2.765 4.94 3.268.38.092.61.471.52.847a.707.707 0 0 1-.68.533M25.17 33.397l1.55 1.041 2.41-3.381-1.55-.923-2.41 3.263zm1.72 2.702a.712.712 0 0 1-.39-.119l-2.72-1.829a.713.713 0 0 1-.29-.462.677.677 0 0 1 .12-.534l3.22-4.362c.21-.29.61-.371.92-.187l2.75 1.637a.68.68 0 0 1 .32.457c.04.191 0 .391-.11.55l-3.25 4.555a.69.69 0 0 1-.57.294z"/>
        <path fill="#20C4EE" d="M14.64 13.312c-1.17 1.351-3.95 4.941-3.44 8.002.07.399.19.781.37 1.135.56 1.14 1.74 1.848 3.07 1.848 1.35 0 2.5-.691 3.08-1.848 1.61-3.245-1.76-7.613-3.08-9.137zm0 12.385c-1.86 0-3.52-1.005-4.33-2.625-.24-.479-.4-.993-.49-1.53-.75-4.541 4.11-9.551 4.32-9.763a.722.722 0 0 1 1 0c.26.261 6.24 6.436 3.83 11.293-.81 1.619-2.46 2.625-4.33 2.625z"/>
        <path fill="#20C4EE" d="M14.64 25.697c-.39 0-.7-.313-.7-.7V12.27c0-.387.31-.7.7-.7.39 0 .7.313.7.7v12.727c0 .387-.31.7-.7.7"/>
        <path fill="#20C4EE" d="M14.64 19.334a.683.683 0 0 1-.43-.151l-2.94-2.327a.697.697 0 0 1 .86-1.097l2.51 1.982 2.51-1.982c.3-.24.74-.188.98.114.24.303.19.743-.11.983l-2.94 2.327c-.13.1-.29.151-.44.151M14.64 23.181a.721.721 0 0 1-.34-.086l-4.2-2.303a.701.701 0 0 1-.27-.95.697.697 0 0 1 .95-.278l3.86 2.119 3.86-2.119a.697.697 0 0 1 .95.278c.19.338.07.764-.27.95l-4.2 2.303a.721.721 0 0 1-.34.086"/>
    </g>
</svg>
