<svg xmlns="http://www.w3.org/2000/svg" width="37" height="37" viewBox="0 0 37 37">
    <path fill="#1B63A4" fill-rule="evenodd" d="M28.2 4.162a.707.707 0 0 1-.71-.7c0-.387.31-.7.7-.7h.01c.38 0 .7.313.7.7 0 .386-.32.7-.7.7zM14.89 25.806c1.14.576 2.42.901 3.79.901 1.85 0 3.57-.605 4.96-1.627l.06-.054a.782.782 0 0 1 .09-.06 8.39 8.39 0 0 0 3.29-6.663c0-4.634-3.77-8.404-8.4-8.404a8.409 8.409 0 0 0-6.36 2.906c-.01.02-.03.04-.05.059a8.408 8.408 0 0 0-2 5.439c0 3.271 1.88 6.112 4.62 7.5v.003zm10.22-.113l4.31 5.518c3.86-3.206 6.05-7.872 6.05-12.908 0-2.678-.63-5.279-1.82-7.609l-6.01 3.646c.54 1.212.84 2.553.84 3.963a9.796 9.796 0 0 1-3.37 7.39zM6.73 6.489a16.874 16.874 0 0 0-4.85 11.814c0 5.506 2.66 10.601 7.15 13.753l4.47-5.428a9.8 9.8 0 0 1-4.63-8.325 9.73 9.73 0 0 1 2.02-5.953L6.73 6.489zm3.49 26.328a16.72 16.72 0 0 0 8.46 2.286c3.48 0 6.8-1.049 9.63-3.041l-4.32-5.526a9.739 9.739 0 0 1-5.31 1.571c-1.39 0-2.71-.29-3.91-.813l-4.55 5.523zm8.46 3.686c-3.52 0-6.94-1.01-9.89-2.922v-.001C3.58 30.204.47 24.493.47 18.303c0-5.075 2.15-9.958 5.89-13.398v-.001A18.155 18.155 0 0 1 18.68.103c2.81 0 5.5.624 8.01 1.855.35.171.49.59.32.937a.702.702 0 0 1-.94.32 16.615 16.615 0 0 0-7.39-1.712c-4.02 0-7.87 1.424-10.91 4.024l4.08 5.749a9.745 9.745 0 0 1 6.83-2.777c3.49 0 6.57 1.84 8.3 4.603l5.99-3.63a16.83 16.83 0 0 0-3.36-3.927.696.696 0 0 1-.08-.987.703.703 0 0 1 .99-.076 18.191 18.191 0 0 1 6.36 13.821c0 5.706-2.61 10.974-7.15 14.452v.001a18.022 18.022 0 0 1-11.05 3.747z"/>
</svg>
