<svg xmlns="http://www.w3.org/2000/svg" width="36" height="35" viewBox="0 0 36 35">
    <g fill="none" fill-rule="evenodd">
        <path fill="#0C3769" d="M9.17 31.89c-.04 0-.07 0-.1-.01a.67.67 0 0 1-.47-.27L4.08 25.4c-.2-.27-.17-.66.07-.9.23-.24 5.86-5.84 11.25-3.66 2.08.85 4.46 1.3 7.47 1.43 2.59.11 4.03.86 4.28 2.21.02.15.1 1.07-.68 1.89-.85.9-2.35 1.29-4.47 1.16-3.18-.13-6.98 0-7.55.4-.27.27-.7.26-.98-.02a.697.697 0 0 1 .02-.99c.96-.95 5.78-.9 8.58-.79 1.65.1 2.85-.15 3.38-.72.34-.35.32-.72.32-.72-.11-.56-1.19-.94-2.96-1.02-3.13-.14-5.73-.64-7.94-1.53-3.76-1.52-7.95 1.76-9.29 2.94l3.78 5.19c1.19-.59 4.19-1.57 10.57-1.13.73.05 1.46.07 2.15.06h.01c.38 0 .7.31.7.69.01.39-.3.7-.69.71-.73.01-1.49-.01-2.27-.06-7.85-.55-10.21 1.19-10.23 1.2-.12.1-.28.15-.43.15"/>
        <path fill="#20C4EE" d="M24.11 30.47c-.18 0-.36-.07-.5-.2a.748.748 0 0 1-.2-.5c0-.18.08-.37.2-.49.26-.26.74-.26 1 0 .12.12.2.31.2.49 0 .19-.08.37-.2.5-.14.13-.32.2-.5.2"/>
        <path fill="#0C3769" d="M26.13 30.12c-.32 0-.61-.21-.68-.53-.09-.38.14-.76.52-.85 3-.71 5.38-2.24 7.26-4.69.44-.57.7-1.24.72-1.9-.4-.01-1.67.19-5.09 2.34-.33.2-.76.1-.96-.23a.688.688 0 0 1 .22-.96c5.08-3.19 6.23-2.57 6.61-2.37.38.21.61.58.62 1.03.02 1.03-.34 2.08-1.01 2.95-2.09 2.71-4.72 4.41-8.05 5.2-.06.01-.11.01-.16.01M1.65 27.54l3.23 5.66 3.29-2.18-3.72-5.11-2.8 1.63zm3 7.36c-.06 0-.11-.01-.17-.02a.668.668 0 0 1-.44-.33L.09 27.63a.699.699 0 0 1 .26-.95l3.94-2.29a.7.7 0 0 1 .92.19l4.52 6.2c.11.16.16.35.13.54-.04.19-.15.35-.31.46l-4.52 3c-.11.08-.25.12-.38.12zM24.14 19.76l1.02.12.15-1.28c.03-.33.3-.58.62-.62.62-.06 1.22-.23 1.78-.5.29-.15.65-.07.85.19l.81 1.01.81-.64-.8-1a.707.707 0 0 1 0-.89c.4-.48.7-1.02.9-1.59.11-.32.42-.51.74-.48l1.29.15.12-1.01-1.29-.14a.693.693 0 0 1-.61-.63 4.9 4.9 0 0 0-.51-1.75c-.15-.3-.07-.66.19-.87l1.01-.8-.63-.79-1.02.81c-.26.2-.63.2-.88-.01-.48-.4-1.02-.69-1.61-.89a.69.69 0 0 1-.47-.74l.14-1.28-1.02-.11-.15 1.28c-.04.32-.3.58-.63.61-.61.06-1.21.23-1.77.51-.29.15-.65.07-.86-.19l-.81-1.01-.8.64.8 1c.21.26.21.63 0 .88-.4.48-.7 1.02-.9 1.6-.11.31-.42.51-.74.47l-1.29-.14-.12 1 1.28.15c.33.03.59.3.62.63.06.6.23 1.19.51 1.75.15.3.07.66-.19.86l-1.01.8.63.8 1.02-.81c.26-.2.63-.2.88.01.48.39 1.02.69 1.61.88.31.11.51.42.47.75l-.14 1.27zm1.63 1.59h-.07l-2.42-.28a.73.73 0 0 1-.47-.25.758.758 0 0 1-.15-.52l.17-1.43a6.1 6.1 0 0 1-1.06-.59l-1.15.91a.71.71 0 0 1-.98-.12l-1.51-1.88a.743.743 0 0 1-.15-.52c.02-.18.12-.35.26-.47l1.14-.9c-.14-.37-.25-.76-.33-1.15l-1.45-.16a.791.791 0 0 1-.47-.26.75.75 0 0 1-.14-.52l.28-2.4c.04-.38.38-.66.77-.61l1.45.16c.16-.37.36-.72.59-1.05l-.9-1.13a.686.686 0 0 1-.15-.52.7.7 0 0 1 .26-.47l1.9-1.5c.3-.24.74-.19.98.11l.91 1.14c.38-.15.77-.27 1.17-.34l.17-1.44a.69.69 0 0 1 .77-.61l2.42.27a.691.691 0 0 1 .61.78l-.16 1.43c.37.16.72.36 1.06.58l1.15-.9c.3-.24.74-.19.98.11l1.51 1.89c.11.14.17.33.15.52-.03.18-.12.35-.27.47l-1.14.9c.15.37.26.75.34 1.15l1.44.16c.19.02.36.11.47.26.12.15.17.33.15.52l-.28 2.39c-.04.39-.39.66-.77.62l-1.45-.16c-.16.36-.36.71-.59 1.05l.9 1.13c.12.14.17.33.15.51a.66.66 0 0 1-.26.47l-1.9 1.51c-.31.23-.74.18-.98-.12l-.91-1.13c-.38.15-.77.26-1.17.34l-.17 1.43c-.04.36-.34.62-.7.62z"/>
        <path fill="#0C3769" d="M25.45 11.53c-.73 0-1.34.54-1.43 1.26-.04.37.07.74.3 1.03.24.3.58.49.96.53.8.09 1.49-.48 1.58-1.25.05-.37-.06-.73-.29-1.03-.24-.3-.58-.48-.96-.53-.06 0-.11-.01-.16-.01zm-.01 4.23c-.1 0-.21 0-.32-.02a2.77 2.77 0 0 1-1.9-1.05c-.46-.58-.67-1.32-.59-2.06a2.842 2.842 0 0 1 3.14-2.48c.75.09 1.42.46 1.89 1.05.47.59.68 1.32.59 2.07a2.816 2.816 0 0 1-2.81 2.49z"/>
        <path fill="#20C4EE" d="M9.84 10.8l.24.1.24-.61c.13-.31.45-.48.77-.43.39.07.79.06 1.18-.01.33-.07.65.1.78.41l.26.61.24-.1-.26-.61c-.13-.3-.03-.66.24-.85.33-.23.6-.51.82-.83.19-.28.54-.39.84-.26l.62.24.1-.23-.62-.25a.69.69 0 0 1-.43-.77c.06-.38.06-.77-.02-1.17-.07-.32.1-.65.41-.78l.61-.26-.1-.23-.62.26c-.3.13-.65.03-.84-.24-.23-.32-.52-.6-.85-.82a.712.712 0 0 1-.26-.84l.25-.61-.25-.1-.24.61c-.13.31-.45.49-.77.43-.39-.07-.79-.06-1.18.01-.33.07-.65-.1-.78-.41l-.26-.61-.24.1.26.61c.13.3.03.66-.24.85-.32.23-.6.51-.82.83a.68.68 0 0 1-.84.26l-.62-.24-.09.23.61.25c.31.12.49.44.43.77-.06.38-.06.78.02 1.17.07.32-.1.65-.41.78l-.61.26.1.23.62-.26c.3-.13.65-.03.84.24.24.33.52.6.85.82.27.19.38.54.26.84l-.24.61zm.63 1.71c-.09 0-.18-.01-.26-.05l-1.54-.61a.725.725 0 0 1-.39-.38.695.695 0 0 1 0-.53l.3-.77c-.13-.12-.27-.25-.39-.38l-.77.32a.694.694 0 0 1-.91-.36l-.66-1.52a.677.677 0 0 1-.01-.54.76.76 0 0 1 .38-.39l.76-.32c-.01-.18-.01-.36-.01-.54l-.77-.31a.708.708 0 0 1-.39-.37.72.72 0 0 1 0-.54l.61-1.53c.14-.36.55-.54.91-.39l.78.31c.12-.14.24-.27.38-.39l-.33-.76a.676.676 0 0 1-.01-.54c.07-.17.2-.31.37-.38l1.53-.65c.35-.15.76.01.92.37l.33.76c.18-.01.36-.01.54 0l.31-.77c.15-.36.55-.53.91-.39l1.55.62c.17.06.31.2.38.37.07.17.07.36.01.54l-.31.76c.14.12.27.25.39.39l.77-.33c.35-.15.76.01.92.36l.65 1.53c.08.17.08.36.01.53-.07.18-.2.31-.38.39l-.76.32c.01.18.02.36.01.54l.77.31c.18.07.32.2.39.37.07.17.07.37 0 .54l-.61 1.53c-.14.36-.55.54-.91.39l-.78-.31c-.11.14-.24.27-.37.39l.33.76c.07.17.07.36 0 .54a.69.69 0 0 1-.37.38l-1.53.65a.704.704 0 0 1-.92-.37l-.33-.76c-.18.01-.36.01-.54 0l-.31.77c-.11.28-.37.44-.65.44z"/>
        <path fill="#20C4EE" d="M11.63 5.91c-.31 0-.58.19-.7.47a.75.75 0 0 0 .01.57c.08.19.23.33.42.4.38.16.83-.04.98-.41a.75.75 0 0 0-.01-.57.75.75 0 0 0-.42-.4.671.671 0 0 0-.28-.06zm.01 2.9c-.28 0-.54-.05-.8-.16-.54-.21-.96-.62-1.18-1.14-.23-.53-.24-1.12-.03-1.65a2.15 2.15 0 0 1 2-1.35c.28 0 .55.05.8.16.54.21.96.62 1.19 1.15.22.53.23 1.11.02 1.64a2.14 2.14 0 0 1-2 1.35z"/>
    </g>
</svg>
