<svg xmlns="http://www.w3.org/2000/svg" width="22" height="33" viewBox="0 0 22 33">
    <g fill="none" fill-rule="evenodd">
        <path fill="#0C3769" d="M5.993 28.93c-.387 0-.7-.32-.7-.7V6.49c0-.38.313-.7.7-.7.387 0 .7.32.7.7v21.74c0 .38-.313.7-.7.7M5.993 4.94c-.387 0-.7-.31-.7-.7V.75c0-.39.313-.7.7-.7.387 0 .7.31.7.7v3.49c0 .39-.313.7-.7.7"/>
        <path fill="#0C3769" d="M10.506 13.72H5.993c-.387 0-.7-.31-.7-.7 0-.39.313-.7.7-.7h4.513c.387 0 .7.31.7.7 0 .39-.313.7-.7.7"/>
        <path fill="#20C4EE" d="M12.893 13.72a.683.683 0 0 1-.497-.21.717.717 0 0 1-.203-.49c0-.19.077-.37.203-.49.266-.27.742-.27.994 0 .125.12.203.3.203.49s-.078.37-.203.49a.685.685 0 0 1-.497.21"/>
        <path fill="#0C3769" d="M20.632 13.72h-5.351c-.387 0-.7-.31-.7-.7 0-.39.313-.7.7-.7h3.773l-3.621-4a.701.701 0 0 1 0-.94l3.621-4.01H5.993c-.387 0-.7-.31-.7-.7 0-.38.313-.7.7-.7h14.639c.276 0 .527.17.639.42.112.25.065.55-.121.75l-4.254 4.71 4.254 4.7c.186.2.233.5.121.75a.692.692 0 0 1-.639.42"/>
        <path fill="#20C4EE" d="M6.248 32.24c-3.435 0-6.23-2.1-6.23-4.68 0-1.19.594-2.33 1.674-3.2a.704.704 0 0 1 .984.11c.242.3.195.74-.106.98-.743.6-1.151 1.35-1.151 2.11 0 1.81 2.166 3.28 4.829 3.28s4.83-1.47 4.83-3.28c0-.76-.408-1.51-1.151-2.11a.695.695 0 0 1-.106-.98c.243-.3.683-.35.984-.11 1.079.87 1.673 2.01 1.673 3.2 0 2.58-2.795 4.68-6.23 4.68"/>
    </g>
</svg>
