<svg xmlns="http://www.w3.org/2000/svg" width="36" height="27" viewBox="0 0 36 27">
    <g fill="none" fill-rule="evenodd">
        <path fill="#1B63A4" d="M3.25 8.283c-.38 0-.7-.313-.7-.7V.867c0-.387.32-.7.7-.7.39 0 .7.313.7.7v6.716c0 .387-.31.7-.7.7"/>
        <path fill="#20C4EE" d="M3.25 10.843c-.18 0-.36-.07-.49-.203a.7.7 0 0 1-.21-.497c0-.182.08-.364.21-.49.25-.259.73-.266.99 0 .13.126.2.308.2.49a.69.69 0 0 1-.7.7"/>
        <path fill="#1B63A4" d="M19.36 24.056H3.25c-.38 0-.7-.314-.7-.7V13.303c0-.386.32-.7.7-.7.39 0 .7.314.7.7v9.353h15.41c.39 0 .7.313.7.7 0 .386-.31.7-.7.7"/>
        <path fill="#1B63A4" d="M34.16 24.056h-14.8c-.39 0-.7-.314-.7-.7 0-.387.31-.7.7-.7h14.8c.39 0 .7.313.7.7 0 .386-.31.7-.7.7M.87 4.546c-.15 0-.3-.05-.43-.152a.703.703 0 0 1-.11-.984L2.71.43a.697.697 0 0 1 .98-.111c.3.242.35.682.11.984l-2.38 2.98a.7.7 0 0 1-.55.263"/>
        <path fill="#1B63A4" d="M5.63 4.546a.68.68 0 0 1-.54-.263l-2.38-2.98a.694.694 0 0 1 .11-.984c.3-.241.74-.191.98.111l2.38 2.98c.24.302.19.742-.11.984a.7.7 0 0 1-.44.152M34.47 24.056c-.15 0-.3-.05-.43-.154l-2.98-2.384a.703.703 0 0 1-.11-.984.708.708 0 0 1 .99-.108l2.97 2.384c.3.242.35.682.11.984a.702.702 0 0 1-.55.262"/>
        <path fill="#1B63A4" d="M31.5 26.44c-.2 0-.41-.09-.55-.263a.703.703 0 0 1 .11-.984l2.98-2.383c.3-.242.74-.193.98.108.24.302.19.742-.11.984l-2.97 2.384a.696.696 0 0 1-.44.154"/>
        <path fill="#20C4EE" d="M7.08 15.832l-.11-.001a.7.7 0 0 1 .01-1.4h.03c.75 0 17.77-.131 22.03-10.158a.7.7 0 1 1 1.29.547C25.76 15.557 8.78 15.832 7.08 15.832"/>
        <path fill="#20C4EE" d="M26.13 6.579a.692.692 0 0 1-.65-.455.697.697 0 0 1 .41-.901l3.57-1.333c.36-.135.76.049.9.412a.705.705 0 0 1-.41.9l-3.57 1.333a.732.732 0 0 1-.25.044"/>
        <path fill="#20C4EE" d="M30.23 9.021a.704.704 0 0 1-.7-.603l-.52-3.775a.7.7 0 0 1 .6-.79c.38-.053.73.213.79.597l.52 3.775a.7.7 0 0 1-.69.796"/>
        <path fill="#1B63A4" d="M8.96 24.056c-.38 0-.7-.314-.7-.7v-5.562c0-.386.32-.7.7-.7.39 0 .7.314.7.7v5.562c0 .386-.31.7-.7.7M15.09 24.056c-.38 0-.7-.314-.7-.7v-6.262c0-.386.32-.7.7-.7.39 0 .7.314.7.7v6.262c0 .386-.31.7-.7.7M21.22 24.056c-.38 0-.7-.314-.7-.7v-7.662c0-.386.32-.7.7-.7.39 0 .7.314.7.7v7.662c0 .386-.31.7-.7.7M27.35 24.056c-.38 0-.7-.314-.7-.7V12.194c0-.386.32-.7.7-.7.39 0 .7.314.7.7v11.162c0 .386-.31.7-.7.7"/>
    </g>
</svg>
