<svg xmlns="http://www.w3.org/2000/svg" width="81" height="70" viewBox="0 0 81 70">
    <g fill="#FFF" fill-rule="evenodd">
        <path d="M14.856 33.76c.027.707.434 1.087 1.12 1.123.621.033 1.15-.51 1.144-1.129A1.126 1.126 0 0 0 16 32.637a1.115 1.115 0 0 0-1.144 1.123m.004-15.73a1.129 1.129 0 0 0 1.123 1.112 1.142 1.142 0 0 0 1.133-1.141 1.146 1.146 0 0 0-1.128-1.113 1.126 1.126 0 0 0-1.128 1.141m1.123-16.904a1.125 1.125 0 0 0-.013 2.247 1.142 1.142 0 0 0 1.142-1.134 1.14 1.14 0 0 0-1.13-1.113M3.393 25.893c-.007-.598-.533-1.113-1.137-1.113-.616 0-1.153.54-1.138 1.146a1.157 1.157 0 0 0 1.138 1.115c.618 0 1.145-.531 1.137-1.148m-1.2-14.626c.64.015 1.168-.463 1.195-1.081.026-.613-.489-1.154-1.112-1.169-.604-.014-1.126.486-1.153 1.096-.025.55.489 1.17 1.07 1.154m27.526.01c.617-.01 1.166-.573 1.151-1.18a1.145 1.145 0 0 0-1.146-1.1c-.609.008-1.123.525-1.119 1.126.004.6.547 1.162 1.114 1.154m-14.346 20.31c.161-.037.12-.168.12-.273 0-3.62-.002-7.239-.006-10.858 0-.106.04-.236-.12-.275-1.384-.45-1.803-1.644-1.598-2.738l-9.93-5.689c-.264.292-.64.398-.954.57-.009.05-.016.071-.016.093-.002 3.697-.001 7.393-.01 11.09-.001.207.1.257.255.324.8.347 1.377.96 1.348 1.815-.025.73.269 1.089.84 1.37.028.014.06.025.089.04 1.393.764 2.766 1.56 4.137 2.361 1.496.875 3.015 1.712 4.515 2.579.237.136.4.163.61-.043.194-.19.46-.28.72-.365M14.395 3.87L8.682 7.148c-1.3.746-2.6 1.497-3.906 2.235-.22.123-.364.238-.279.514a.568.568 0 0 1 .01.333c-.162.465.17.65.478.812 1.576.826 3.095 1.753 4.637 2.638.79.454 1.586.9 2.38 1.346.73.411 1.455.831 2.18 1.25.12.067.206.121.357.015 1.038-.73 1.944-.71 2.952.04.026.02.058.031.1.053l4.685-2.685 4.628-2.652c.098-.056.19-.123.294-.167.263-.112.375-.288.289-.573a.36.36 0 0 1-.012-.2c.152-.47-.127-.656-.494-.857-1.088-.596-2.157-1.226-3.23-1.849-.182-.105-.342-.195-.561-.08a.516.516 0 0 1-.463.012c-.294-.157-.51-.01-.747.123-1.565.874-3.13 1.751-4.705 2.61-.174.094-.158.227-.198.353-.17.545-.66.88-1.21.82a1.11 1.11 0 0 1-1.009-1.051c-.029-.561.328-1.037.874-1.168.157-.038.333-.07.467-.002.252.129.44.02.642-.094a2116.03 2116.03 0 0 1 4.758-2.653.445.445 0 0 0 .23-.303c.15-.541.593-.878 1.109-.873.535.006.95.35 1.1.923.023.091.044.165.134.217 1.32.756 2.64 1.514 3.96 2.274.666-.569 1.404-.791 2.248-.546a2.234 2.234 0 0 1 1.616 2.033 2.209 2.209 0 0 1-1.351 2.18c-.243.099-.306.217-.303.465.013 1.349.008 2.698.002 4.046 0 .2.036.35.194.501.377.36.434.894.185 1.332-.256.45-.772.692-1.272.525-.341-.115-.55.103-.77.228-1.455.818-2.892 1.666-4.338 2.5-.17.098-.29.203-.357.408-.194.6-.83.9-1.416.701a1.12 1.12 0 0 1-.715-1.41c.194-.59.811-.928 1.404-.722.229.08.377.03.56-.076 1.528-.883 3.06-1.76 4.59-2.638.019-.011.05-.017.057-.033.17-.435.625-.767.642-1.224.05-1.403.014-2.81.022-4.214 0-.2-.051-.295-.255-.355-.272-.079-.485-.277-.727-.466l-1.869 1.07c-2.603 1.493-5.205 2.987-7.812 4.474-.198.113-.286.208-.244.465.157.956-.422 1.942-1.359 2.328-.213.088-.28.185-.28.413.007 3.596.005 7.193-.002 10.79 0 .202.037.315.252.398 1.1.425 1.616 1.667 1.302 2.741-.32 1.098-1.421 1.743-2.57 1.54a2.219 2.219 0 0 1-1.822-2.397c.023-.272-.058-.392-.281-.519a2191.19 2191.19 0 0 1-9.333-5.35c-.218-.125-.351-.125-.558.028-.858.636-2.057.559-2.844-.155a2.265 2.265 0 0 1-.402-2.836c.265-.437.62-.759 1.109-.92.159-.054.217-.14.216-.316a3398.83 3398.83 0 0 1-.004-10.958c0-.16-.05-.237-.197-.293-.9-.348-1.378-1.026-1.443-1.964-.066-.938.342-1.67 1.173-2.115.843-.45 1.68-.374 2.452.197.153.112.253.113.41.023 2.733-1.576 5.469-3.145 8.205-4.716.436-.25.868-.51 1.312-.746.163-.087.21-.165.185-.357-.16-1.261.706-2.403 1.915-2.55 1.302-.158 2.416.675 2.572 1.972.112.932-.271 1.672-1.065 2.176a2.243 2.243 0 0 1-2.493-.082c-.09-.065-.177-.136-.278-.214M34.503 40.007L35 52h-2.578l-.174-6.494c-.12.03-.11.123-.137.19-.601 1.492-1.206 2.983-1.796 4.48-.088.22-.195.308-.437.3a28.018 28.018 0 0 0-1.767-.001c-.225.007-.33-.064-.415-.279-.579-1.465-1.171-2.924-1.762-4.384-.036-.089-.043-.196-.182-.285l-.174 6.464H23l.496-11.984h1.974c.69 0 .688 0 .936.668l2.517 6.773c.015.04.033.077.08.182.207-.552.395-1.048.58-1.544.717-1.93 1.436-3.86 2.145-5.794.076-.208.164-.298.4-.292.777.019 1.554.007 2.375.007M17.875 47.386l-1.346-4.883-.067.007-1.358 4.876h2.77zm4.125 4.6h-2.09c-.728 0-.727 0-.922-.699-.126-.456-.264-.909-.38-1.367-.048-.19-.118-.278-.34-.276-1.17.013-2.341.01-3.512.002-.206-.002-.297.056-.349.263-.157.622-.343 1.237-.513 1.856-.035.124-.053.236-.228.235-.873-.005-1.746-.003-2.666-.003.18-.592.346-1.148.517-1.703 1.02-3.315 2.043-6.63 3.054-9.949.079-.258.18-.351.464-.345 1 .022 2 .014 3 .004.203-.002.298.053.36.253 1.183 3.855 2.375 7.707 3.564 11.56.013.042.02.085.041.17zM43.637 47.008h-4.119v2.597H44V52h-7V40h6.995v2.392H39.52v2.183h4.117zM8.734 40.4l-.302 2.468c-.511-.058-1.01-.128-1.512-.17-.602-.05-1.205-.105-1.808-.11-1.078-.007-1.558.536-1.563 1.734a592.07 592.07 0 0 0 0 4.305c.005 1.248.504 1.794 1.62 1.801.404.003.804-.038 1.205-.072.208-.018.262-.115.26-.335-.008-1.056-.003-2.111-.003-3.167v-.376H9v5.9c-.51.203-1.058.317-1.608.409-1.209.201-2.421.335-3.633.048-1.787-.424-2.744-1.758-2.747-3.807-.003-1.613.037-3.227-.01-4.838-.073-2.582 1.297-3.929 3.4-4.142 1.444-.146 2.873.062 4.332.351M13.334 63.277c1.017 0 1.992.004 2.967-.005.163-.001.33-.047.49-.096.504-.154.782-.5.802-1.1a37.99 37.99 0 0 0 0-2.47c-.02-.608-.315-.962-.83-1.112a2.702 2.702 0 0 0-.755-.088c-.81-.001-1.62-.002-2.43 0-.075 0-.156-.027-.244.066v4.805zm3.977 1.206L20 69h-1.453c-.137 0-.17-.138-.228-.234-.76-1.271-1.52-2.54-2.27-3.82-.124-.211-.253-.296-.476-.289-.644.018-1.289.02-1.932 0-.251-.008-.309.093-.306.366.012 1.208.005 2.415.005 3.623v.342H12V57.065c.074-.097.168-.057.25-.057 1.25-.002 2.499-.002 3.748 0 .441 0 .877.048 1.303.185 1.005.321 1.576 1.098 1.634 2.308.037.8.033 1.602.018 2.403-.024 1.269-.499 2.184-1.642 2.579zM69.566 63.519c0-.911.007-1.824-.001-2.735-.01-1.145-.498-1.873-1.469-2.169a3.683 3.683 0 0 0-2.247.018c-.876.282-1.386.983-1.4 2.013a212.976 212.976 0 0 0 .001 5.717c.014 1.033.528 1.719 1.403 2.01.64.213 1.293.229 1.944.098 1.217-.245 1.767-1.013 1.77-2.43v-2.522zm1.432-.018v2.487c-.004 2.209-.93 3.49-2.846 3.885-1.036.213-2.07.173-3.074-.232-1.252-.504-2.034-1.677-2.056-3.19-.029-1.964-.03-3.93 0-5.895.023-1.596.87-2.805 2.26-3.27a5.321 5.321 0 0 1 3.473.01c1.412.48 2.214 1.714 2.238 3.4.014.935.003 1.87.003 2.805h.002zM24.436 62.973h.006c0 .885-.017 1.77.005 2.655.024.931.492 1.565 1.338 1.838.772.249 1.557.25 2.335.028.915-.26 1.429-.934 1.438-1.929.017-1.715.018-3.432 0-5.147-.01-1.009-.54-1.68-1.465-1.942a4.026 4.026 0 0 0-1.73-.095c-1.374.212-1.926.9-1.927 2.362v2.23zm-1.43.002c0-.743.019-1.487-.003-2.23-.066-2.184 1.152-3.457 3.201-3.693.906-.105 1.805-.064 2.676.252 1.305.474 2.091 1.59 2.106 3.046.019 1.76.018 3.52 0 5.278-.015 1.458-.793 2.587-2.106 3.04-1.302.45-2.622.453-3.908-.056-1.232-.488-1.882-1.478-1.947-2.85-.044-.928-.009-1.858-.009-2.787h-.01zM44.436 62.973h.006c0 .885-.017 1.77.005 2.655.024.931.492 1.565 1.338 1.838.772.249 1.557.25 2.335.028.915-.26 1.429-.934 1.438-1.929.017-1.715.018-3.432 0-5.147-.01-1.009-.54-1.68-1.465-1.942a4.026 4.026 0 0 0-1.73-.095c-1.374.212-1.926.9-1.927 2.362v2.23zm-1.43.002c0-.743.019-1.487-.003-2.23-.066-2.184 1.152-3.457 3.201-3.693.906-.105 1.805-.064 2.676.252 1.305.474 2.091 1.59 2.106 3.046.019 1.76.018 3.52 0 5.278-.015 1.458-.793 2.587-2.106 3.04-1.302.45-2.622.453-3.908-.056-1.232-.488-1.882-1.478-1.947-2.85-.044-.928-.009-1.858-.009-2.787h-.01zM3.385 63.325c1.029-.013 2.035.035 3.042-.032.09-.006.179-.034.267-.058.49-.136.806-.463.853-1.043.071-.867.074-1.738.004-2.603-.054-.666-.345-.969-.93-1.11-.338-.083-.68-.07-1.023-.072-.733-.002-1.466 0-2.213 0v4.918zm-.007 1.444V69H2V57.053c.058-.08.145-.046.22-.046 1.242-.002 2.482-.002 3.722 0 .456 0 .906.056 1.346.195.954.303 1.52 1 1.635 2.104.104 1 .098 2.01.01 3.01-.112 1.26-.737 1.996-1.844 2.274-.466.117-.938.137-1.413.136-.736-.002-1.472.003-2.208.007-.019 0-.038.014-.09.036zM60.84 68.258l.157 1.388c-.707.192-1.407.266-2.11.318-.86.066-1.718.06-2.563-.174-1.384-.382-2.219-1.4-2.27-2.939a103.625 103.625 0 0 1 0-6.685c.048-1.522.839-2.541 2.197-2.924 1.577-.445 3.147-.194 4.749.093l-.162 1.416a19.11 19.11 0 0 0-2.392-.255c-.487-.023-.972-.01-1.45.09-.956.203-1.4.732-1.434 1.782-.032.983-.017 1.968-.018 2.952 0 1.067-.013 2.135.012 3.201.028 1.21.507 1.765 1.627 1.93 1.071.157 2.135.013 3.198-.124.141-.018.282-.042.46-.069M37.722 58.383V69H36.29V58.403H33V57h8v1.383zM75.594 67.617H81V69h-7V57h1.594z"/>
    </g>
</svg>
