<svg xmlns="http://www.w3.org/2000/svg" width="36" height="30" viewBox="0 0 36 30">
    <g fill="none" fill-rule="evenodd">
        <path fill="#20C4EE" d="M23.324 12.056a.698.698 0 0 1-.31-.073l-3.752-1.853a.7.7 0 0 1 .62-1.255l3.331 1.645 10.799-9.519a.702.702 0 0 1 .988.062.701.701 0 0 1-.062.988l-11.151 9.83a.701.701 0 0 1-.463.175"/>
        <path fill="#0C3769" d="M17.234 9.051a.704.704 0 0 1-.497-1.197c.258-.266.735-.26.994 0a.723.723 0 0 1 .203.497.682.682 0 0 1-.211.49.68.68 0 0 1-.489.21"/>
        <path fill="#20C4EE" d="M.875 15.563A.7.7 0 0 1 .41 14.34l10.556-9.38a.699.699 0 0 1 .775-.104l3.463 1.71a.7.7 0 1 1-.619 1.255L11.544 6.32 1.34 15.386a.698.698 0 0 1-.465.177"/>
        <path fill="#0C3769" d="M11.431 30.021a.7.7 0 0 1-.7-.7v-19.08a.7.7 0 1 1 1.4 0v19.08a.7.7 0 0 1-.7.7"/>
        <path fill="#20C4EE" d="M30.894 2.366a.698.698 0 0 1-.698-.672.698.698 0 0 1 .671-.727l3.58-.14a.707.707 0 0 1 .727.672.7.7 0 0 1-.672.727l-3.58.14h-.028"/>
        <path fill="#20C4EE" d="M33.827 5.745a.701.701 0 0 1-.689-.827l.648-3.519a.7.7 0 0 1 1.377.254l-.649 3.518a.7.7 0 0 1-.687.574"/>
        <path fill="#0C3769" d="M3.835 30.021a.7.7 0 0 1-.7-.7V16.989a.7.7 0 0 1 1.4 0v12.332a.7.7 0 0 1-.7.7M19.026 30.021a.7.7 0 0 1-.7-.7V13.99a.7.7 0 0 1 1.4 0v15.331a.7.7 0 0 1-.7.7M26.621 30.021a.7.7 0 0 1-.7-.7V13.99a.7.7 0 0 1 1.4 0v15.331a.7.7 0 0 1-.7.7M34.216 30.021a.7.7 0 0 1-.7-.7V9.918a.7.7 0 0 1 1.4 0v19.403a.7.7 0 0 1-.7.7"/>
    </g>
</svg>
