<svg xmlns="http://www.w3.org/2000/svg" width="36" height="38" viewBox="0 0 36 38">
    <g fill="none" fill-rule="evenodd">
        <path fill="#0C3769" d="M6.693 6.16C3.787 6.16.845 5.24.845 3.49c0-.39.313-.7.7-.7.387 0 .7.31.7.7 0 .37 1.559 1.27 4.448 1.27 2.888 0 4.446-.9 4.446-1.27 0-.39.314-.7.7-.7.387 0 .7.31.7.7 0 1.75-2.941 2.67-5.846 2.67M6.693 9.84C3.787 9.84.845 8.92.845 7.17c0-.38.313-.7.7-.7.387 0 .7.32.7.7 0 .37 1.559 1.27 4.448 1.27 2.888 0 4.446-.9 4.446-1.27 0-.38.314-.7.7-.7.387 0 .7.32.7.7 0 1.75-2.941 2.67-5.846 2.67M6.693 13.52c-2.906 0-5.848-.91-5.848-2.67 0-.38.313-.7.7-.7.387 0 .7.32.7.7 0 .37 1.559 1.27 4.448 1.27 1.192 0 2.331-.16 3.203-.46a.698.698 0 1 1 .454 1.32c-1.015.35-2.314.54-3.657.54"/>
        <path fill="#0C3769" d="M6.693 17.2c-2.906 0-5.848-.91-5.848-2.66V3.49c0-.52.271-1.27 1.561-1.88a.705.705 0 0 1 .932.34.7.7 0 0 1-.338.93c-.616.29-.755.54-.755.61v11.05c0 .36 1.559 1.26 4.448 1.26 2.888 0 4.446-.9 4.446-1.26V3.49c0-.37-1.558-1.27-4.446-1.27-.603 0-1.189.04-1.742.13a.696.696 0 0 1-.795-.59.705.705 0 0 1 .591-.8c3.305-.49 7.792.38 7.792 2.53v11.05c0 1.75-2.941 2.66-5.846 2.66M30.05 26.32c-2.905 0-5.846-.92-5.846-2.67 0-.39.313-.7.7-.7.387 0 .7.31.7.7 0 .37 1.558 1.27 4.446 1.27 2.889 0 4.448-.9 4.448-1.27 0-.39.313-.7.7-.7.387 0 .7.31.7.7 0 1.75-2.942 2.67-5.848 2.67M30.05 30c-2.905 0-5.846-.92-5.846-2.67 0-.38.313-.7.7-.7.387 0 .7.32.7.7 0 .37 1.558 1.27 4.446 1.27 2.889 0 4.448-.9 4.448-1.27 0-.38.313-.7.7-.7.387 0 .7.32.7.7 0 1.75-2.942 2.67-5.848 2.67M30.05 33.68c-2.905 0-5.846-.91-5.846-2.67 0-.38.313-.7.7-.7.387 0 .7.32.7.7 0 .37 1.558 1.27 4.446 1.27 1.194 0 2.332-.16 3.204-.46a.699.699 0 1 1 .454 1.32c-1.015.35-2.314.54-3.658.54"/>
        <path fill="#0C3769" d="M30.05 37.36c-2.905 0-5.846-.91-5.846-2.66V23.65c0-.52.27-1.27 1.561-1.88a.704.704 0 0 1 .931.34.7.7 0 0 1-.338.93c-.616.29-.754.54-.754.61V34.7c0 .36 1.558 1.26 4.446 1.26 2.889 0 4.448-.9 4.448-1.26V23.65c0-.37-1.559-1.27-4.448-1.27-.602 0-1.188.04-1.741.13a.703.703 0 0 1-.203-1.39c3.306-.48 7.792.38 7.792 2.53V34.7c0 1.75-2.942 2.66-5.848 2.66M30.05 6.97c-1.126 0-2.042.92-2.042 2.04 0 1.13.916 2.05 2.042 2.05s2.042-.92 2.042-2.05c0-1.12-.916-2.04-2.042-2.04zm0 5.49a3.451 3.451 0 0 1-3.441-3.45c0-1.89 1.544-3.44 3.441-3.44a3.45 3.45 0 0 1 3.442 3.44c0 1.9-1.544 3.45-3.442 3.45zM6.693 27.13c-1.126 0-2.042.92-2.042 2.04 0 1.13.916 2.05 2.042 2.05 1.125 0 2.041-.92 2.041-2.05 0-1.12-.916-2.04-2.041-2.04zm0 5.49a3.451 3.451 0 0 1-3.442-3.45 3.45 3.45 0 0 1 3.442-3.44 3.45 3.45 0 0 1 3.442 3.44c0 1.9-1.545 3.45-3.442 3.45z"/>
        <path fill="#0C3769" d="M27.309 9.71h-15.47c-.386 0-.7-.31-.7-.7 0-.38.314-.7.7-.7h15.47c.386 0 .699.32.699.7 0 .39-.313.7-.699.7M30.05 22.38c-.387 0-.7-.31-.7-.7v-9.92c0-.39.313-.7.7-.7.387 0 .7.31.7.7v9.92c0 .39-.313.7-.7.7M6.693 27.13c-.387 0-.7-.31-.7-.7V16.5c0-.38.313-.7.7-.7.387 0 .7.32.7.7v9.93c0 .39-.313.7-.7.7M24.904 29.87h-5.689c-.387 0-.7-.31-.7-.7 0-.38.313-.7.7-.7h5.689c.387 0 .7.32.7.7 0 .39-.313.7-.7.7"/>
        <path fill="#20C4EE" d="M16.369 29.87a.7.7 0 0 1-.7-.7c0-.18.077-.37.21-.49.252-.26.728-.26.987 0 .126.12.203.31.203.49 0 .19-.077.37-.203.5a.715.715 0 0 1-.497.2"/>
        <path fill="#0C3769" d="M13.526 29.87H9.435a.698.698 0 0 1-.701-.7c0-.38.314-.7.701-.7h4.091c.387 0 .7.32.7.7 0 .39-.313.7-.7.7"/>
    </g>
</svg>
