<svg xmlns="http://www.w3.org/2000/svg" width="87" height="19" viewBox="0 0 87 19">
    <g fill="#FFF" fill-rule="evenodd">
        <path d="M34.267 8.517H15.732V1H15v16h.732V9.26h18.535V17H35V1h-.733M0 0v8.308h3.078v-2.82h2.267v7.77H3.078v-2.951H0V19h9V0M82.593 16.146h-15.32a.405.405 0 0 1-.412-.399V9.425h15.732c1.929 0 3.499 1.508 3.499 3.36 0 1.853-1.57 3.36-3.5 3.36zM66.86 2.376c0-.219.184-.397.412-.397h13.284c1.93 0 3.5 1.508 3.5 3.36 0 1.853-1.57 3.362-3.5 3.362H66.86V2.376zm16.11 6.34v-.014c1.112-.738 1.841-1.97 1.841-3.363 0-2.253-1.908-4.085-4.255-4.085H67.273c-.644 0-1.168.503-1.168 1.122v13.371c0 .62.524 1.124 1.168 1.124h15.32c2.345 0 4.254-1.832 4.254-4.085 0-2.131-1.708-3.886-3.876-4.07zM60.013 15.749c0 .22-.187.398-.415.398H41.343a.407.407 0 0 1-.414-.398V1.254h-.755v14.495c0 .619.525 1.122 1.169 1.122h18.255c.645 0 1.169-.503 1.169-1.122V1.254h-.754"/>
    </g>
</svg>
