<svg xmlns="http://www.w3.org/2000/svg" xmlns:xlink="http://www.w3.org/1999/xlink" width="100" height="57" viewBox="0 0 100 57">
    <defs>
        <path id="a" d="M.177.123h8.954v17.35H.177z"/>
    </defs>
    <g fill="none" fill-rule="evenodd">
        <path fill="#FFF" d="M50.49 9H62c0 1.29.002 2.519-.003 3.748 0 .202-.19.213-.344.25L50.463 13 39 12.989V9.028l.286-.023L50.49 9M39 0l21.969.021h1.03c0 1.324.003 2.581-.007 3.839 0 .047-.11.093-.17.14H50.586L39 3.974V0zM39.013 20.978L39 17.07l.02-.058L50.058 17H55v3.923c-.08.023-.175.077-.271.077-5.239-.005-10.477-.014-15.716-.022"/>
        <path fill="#FDCC20" d="M49.96 16.988L39 17c3.568-1.276 7.135-2.55 10.702-3.829.12-.043.232-.112.347-.17L61 13c-2.22.955-4.543 1.636-6.806 2.476-1.405.522-2.822 1.01-4.234 1.512M39 8c2.446-.88 4.893-1.76 7.338-2.643C47.57 4.91 48.8 4.453 50.03 4H61c-3.318 1.187-6.637 2.372-9.954 3.561-.37.133-.73.289-1.096.434L39 8M59.535 17A2.518 2.518 0 0 1 62 19.53c-.014 1.349-1.187 2.495-2.528 2.47-1.346-.024-2.497-1.207-2.472-2.538.026-1.365 1.179-2.484 2.535-2.46"/>
        <g>
            <path fill="#FFF" d="M75.833 50.496c-.882 0-1.725-.009-2.569.004-.304.004-.418-.215-.566-.407-2.555-3.301-5.109-6.603-7.666-9.901-.144-.186-.243-.424-.573-.54v10.794H60.95c-.12-.512-.17-16.076-.047-17.441.87 0 1.752-.015 2.634.008.3.008.409.326.568.531 2.618 3.365 5.23 6.735 7.844 10.104.065.084.134.165.284.349V33.054h3.6v17.442zM52.863 43.536c-.152-1.472-1.124-2.5-2.458-2.617-1.623-.14-2.773.602-3.17 2.104a4.615 4.615 0 0 0 .047 2.59c.419 1.336 1.43 2.029 2.863 1.98 1.353-.046 2.252-.782 2.615-2.116a3.63 3.63 0 0 0 .107-1.2c0-.247.022-.497-.004-.741zm0-5.154h3.688c.18.215.096.473.096.71.006 3.58.004 7.159.004 10.738 0 4.06-1.663 5.979-5.707 6.43a11.17 11.17 0 0 1-5.766-.856c-.378-.164-.518-.342-.412-.758.187-.734.323-1.48.49-2.271 1.535.71 3.053 1.158 4.693 1.12 1.927-.044 2.928-1.022 2.94-2.926.003-.623 0-1.246 0-1.873-.092.009-.149-.004-.168.018-1.466 1.602-3.264 2.116-5.345 1.546-2.131-.583-3.33-2.093-3.812-4.161-.42-1.797-.288-3.567.569-5.254 1.756-3.458 6.611-3.655 8.514-1.18.036.047.097.075.216.163v-1.446zM17.193 45.618c.172 1.644 1.108 2.645 2.563 2.759 1.58.123 2.606-.58 3.019-2.112a5.891 5.891 0 0 0-.028-3.205c-.4-1.388-1.337-2.088-2.723-2.07-1.324.017-2.33.82-2.682 2.159-.135.513-.215 1.036-.154 1.572 0 .299-.026.6.005.897zm9.474 5.482h-3.672v-1.75c-.865 1.091-1.823 1.703-3.018 1.897-3.279.533-5.944-1.45-6.5-4.84-.285-1.74-.169-3.442.545-5.072 1.377-3.146 5.149-4.311 7.814-2.429.4.283.721.638 1.098 1.11v-1.588h3.733V51.1zM36.723 38.014c2.693-.156 4.397 1.01 4.811 3.627.189 1.187.118 2.38.126 3.572.01 1.701 0 3.403-.004 5.104 0 .043-.017.085-.037.182h-3.783v-1.72c0-1.813.005-3.625-.002-5.437-.007-1.69-.575-2.423-1.897-2.472-1.542-.058-2.747.97-2.785 2.494-.053 2.099-.021 4.198-.026 6.298v.838h-3.797c-.126-4.001.118-8.037-.162-12.117h3.51l.281 1.745c.982-1.332 2.206-2.024 3.765-2.114zM85.897 43.116c.081-1.306-.8-2.319-2.054-2.386-1.44-.077-2.504.895-2.561 2.386h4.615zm-4.73 1.987c-.073 2.308 1.459 3.634 3.73 3.327a6.702 6.702 0 0 0 1.614-.407c.5-.2.958-.478 1.451-.828.43.832.679 1.7 1.018 2.57-1.374 1.102-2.947 1.52-4.615 1.564-1.797.048-3.516-.294-4.89-1.61-2.023-1.936-2.285-4.4-1.705-7 .534-2.4 2.011-3.952 4.359-4.527 3.738-.917 6.866 1.538 7.029 5.507.018.435.002.87.002 1.404h-7.993zM0 33.041a45.466 45.466 0 0 1 3.882 0v14.32h7.785V50.5H0V33.041z"/>
            <g transform="translate(90.833 33.833)">
                <mask id="b" fill="#fff">
                    <use xlink:href="#a"/>
                </mask>
                <path fill="#FFF" d="M9.128 14.04c0 .93-.003 1.78.003 2.63.001.207-.061.333-.249.429-2.041 1.034-5.182-.18-6.048-2.344-.356-.89-.419-1.829-.416-2.78.004-1.541.001-3.083.001-4.69H.177V4.369h2.242c0-.882-.003-1.705.002-2.529.001-.218-.063-.464.237-.565C3.752.91 4.843.53 6.028.124v4.208h3.046V7.25H6.062v1.629c0 1.061-.009 2.123.002 3.185.015 1.599.865 2.338 2.377 2.084.192-.033.385-.06.687-.108" mask="url(#b)"/>
            </g>
        </g>
    </g>
</svg>
