<svg xmlns="http://www.w3.org/2000/svg" width="105" height="40" viewBox="0 0 105 40">
    <g fill="none" fill-rule="evenodd">
        <path fill="#19BF70" d="M54.857.13l-4.289 10.36 2.814.134-1.876 4.305L44 14.793l5.764-13.182s.938-2.154 5.093-1.48"/>
        <path fill="#FFF" d="M55.283 4.171L53.371 8.41l3.005.132L52.143 19l3.38-.032s.614.397 3.277-5.264L63 4.071"/>
        <g fill="#FFF">
            <path d="M57.273 38.039v1.795h-7.688v-9.668h7.503v1.795h-5.22v2.1h4.61v1.74h-4.61v2.238h5.405zm-16.254-7.873h2.297v7.845h4.979v1.823h-7.276v-9.668zm-4.653 9.669h2.298v-9.669h-2.298v9.669zm-5.886-1.686c.605 0 1.061-.096 1.369-.29.307-.193.46-.492.46-.897 0-.802-.61-1.202-1.829-1.202H27.8v2.39h2.68zm-2.68-6.298v2.279h2.283c.567 0 .997-.097 1.29-.29.293-.194.44-.48.44-.857s-.147-.66-.44-.85c-.293-.187-.723-.282-1.29-.282h-2.284zm5.006 2.956c.568.175 1.012.467 1.333.877.322.41.482.914.482 1.512 0 .848-.337 1.499-1.014 1.955-.676.455-1.661.683-2.957.683h-5.134v-9.668h4.85c1.21 0 2.14.226 2.787.676.648.452.972 1.064.972 1.838 0 .47-.116.888-.347 1.256a2.412 2.412 0 0 1-.972.87zm-14.453 3.287a3.22 3.22 0 0 0 1.589-.393 2.865 2.865 0 0 0 1.113-1.099c.27-.47.404-1.003.404-1.602 0-.598-.135-1.133-.404-1.602-.27-.47-.64-.836-1.113-1.098a3.22 3.22 0 0 0-1.589-.394c-.586 0-1.115.132-1.588.394a2.861 2.861 0 0 0-1.114 1.098A3.162 3.162 0 0 0 15.247 35c0 .599.135 1.133.404 1.602.27.47.64.836 1.114 1.099a3.221 3.221 0 0 0 1.588.393zm0 1.906c-1.03 0-1.96-.216-2.787-.65a4.89 4.89 0 0 1-1.943-1.788c-.468-.76-.702-1.613-.702-2.562 0-.948.234-1.802.702-2.562a4.894 4.894 0 0 1 1.943-1.789c.828-.433 1.756-.649 2.787-.649 1.03 0 1.958.216 2.78.65a4.96 4.96 0 0 1 1.943 1.788c.473.76.71 1.614.71 2.562 0 .949-.237 1.803-.71 2.562a4.957 4.957 0 0 1-1.943 1.789c-.822.433-1.75.649-2.78.649zm-9.318-.166l-.014-5.8-2.922 4.778H5.063l-2.907-4.654v5.676H0v-9.668h1.9l3.716 6.008 3.66-6.008h1.886l.028 9.668H9.035zM105 30.084v9.832h-.858l-6.333-7.978v7.978h-1.04v-9.832h.858l6.346 7.978v-7.978H105zm-12.481 9.832h1.041v-9.832H92.52v9.832zm-4.292-3.47l-2.364-5.28-2.364 5.28h4.728zm.38.843H83.12l-1.182 2.627h-1.083l4.502-9.832h1.028l4.503 9.832h-1.098l-1.182-2.627zm-9.386-7.205v9.832h-1.027v-4.537h-6.163v4.537H70.99v-9.832h1.041v4.382h6.163v-4.382h1.027zM65.151 40c-.976 0-1.856-.215-2.64-.646a4.729 4.729 0 0 1-1.842-1.79C60.223 36.8 60 35.945 60 35s.223-1.8.669-2.563a4.723 4.723 0 0 1 1.85-1.791c.788-.431 1.67-.646 2.645-.646.732 0 1.407.122 2.027.365.619.244 1.144.599 1.576 1.067l-.662.66c-.77-.777-1.74-1.165-2.913-1.165-.778 0-1.487.178-2.124.533a3.9 3.9 0 0 0-1.499 1.461c-.361.618-.541 1.311-.541 2.079 0 .768.18 1.46.541 2.079.361.618.86 1.105 1.499 1.46a4.283 4.283 0 0 0 2.124.534c1.182 0 2.154-.393 2.913-1.18l.662.66c-.432.469-.96.827-1.584 1.075A5.448 5.448 0 0 1 65.15 40z"/>
        </g>
    </g>
</svg>
