<svg xmlns="http://www.w3.org/2000/svg" width="32" height="32" viewBox="0 0 32 32">
    <g fill="none" fill-rule="evenodd">
        <path fill="#0C3769" d="M26.122 26.862a.622.622 0 0 1-.436-.186.62.62 0 0 1 0-.88c5.583-5.61 5.583-14.73 0-20.338a14.179 14.179 0 0 0-10.124-4.214A14.159 14.159 0 0 0 5.446 5.458c-.435.435-.853.906-1.226 1.404a.632.632 0 0 1-.871.116.625.625 0 0 1-.116-.88c.409-.534.853-1.04 1.333-1.52A15.41 15.41 0 0 1 15.562 0c4.16 0 8.062 1.627 11.004 4.578 6.063 6.089 6.063 16.009 0 22.098a.627.627 0 0 1-.444.186M2.14 9.662a.62.62 0 0 1-.436-1.058.634.634 0 0 1 .871 0 .592.592 0 0 1 .187.436.598.598 0 0 1-.187.444.59.59 0 0 1-.435.178M15.58 31.253a15.556 15.556 0 0 1-11.014-4.577C.7 22.8-.838 17.289.442 11.956a.621.621 0 0 1 1.209.284c-1.173 4.916.24 9.991 3.795 13.556A14.35 14.35 0 0 0 16.15 30c.329-.036.63.249.64.596a.619.619 0 0 1-.596.648c-.204.01-.409.01-.613.01"/>
        <path fill="#0C3769" d="M23.998 25.031l-1.005 3.947 4.16-.578-3.155-3.369zm-1.84 5.316a.63.63 0 0 1-.463-.214.653.653 0 0 1-.142-.569l1.52-5.946a.596.596 0 0 1 .445-.445.632.632 0 0 1 .613.178l4.755 5.076a.63.63 0 0 1 .125.63.595.595 0 0 1-.498.41l-6.267.87c-.026 0-.062.01-.088.01z"/>
        <path fill="#20C4EE" d="M15.01 17.44a.64.64 0 0 1-.444-.178l-4.168-4.195a.612.612 0 0 1 0-.88.62.62 0 0 1 .88 0l3.733 3.75L21.722 9.2a.62.62 0 0 1 .88-.009c.24.249.24.64 0 .88l-7.147 7.191a.625.625 0 0 1-.444.178"/>
    </g>
</svg>
