<svg xmlns="http://www.w3.org/2000/svg" width="97" height="97" viewBox="0 0 97 97">
    <g fill="#FFF" fill-rule="evenodd">
        <path d="M48.383 4.412a43.7 43.7 0 0 0-17.115 3.454 43.82 43.82 0 0 0-13.977 9.425A43.827 43.827 0 0 0 4.41 48.383a43.83 43.83 0 0 0 12.88 31.092A43.819 43.819 0 0 0 31.268 88.9a43.693 43.693 0 0 0 17.115 3.455A43.694 43.694 0 0 0 65.498 88.9a43.819 43.819 0 0 0 13.977-9.425A43.83 43.83 0 0 0 88.9 65.498a43.694 43.694 0 0 0 3.455-17.115A43.693 43.693 0 0 0 88.9 31.268a43.825 43.825 0 0 0-9.425-13.977 43.82 43.82 0 0 0-13.977-9.425 43.7 43.7 0 0 0-17.115-3.454m0 92.354c-6.53 0-12.867-1.28-18.833-3.803A48.216 48.216 0 0 1 14.17 82.595 48.218 48.218 0 0 1 3.803 67.216C1.279 61.25 0 54.914 0 48.383c0-6.53 1.28-12.867 3.803-18.834A48.22 48.22 0 0 1 14.17 14.171 48.218 48.218 0 0 1 29.55 3.803C35.516 1.279 41.852 0 48.383 0c6.53 0 12.867 1.28 18.833 3.803a48.218 48.218 0 0 1 15.38 10.368 48.227 48.227 0 0 1 10.367 15.378c2.524 5.967 3.803 12.303 3.803 18.834 0 6.53-1.28 12.867-3.803 18.833a48.224 48.224 0 0 1-10.368 15.38 48.216 48.216 0 0 1-15.379 10.367c-5.966 2.524-12.303 3.803-18.833 3.803"/>
        <path d="M72.92 34.808l-.259.012h-3.762v14.55h3.99v-7.982l.03.039zM78.647 34.82v7.69l-4.539-5.83v6.273l4.997 6.417h3.533V34.82zM62.068 36.174l-1.947 4.962.978 2.496H59.14l-1.233 3.14h4.355l1.06 2.598h4.323zM55.612 49.369l2.252-5.737h-.028l1.642-4.136.004.013 1.882-4.793h-3.799L51.371 49.37h4.24zM39.957 49.37h4.03V34.82h-4.03zM45.175 44.173h5.694v-3.347h-5.694zM45.175 38.353h6.421V34.82h-6.42zM17.48 45.586c.634-6.828 3.598-13.165 8.508-18.075 4.898-4.898 11.216-7.86 18.026-8.505V10.68C25.382 12.06 10.51 26.947 9.154 45.586h8.325zM59.335 28.88h19.896c-6.128-10.164-16.905-17.208-29.388-18.188v14.744a22.93 22.93 0 0 1 9.492 3.444M59.17 71.87a26.372 26.372 0 0 1-9.327 2.836v11.337c10.763-.845 20.257-6.2 26.598-14.174H59.17zM32.201 71.87H17.25c6.373 8.015 15.933 13.384 26.765 14.186V75.934A27.58 27.58 0 0 1 32.2 71.87M66.076 65.961v-1.496h-7.793v1.496M41.615 60.1V51.41h-1.642v14.55h1.642v-3.907zM16.537 52.929h3.695V51.41h-3.695zM15.348 65.961v-14.55H8.8v1.518h4.885v13.032zM44.715 58.919l2.79-2.83 4.586-4.678h-2.12l-7.167 7.452v1.986l1.908-1.935zM46.596 58.704l-1.136 1.153 4.843 6.104h2.058zM58.283 52.908h7.689V51.41h-7.689zM58.283 65.961h7.793M58.283 59.372h6.754v-1.497h-6.754zM55.455 65.96h1.64V51.412h-1.64zM71.94 51.503l-.073-.092H70.33v14.55h1.6V54.03l.01.012zM81.034 51.411v11.66l-7.906-10.056v2.537l8.197 10.409h1.31V51.41zM28.421 63.664a5.099 5.099 0 0 1-3.06-1.473 5.097 5.097 0 0 1-1.468-3.015h-2.535a7.663 7.663 0 0 0 7.063 7.022v-2.534zM33.248 59.176a4.269 4.269 0 0 1-1.214 2.42 4.265 4.265 0 0 1-2.431 1.217v3.383a7.663 7.663 0 0 0 7.028-7.02h-3.383zM29.603 55.155a3.432 3.432 0 0 1 1.836.959 3.43 3.43 0 0 1 .966 1.88h4.23a7.663 7.663 0 0 0-7.032-7.074v4.235zM23.042 57.994a5.934 5.934 0 0 1 1.725-3.664 5.935 5.935 0 0 1 3.654-1.724v-1.689a7.663 7.663 0 0 0-7.067 7.077h1.688z"/>
    </g>
</svg>
