<svg xmlns="http://www.w3.org/2000/svg" xmlns:xlink="http://www.w3.org/1999/xlink" width="148" height="71" viewBox="0 0 148 71">
    <defs>
        <path id="a" d="M.102.078h27.074v36.64H.102z"/>
    </defs>
    <g fill="none" fill-rule="evenodd">
        <path fill="#6B7C93" d="M89.385 52.984l-4.34-18.43h-8.218l-4.34 18.43L57.98.938 57.902.61h-8.241L44.525 19.04 40.187.61H31.965l-4.337 18.43L22.491.61h-7.295l7.488 26.877.079.328h9.202l4.111-15.137 4.111 15.137h9.203l.077-.328 4.307-15.458 13.772 49.405.075.326h9.206l4.11-15.137 4.109 15.137h9.204l.077-.326 7.49-26.88H94.52z"/>
        <path fill="#6B7C93" d="M80.839 28.321c4.377 0 7.853-1.497 10.432-4.133l-4.618-4.736c-1.137 1.26-2.936 1.976-5.215 1.976-3.716 0-5.874-1.858-6.654-4.796H92.59C92.59 6.26 88.214.147 79.88.147c-8.094 0-13.428 5.694-13.428 13.908 0 8.634 5.814 14.266 14.387 14.266m-.778-21.46c2.818 0 4.196 1.8 4.734 4.496h-10.01c.598-2.696 2.458-4.496 5.276-4.496M116.452 34.066c-8.093 0-13.428 5.694-13.428 13.91 0 8.633 5.814 14.267 14.388 14.267 4.375 0 7.854-1.497 10.432-4.136l-4.617-4.736c-1.14 1.26-2.937 1.98-5.216 1.98-3.717 0-5.876-1.86-6.654-4.798h17.804c0-10.372-4.375-16.487-12.71-16.487zm-5.095 11.212c.6-2.698 2.458-4.496 5.275-4.496s4.197 1.798 4.735 4.496h-10.01zM147.053 34.084c-2.303 0-4.423 1.092-6.182 2.91v-2.427h-7.88v27.277h7.88v-17.82c1.151-1.938 3.152-3.272 5.578-3.272.267 0 .534.009.8.03v-6.693c-.066-.002-.128-.005-.196-.005M45.075 34.084c-8.555 0-14.36 5.684-14.36 14.06 0 8.374 5.805 14.057 14.36 14.057 8.553 0 14.358-5.683 14.358-14.058s-5.805-14.059-14.358-14.059m0 21.237c-3.708 0-6.282-2.93-6.282-7.178 0-4.25 2.574-7.18 6.282-7.18 3.71 0 6.282 2.93 6.282 7.18 0 4.248-2.572 7.178-6.282 7.178"/>
        <g transform="translate(.275 33.932)">
            <mask id="b" fill="#fff">
                <use xlink:href="#a"/>
            </mask>
            <path fill="#6B7C93" d="M14.86.078c-2.68 0-5.06.833-7.022 2.38V.673H.102v36.045h7.736v-9.863c1.667.774 3.57 1.19 5.654 1.19 8.152 0 13.684-5.653 13.684-13.984C27.176 5.733 22.24.078 14.86.078m-2.2 21.125c-2.085 0-3.752-.596-4.822-1.667V8.823c1.07-1.184 2.737-1.9 4.822-1.9 3.807 0 6.486 2.919 6.486 7.138 0 4.223-2.679 7.142-6.486 7.142" mask="url(#b)"/>
        </g>
    </g>
</svg>
