<?xml version="1.0" encoding="UTF-8" standalone="no"?>
<!DOCTYPE svg PUBLIC "-//W3C//DTD SVG 1.1//EN" "http://www.w3.org/Graphics/SVG/1.1/DTD/svg11.dtd">
<svg viewBox="0 0 1052 546" height="546.0pt" width="1052.0pt" xmlns="http://www.w3.org/2000/svg" version="1.1">
<path d="M 0.00 0.00 L 1052.00 0.00 L 1052.00 546.00 L 0.00 546.00 L 0.00 0.00 Z" fill="#ffffff" />
<path d="M 920.84 18.07 C 920.70 22.78 917.96 25.64 915.50 29.34 C 911.23 35.42 908.08 41.92 904.67 48.49 C 897.91 61.42 891.74 74.71 886.53 88.34 C 878.05 109.17 870.28 130.25 864.18 151.91 C 856.78 175.52 851.46 199.94 846.60 224.19 C 845.22 230.71 843.45 237.15 842.12 243.69 C 839.24 257.67 835.29 271.46 830.81 285.02 C 829.16 290.63 827.66 296.13 824.47 301.12 C 824.89 294.69 826.03 288.38 827.38 282.09 C 829.50 272.29 830.03 262.38 830.94 252.23 C 831.76 244.70 831.07 237.16 832.17 229.64 C 833.44 220.32 830.48 211.46 831.71 202.11 C 832.59 195.83 832.35 189.53 832.77 183.22 C 835.00 161.54 838.69 139.09 846.36 118.62 C 852.71 100.83 861.01 83.46 871.78 67.91 C 878.86 57.12 887.41 47.63 896.25 38.27 C 903.72 30.90 911.69 23.32 920.84 18.07 Z" fill="#c70820" />
<path d="M 527.01 23.45 C 533.38 23.53 539.63 22.40 546.00 22.47 C 559.33 22.48 572.67 22.55 586.00 22.42 C 590.30 22.46 595.23 22.54 598.76 25.34 C 602.08 28.02 603.14 32.94 603.37 36.99 C 603.56 42.67 603.50 48.38 603.42 54.06 C 603.26 58.98 602.03 64.63 597.61 67.50 C 593.51 70.05 587.71 70.29 583.01 70.39 C 569.01 70.31 555.00 70.36 541.00 70.32 C 523.51 69.92 505.75 73.81 489.31 79.58 C 477.25 84.29 465.71 89.72 455.10 97.20 C 443.55 104.70 433.28 113.85 423.97 123.97 C 408.50 141.90 396.36 163.60 391.94 187.03 C 392.45 185.87 392.95 184.70 393.46 183.54 C 393.36 185.56 393.25 187.57 393.14 189.59 C 403.08 189.87 413.05 189.67 423.00 189.72 C 455.34 189.69 487.77 189.79 520.09 189.66 C 523.39 189.64 525.87 190.28 527.83 193.10 C 533.08 199.53 531.30 207.30 531.62 215.00 C 531.44 220.57 532.58 228.15 528.59 232.63 C 525.90 235.98 522.11 236.67 518.03 236.68 C 482.72 236.57 447.32 236.66 412.00 236.62 C 405.34 236.59 398.74 236.42 392.10 237.16 C 392.08 243.05 392.29 248.85 393.86 254.57 C 395.92 262.15 398.24 269.73 401.25 277.00 C 406.89 290.09 414.80 302.06 424.54 312.47 C 431.99 321.53 441.06 328.57 450.50 335.43 C 456.25 339.60 462.30 342.77 468.54 346.28 C 487.33 356.47 507.39 362.01 528.26 366.06 C 545.92 369.11 563.20 368.18 581.00 368.26 C 585.56 368.32 590.41 367.82 594.89 368.73 C 599.40 370.29 602.39 375.51 602.59 380.12 C 602.93 385.41 602.67 390.73 602.76 396.03 C 602.70 400.08 602.94 404.21 601.05 407.92 C 599.94 410.11 598.32 412.34 595.85 413.06 C 593.36 413.75 590.58 413.71 588.01 413.74 C 573.67 413.59 559.34 413.69 545.00 413.66 C 537.19 413.62 528.94 414.00 521.24 412.91 C 504.06 410.18 487.32 407.61 470.98 401.33 C 442.85 391.48 416.76 375.50 395.83 354.22 C 390.06 349.15 385.42 343.23 380.89 337.06 C 368.86 321.77 360.15 304.48 353.48 286.27 C 347.99 270.44 345.01 254.22 343.06 237.62 C 342.28 231.22 342.63 224.47 342.57 218.00 C 342.31 203.10 343.41 187.97 346.70 173.41 C 353.17 141.96 368.07 112.39 389.74 88.67 C 394.42 83.39 399.24 78.26 404.62 73.68 C 414.88 64.90 425.31 56.76 437.35 50.54 C 455.46 39.81 475.92 32.59 496.37 27.84 C 506.94 25.85 516.63 23.21 527.01 23.45 Z" fill="#11308c" />
<path d="M 678.03 22.43 C 686.48 22.69 695.14 24.50 701.58 30.34 C 710.16 37.73 714.85 49.49 718.40 59.96 C 725.22 78.26 729.39 98.14 734.28 117.08 C 740.16 140.18 746.11 163.27 751.94 186.38 C 757.24 206.26 761.89 226.29 767.15 246.18 C 775.20 278.09 783.55 309.94 791.54 341.86 C 792.96 347.71 794.93 353.46 796.05 359.37 C 797.08 364.75 794.35 369.92 790.61 373.61 C 785.36 378.83 778.30 383.95 770.84 385.08 C 763.00 386.04 755.84 381.76 751.33 375.58 C 744.59 366.79 743.62 356.02 741.01 345.63 C 734.50 319.38 728.34 293.07 721.81 266.83 C 719.85 258.79 718.19 250.69 716.04 242.70 C 711.55 225.34 707.76 207.80 703.30 190.44 C 696.50 162.88 690.10 135.23 683.08 107.72 C 681.37 100.70 679.89 93.65 678.00 86.67 C 675.49 91.00 674.03 95.69 672.75 100.50 C 668.95 113.37 665.27 126.27 661.40 139.12 C 642.81 201.57 624.37 264.03 605.76 326.47 C 604.10 331.89 603.04 337.51 601.14 342.84 C 599.90 346.14 598.26 349.48 594.99 351.18 C 591.81 352.82 587.50 352.58 584.01 352.63 C 578.00 352.48 571.96 352.83 565.96 352.45 C 561.49 352.11 556.70 349.62 555.69 344.91 C 554.46 338.09 555.63 331.58 557.81 325.11 C 560.86 315.95 563.10 306.57 566.19 297.43 C 569.91 286.59 572.74 275.48 576.20 264.55 C 583.05 240.83 590.39 217.25 597.26 193.54 C 605.69 164.45 614.63 135.51 623.09 106.43 C 626.01 96.11 629.57 86.00 632.47 75.68 C 634.87 67.40 635.70 58.97 638.39 50.74 C 640.80 43.13 645.04 35.32 651.26 30.17 C 658.57 24.23 668.80 22.06 678.03 22.43 Z" fill="#11308c" />
<path d="M 940.07 22.56 C 945.44 22.11 951.09 23.70 956.00 25.79 C 965.54 29.95 972.28 38.80 975.63 48.47 C 979.88 60.69 981.03 74.47 983.10 87.24 C 985.31 103.46 988.59 119.63 989.85 135.95 C 992.49 156.36 995.90 176.70 999.25 197.00 C 1001.24 210.79 1003.36 224.56 1005.17 238.37 C 1010.08 271.93 1015.50 305.42 1020.00 339.03 C 1021.42 353.27 1023.82 367.45 1026.07 381.60 C 1027.27 388.77 1029.48 396.73 1028.35 403.99 C 1027.60 408.60 1023.82 412.85 1019.05 413.39 C 1013.10 414.06 1007.00 413.55 1001.00 413.73 C 995.53 413.64 990.15 414.28 985.85 410.19 C 981.01 405.94 981.50 397.32 980.43 391.38 C 973.05 341.26 965.50 291.22 958.32 241.06 C 956.28 226.75 953.78 212.48 952.10 198.12 C 950.94 189.12 948.95 180.28 948.11 171.22 C 944.78 147.16 940.83 123.18 937.36 99.13 C 935.29 84.81 932.78 70.50 931.19 56.12 C 930.55 50.93 929.58 45.80 928.70 40.64 C 928.16 37.03 927.77 33.13 929.47 29.74 C 931.42 25.60 935.55 22.95 940.07 22.56 Z" fill="#11308c" />
<path d="M 40.95 23.23 C 70.96 23.39 100.99 23.21 131.00 23.33 C 137.49 23.28 143.72 23.93 150.09 25.09 C 163.66 26.89 177.07 29.89 190.26 33.52 C 200.23 36.78 210.22 40.35 219.57 45.16 C 225.42 47.96 231.25 50.66 236.71 54.19 C 253.53 64.87 270.27 77.58 283.16 92.87 C 309.12 120.94 325.07 157.92 329.55 195.76 C 330.92 205.95 330.64 215.75 330.63 226.00 C 330.62 236.91 328.84 247.90 327.22 258.67 C 320.60 293.61 304.13 326.84 280.01 353.00 C 269.53 363.46 258.67 373.35 246.07 381.22 C 229.21 392.78 210.46 400.36 191.00 406.30 C 182.83 408.45 174.42 410.71 166.02 411.59 C 154.49 412.95 142.51 414.23 130.91 413.61 C 125.79 413.63 121.41 408.76 120.53 404.00 C 119.66 397.66 121.18 390.56 121.62 384.14 C 122.19 379.00 122.33 374.14 126.27 370.30 C 129.85 366.21 136.05 367.80 140.95 367.03 C 150.84 365.58 160.64 365.53 170.33 362.90 C 179.97 360.94 189.12 357.62 198.15 353.79 C 214.80 346.83 229.87 335.29 242.44 322.45 C 265.15 297.88 278.25 265.00 281.27 231.88 C 281.77 220.76 282.03 209.27 280.30 198.25 C 278.69 187.02 275.57 175.94 271.34 165.43 C 268.29 157.76 264.07 150.96 259.97 143.84 C 256.82 138.38 252.82 133.80 249.02 128.81 C 246.88 126.03 244.52 123.44 242.00 121.00 C 231.40 110.56 219.47 100.88 206.36 93.76 C 191.81 85.23 176.26 79.78 160.04 75.44 C 154.56 74.09 149.15 73.45 143.60 72.51 C 137.74 71.53 132.01 70.60 126.04 70.65 C 108.58 70.74 91.13 70.64 73.68 70.71 C 73.53 175.79 73.66 280.91 73.62 386.00 C 73.51 391.91 74.09 398.01 73.27 403.87 C 72.23 408.81 68.36 414.18 62.88 414.40 C 56.60 414.83 50.27 414.39 43.98 414.58 C 40.25 414.52 35.41 414.94 32.11 412.91 C 27.86 410.14 26.29 404.88 26.21 400.04 C 26.19 279.39 26.24 158.57 26.19 37.92 C 26.21 33.09 27.58 28.45 31.52 25.39 C 34.19 23.32 37.74 23.34 40.95 23.23 Z" fill="#11308c" />
<path d="M 908.25 92.58 C 908.63 97.85 907.88 102.93 907.04 108.11 C 905.92 117.79 904.02 127.19 904.38 137.00 C 904.70 145.16 902.14 152.87 902.53 161.02 C 902.54 166.75 904.02 172.24 904.30 177.93 C 904.62 198.62 904.62 219.30 904.53 239.99 C 904.56 246.07 903.73 252.02 902.95 258.02 C 901.32 273.45 899.31 288.45 894.92 303.39 C 889.40 320.80 883.03 337.79 873.02 353.18 C 868.58 360.40 862.79 365.90 857.50 372.43 C 854.35 376.30 850.89 379.85 847.02 383.00 C 837.09 391.11 826.04 398.19 814.01 402.72 C 804.62 406.33 794.83 409.54 784.87 411.06 C 777.20 411.75 769.27 411.76 761.64 410.58 C 766.65 407.90 771.99 405.93 776.84 403.02 C 785.22 397.84 793.25 392.18 800.30 385.26 C 804.85 381.08 809.24 376.81 812.99 371.88 C 818.74 364.52 824.45 357.18 829.30 349.16 C 840.66 330.67 850.22 311.04 857.90 290.74 C 862.07 278.99 866.55 267.39 869.68 255.29 C 875.56 236.22 879.59 216.77 883.82 197.30 C 887.72 177.79 891.16 158.08 896.13 138.83 C 898.03 130.75 899.85 122.65 902.02 114.64 C 904.07 107.13 905.34 99.82 908.25 92.58 Z" fill="#c70820" />
<path d="M 176.93 451.66 C 185.28 451.82 193.76 450.94 201.66 452.87 C 201.24 454.70 200.81 456.53 200.40 458.36 C 190.54 458.83 181.99 457.41 172.83 459.74 C 174.70 465.06 178.19 468.95 181.79 473.12 C 188.01 481.46 195.61 488.35 201.01 497.33 C 194.62 489.61 187.75 482.31 181.61 474.38 C 177.77 469.89 174.05 465.51 171.55 460.09 C 174.94 458.35 178.07 456.66 181.98 456.51 C 187.62 456.25 193.28 456.51 198.92 456.23 C 198.93 455.16 198.93 454.09 198.93 453.02 C 191.29 453.01 183.60 452.56 175.97 452.98 C 173.35 453.21 169.63 453.75 168.67 456.65 C 167.59 461.04 169.65 465.93 168.83 470.27 C 166.97 474.50 162.79 477.64 161.40 482.45 C 160.12 487.12 160.10 492.21 160.86 496.97 C 161.68 501.89 164.88 506.20 168.08 509.88 C 164.97 507.18 162.25 504.34 160.87 500.36 C 158.85 494.44 158.76 487.47 160.81 481.55 C 162.25 477.31 165.59 474.45 167.44 470.58 C 168.22 466.25 165.19 460.15 167.34 456.07 C 169.36 452.34 173.00 451.68 176.93 451.66 Z" fill="#11308c" />
<path d="M 264.54 452.31 C 264.46 454.28 264.38 456.26 264.31 458.23 C 258.93 458.45 252.54 458.20 247.55 460.36 C 240.37 463.69 235.21 470.51 233.90 478.33 C 244.03 478.89 254.15 478.34 264.29 478.70 C 264.39 480.79 264.49 482.88 264.61 484.98 C 254.75 487.58 243.92 485.85 233.52 486.47 C 234.47 491.86 236.40 496.72 240.39 500.60 C 246.19 506.89 255.69 507.65 263.68 508.79 C 263.69 510.52 263.69 512.25 263.70 513.98 C 258.63 514.59 252.99 515.09 248.00 513.79 C 241.63 512.20 235.71 508.60 232.05 503.05 C 226.83 495.19 225.54 485.67 226.86 476.45 C 228.53 467.39 233.33 459.11 241.71 454.77 C 248.94 450.45 256.54 451.45 264.54 452.31 Z" fill="#11308c" />
<path d="M 545.93 451.70 C 553.72 451.53 561.53 451.76 569.32 451.76 C 569.41 453.97 569.50 456.17 569.60 458.38 C 569.32 456.62 569.03 454.87 568.75 453.12 C 561.17 452.94 553.52 452.54 545.95 453.04 C 541.70 453.36 537.72 454.62 535.21 458.28 C 530.61 465.03 532.35 474.35 538.63 479.39 C 545.18 484.58 555.45 484.78 562.37 489.70 C 565.02 491.58 567.25 494.56 567.15 497.95 C 566.59 503.57 561.70 508.32 556.01 508.53 C 548.27 508.96 540.52 508.28 532.77 508.83 C 532.86 508.06 532.96 507.30 533.06 506.55 C 540.39 506.58 547.73 506.71 555.07 506.68 C 558.69 506.56 562.02 506.40 564.23 503.12 C 566.43 499.78 566.44 493.53 562.66 491.23 C 555.12 485.91 542.78 485.44 536.38 478.64 C 532.09 474.31 532.02 468.76 532.48 463.04 C 533.05 456.59 539.63 451.59 545.93 451.70 Z" fill="#11308c" />
<path d="M 858.10 451.75 C 864.90 452.78 869.65 456.92 874.01 461.92 C 872.50 463.62 870.99 465.31 869.46 466.98 C 866.42 464.11 862.94 460.23 858.84 459.02 C 855.01 458.03 850.82 458.14 846.90 458.37 C 840.30 458.83 834.84 463.08 831.56 468.64 C 826.32 476.78 826.16 487.09 830.41 495.69 C 834.35 504.19 843.64 509.72 853.04 508.53 C 864.10 507.17 872.11 497.28 872.63 486.35 C 864.62 485.22 856.80 485.73 848.75 485.61 C 848.76 483.56 848.77 481.51 848.80 479.46 C 858.97 479.39 869.14 479.45 879.30 479.41 C 880.05 486.88 879.40 494.02 875.53 500.59 C 871.20 508.99 862.63 514.82 853.06 514.86 C 848.60 514.91 844.02 515.10 839.81 513.40 C 831.96 510.44 826.08 503.60 823.19 495.85 C 821.02 489.55 819.66 483.27 821.45 476.68 C 823.17 468.39 826.85 460.97 833.96 456.07 C 841.11 450.66 849.59 450.84 858.10 451.75 Z" fill="#0b0b0b" />
<path d="M 39.97 452.56 C 45.80 452.00 51.77 452.38 57.62 452.73 C 57.54 454.61 57.47 456.49 57.41 458.38 C 52.33 458.38 47.02 457.96 42.00 458.83 C 38.52 459.42 36.36 462.08 35.34 465.30 C 33.89 469.96 34.55 475.47 34.62 480.31 C 42.19 480.53 49.74 480.41 57.31 480.48 C 57.30 482.18 57.29 483.89 57.28 485.60 C 49.63 485.68 42.10 485.28 34.49 486.41 C 34.42 495.43 34.57 504.45 34.37 513.47 C 32.12 513.51 29.87 513.54 27.62 513.56 C 27.38 500.37 27.63 487.18 27.46 474.00 C 27.35 468.91 27.93 463.99 30.53 459.52 C 32.48 455.86 35.77 453.14 39.97 452.56 Z" fill="#0b0b0b" />
<path d="M 175.97 452.98 C 183.60 452.56 191.29 453.01 198.93 453.02 C 198.93 454.09 198.93 455.16 198.92 456.23 C 193.28 456.51 187.62 456.25 181.98 456.51 C 178.07 456.66 174.94 458.35 171.55 460.09 C 174.05 465.51 177.77 469.89 181.61 474.38 C 187.75 482.31 194.62 489.61 201.01 497.33 L 202.17 498.83 C 203.78 492.95 205.04 485.97 201.26 480.63 C 199.24 477.70 197.72 474.95 197.12 471.37 C 200.29 471.55 202.67 471.64 204.85 474.20 C 209.94 479.20 209.81 485.36 209.64 492.03 C 209.65 496.36 208.16 500.55 208.22 504.84 C 209.09 507.82 211.48 510.44 213.00 513.12 C 208.52 514.06 205.68 512.80 201.84 510.75 C 196.88 513.54 191.81 515.55 186.01 515.43 C 179.39 515.79 173.12 514.35 168.08 509.88 C 164.88 506.20 161.68 501.89 160.86 496.97 C 160.10 492.21 160.12 487.12 161.40 482.45 C 162.79 477.64 166.97 474.50 168.83 470.27 C 169.65 465.93 167.59 461.04 168.67 456.65 C 169.63 453.75 173.35 453.21 175.97 452.98 Z" fill="#0b0b0b" />
<path d="M 262.89 453.11 C 262.68 454.11 262.46 455.12 262.25 456.13 C 257.74 456.99 253.11 457.69 248.72 459.06 C 243.26 460.68 238.91 465.16 235.81 469.76 C 233.52 473.10 233.32 476.65 232.85 480.53 C 242.86 480.78 252.78 480.12 262.78 480.95 C 262.70 482.25 262.62 483.55 262.55 484.85 C 252.34 485.77 242.18 484.87 231.97 485.45 C 232.68 488.17 233.38 491.02 234.49 493.61 C 237.41 500.34 243.35 505.65 250.51 507.43 C 254.47 508.50 258.75 508.43 262.63 509.70 L 263.58 511.01 C 260.54 513.86 254.81 513.33 250.96 513.12 C 242.67 512.66 235.72 507.36 231.45 500.50 C 227.84 494.63 227.76 486.63 227.87 479.94 C 227.89 470.07 233.35 459.50 242.72 455.52 C 249.29 452.39 255.82 452.72 262.89 453.11 Z" fill="#0b0b0b" />
<path d="M 505.36 452.44 C 507.06 452.48 508.76 452.53 510.46 452.58 C 510.51 472.86 510.55 493.15 510.43 513.43 C 508.75 513.49 507.06 513.54 505.38 513.59 C 505.17 493.22 505.21 472.80 505.36 452.44 Z" fill="#0b0b0b" />
<path d="M 545.95 453.04 C 553.52 452.54 561.17 452.94 568.75 453.12 C 569.03 454.87 569.32 456.62 569.60 458.38 C 563.03 458.83 556.50 458.62 549.93 458.57 C 546.97 458.64 543.86 458.44 541.49 460.53 C 537.22 464.49 537.63 471.94 542.71 475.05 C 549.49 478.86 558.43 479.41 565.16 483.72 C 569.59 486.47 571.95 491.19 572.48 496.29 C 572.92 502.65 570.68 509.88 564.16 512.28 C 553.94 511.79 543.72 512.33 533.51 511.72 C 533.26 510.75 533.02 509.79 532.77 508.83 C 540.52 508.28 548.27 508.96 556.01 508.53 C 561.70 508.32 566.59 503.57 567.15 497.95 C 567.25 494.56 565.02 491.58 562.37 489.70 C 555.45 484.78 545.18 484.58 538.63 479.39 C 532.35 474.35 530.61 465.03 535.21 458.28 C 537.72 454.62 541.70 453.36 545.95 453.04 Z" fill="#0b0b0b" />
<path d="M 429.37 459.44 C 430.65 462.45 430.44 466.24 430.73 469.46 C 434.95 469.62 439.17 469.70 443.39 469.77 C 443.40 472.59 443.40 475.40 443.39 478.22 C 439.09 478.28 434.80 478.36 430.50 478.51 C 430.34 485.70 430.22 492.89 430.29 500.07 C 430.51 502.67 430.14 505.86 432.96 507.15 C 436.23 508.70 440.47 508.53 444.03 508.94 C 443.47 510.62 442.94 512.44 442.10 514.00 C 436.79 515.45 429.33 515.02 425.44 510.56 C 422.73 507.62 422.67 503.85 422.61 500.07 C 422.71 489.02 422.76 477.98 422.60 466.94 C 422.66 464.57 422.45 461.59 423.59 459.45 C 425.00 458.29 428.01 458.16 429.37 459.44 Z" fill="#11308c" />
<path d="M 449.07 457.70 C 451.13 457.27 452.88 457.32 454.26 459.12 C 454.97 461.55 454.47 463.47 452.95 465.45 C 451.03 465.50 449.27 465.56 447.91 463.98 C 446.73 461.85 447.14 459.26 449.07 457.70 Z" fill="#0b0b0b" />
<path d="M 64.00 458.64 C 66.56 458.51 69.11 458.41 71.67 458.35 C 71.62 460.64 71.57 462.94 71.51 465.23 C 69.80 465.37 68.10 465.50 66.39 465.65 C 65.53 463.33 64.74 461.00 64.00 458.64 Z" fill="#0b0b0b" />
<path d="M 686.16 458.67 C 688.90 458.51 691.64 458.41 694.39 458.35 C 694.45 460.49 694.50 462.62 694.55 464.76 C 692.84 464.93 690.97 465.36 689.26 465.04 C 687.22 464.04 686.95 460.59 686.16 458.67 Z" fill="#0b0b0b" />
<path d="M 427.28 460.24 C 428.11 463.74 428.32 467.72 429.86 471.00 C 433.65 472.04 437.80 472.01 441.71 472.31 C 441.74 473.46 441.78 474.60 441.82 475.75 C 437.56 476.02 433.31 476.26 429.05 476.45 C 428.24 483.95 428.16 491.54 428.38 499.08 C 428.58 501.98 428.75 505.65 431.60 507.28 C 434.65 508.81 438.61 508.84 441.95 509.30 C 441.96 510.49 441.96 511.68 441.96 512.87 C 438.21 513.03 434.07 513.43 430.40 512.59 C 427.89 511.97 425.69 510.46 425.13 507.80 C 423.99 502.06 424.72 495.85 424.63 490.00 C 424.84 481.66 424.24 473.27 424.70 464.94 C 424.71 462.79 425.93 461.70 427.28 460.24 Z" fill="#0b0b0b" />
<path d="M 85.90 470.42 C 90.98 471.48 95.68 470.39 100.64 469.31 C 100.64 470.09 100.63 470.87 100.62 471.66 C 95.09 471.22 91.45 472.27 86.67 474.93 C 85.12 473.82 83.58 472.72 82.03 471.62 C 81.05 482.41 81.83 493.18 81.42 504.02 C 81.28 508.08 81.87 510.51 83.89 514.01 C 86.55 506.52 85.03 499.58 85.39 491.93 C 85.52 486.88 87.84 482.01 91.84 478.89 C 94.29 477.10 97.69 476.29 100.56 475.41 C 100.53 476.20 100.51 476.99 100.48 477.78 C 97.91 478.22 95.05 478.49 92.66 479.58 C 89.74 481.19 87.90 484.72 87.51 487.95 C 86.64 496.11 88.06 504.50 87.08 512.61 C 86.82 515.96 81.09 516.26 80.09 513.31 C 79.45 511.01 79.60 508.41 79.57 506.04 C 79.74 496.67 79.69 487.30 79.57 477.94 C 79.63 475.69 79.49 473.14 80.25 470.99 C 81.24 469.02 84.20 470.37 85.90 470.42 Z" fill="#11308c" />
<path d="M 288.04 469.51 C 290.61 469.60 293.53 469.38 295.98 470.25 C 298.19 471.01 298.07 477.84 295.36 478.02 C 288.28 479.12 281.51 477.02 274.39 479.85 C 274.68 481.98 274.38 484.39 276.66 485.47 C 282.58 488.54 291.41 488.90 296.57 493.48 C 300.31 496.61 299.88 502.38 299.38 506.74 C 298.87 510.31 296.17 511.75 293.26 513.28 C 295.23 511.61 297.26 509.67 298.40 507.32 C 300.71 502.32 298.94 495.70 294.11 492.87 C 288.96 489.95 282.02 490.00 276.84 487.12 C 274.33 485.76 273.05 482.98 274.03 480.24 C 274.71 477.71 276.93 476.89 279.27 476.50 C 284.48 475.81 289.86 476.14 295.11 476.01 C 295.12 474.67 295.13 473.33 295.13 471.99 C 288.15 471.91 280.30 470.74 273.53 472.61 C 267.22 475.04 266.58 485.67 270.84 490.12 C 276.41 494.99 286.29 494.16 292.15 498.79 C 294.20 500.35 294.04 503.05 293.15 505.20 C 291.47 507.92 287.92 508.44 285.00 508.59 C 279.38 508.75 273.78 508.57 268.16 508.95 C 268.17 510.23 268.17 511.51 268.17 512.79 C 276.29 512.78 284.34 512.95 292.44 513.50 C 286.92 514.95 280.67 514.56 274.94 514.64 C 272.70 514.54 270.05 514.73 267.95 513.83 C 266.82 512.62 266.93 510.12 266.59 508.53 C 272.67 508.34 278.87 508.90 284.92 508.21 C 288.55 507.75 291.34 505.82 293.64 503.06 C 292.35 501.00 291.10 499.04 288.84 497.95 C 283.96 495.51 277.22 495.39 272.40 492.45 C 268.47 490.09 265.77 485.22 266.82 480.61 C 267.64 476.89 269.82 473.26 273.32 471.52 C 277.79 469.24 283.16 469.58 288.04 469.51 Z" fill="#11308c" />
<path d="M 404.65 469.89 C 409.62 470.90 413.36 474.85 415.51 479.26 C 417.42 483.34 417.44 487.55 417.45 491.97 C 417.38 499.44 417.42 506.92 417.29 514.40 C 415.27 514.48 413.24 514.55 411.22 514.63 C 410.45 508.43 410.60 502.23 410.72 496.00 C 410.74 491.31 410.86 486.79 408.68 482.49 C 406.29 477.84 400.17 475.48 395.50 478.28 C 391.74 480.25 390.16 483.85 389.97 487.95 C 389.50 496.70 390.12 505.50 389.71 514.27 C 387.57 514.25 385.43 514.21 383.29 514.16 C 382.26 503.86 381.98 493.07 384.06 482.89 C 384.93 478.41 387.22 474.66 390.99 472.05 C 394.88 469.16 400.07 469.12 404.65 469.89 Z" fill="#11308c" />
<path d="M 715.97 469.53 C 718.66 469.48 722.12 469.20 724.55 470.55 C 725.85 472.23 725.79 475.72 724.56 477.43 C 721.36 478.69 717.41 478.11 714.02 478.67 C 709.99 479.11 706.64 482.60 704.92 486.07 C 701.54 492.76 704.47 501.50 710.68 505.40 C 713.64 506.92 717.73 506.39 720.99 506.74 C 722.43 507.02 724.15 506.62 724.74 508.28 C 725.44 510.16 725.12 512.49 725.12 514.46 C 717.99 514.47 710.87 515.70 704.79 511.09 C 693.38 502.27 693.72 481.93 705.36 473.40 C 708.51 470.95 711.97 469.69 715.97 469.53 Z" fill="#11308c" />
<path d="M 782.93 469.65 C 788.72 469.44 794.54 469.71 800.33 469.74 C 800.33 472.59 800.32 475.43 800.32 478.28 C 792.63 478.35 785.03 478.14 777.35 478.63 C 777.40 480.51 777.31 482.48 777.68 484.32 C 778.86 486.15 781.53 487.04 783.50 487.70 C 788.75 489.38 795.15 489.78 799.34 493.69 C 802.88 496.96 803.18 502.17 802.29 506.61 C 801.52 509.78 798.86 511.62 796.26 513.26 C 798.99 510.40 801.68 506.87 802.12 502.83 C 802.48 499.01 799.90 495.18 796.84 493.11 C 791.31 489.39 783.10 490.05 777.86 486.14 C 773.93 483.51 776.79 476.56 781.15 476.43 C 786.66 475.78 792.31 476.20 797.86 476.03 C 798.21 474.75 798.56 473.48 798.91 472.21 C 791.84 471.81 784.24 470.97 777.26 472.32 C 773.55 473.08 771.53 476.41 770.52 479.79 C 769.25 484.01 771.36 488.67 774.95 491.05 C 780.55 494.63 788.43 494.47 793.88 498.11 C 797.55 500.84 796.66 506.82 792.12 508.02 C 785.22 509.74 777.19 507.40 770.26 509.37 C 768.07 512.05 772.08 512.72 774.00 512.84 C 781.16 513.05 788.29 512.90 795.45 513.49 C 787.20 515.49 778.07 514.29 769.62 514.40 C 769.54 512.43 769.45 510.46 769.37 508.49 C 774.27 508.46 779.17 508.62 784.07 508.53 C 787.25 508.43 790.53 508.16 793.18 506.21 C 795.36 504.43 796.13 501.28 793.76 499.26 C 790.26 496.63 784.98 496.03 780.87 494.68 C 777.03 493.54 772.37 491.53 770.51 487.72 C 768.46 483.27 769.13 477.22 772.62 473.63 C 775.39 470.84 779.09 469.83 782.93 469.65 Z" fill="#11308c" />
<path d="M 1020.96 474.08 C 1024.66 477.38 1027.79 482.01 1028.31 487.05 C 1028.83 492.62 1028.73 498.04 1026.39 503.22 C 1027.31 497.48 1027.94 491.17 1026.71 485.43 C 1025.51 479.75 1021.27 474.18 1015.61 472.43 C 1011.55 471.30 1007.12 471.29 1002.98 471.92 C 998.19 472.62 994.47 476.05 992.00 480.03 C 989.34 484.37 989.48 490.08 989.45 495.00 C 989.63 504.69 989.56 514.35 989.40 524.04 C 989.27 527.67 990.15 530.59 991.78 533.79 C 992.72 530.25 993.34 526.69 993.35 523.02 C 993.41 514.33 993.00 505.62 993.22 496.93 C 993.33 490.59 995.57 483.70 1000.16 479.19 C 1003.58 475.91 1008.60 475.09 1012.85 477.24 C 1018.99 480.30 1023.86 487.76 1022.58 494.76 C 1021.90 498.87 1019.92 503.01 1016.81 505.82 C 1013.53 508.80 1008.52 509.48 1004.35 508.37 C 1001.02 507.24 998.03 504.59 995.15 502.61 C 995.50 505.41 995.08 508.54 997.43 510.56 C 1002.00 515.17 1008.69 515.93 1014.62 513.70 C 1019.35 511.93 1023.09 507.93 1026.05 503.95 C 1023.02 510.45 1017.38 515.30 1009.99 515.55 C 1004.61 516.06 1000.16 514.07 995.45 511.85 C 995.17 519.43 995.64 526.92 994.67 534.47 C 992.35 534.41 990.04 534.36 987.72 534.31 C 987.48 522.54 987.74 510.77 987.56 499.00 C 987.48 493.64 987.69 488.43 989.55 483.33 C 991.49 477.45 996.42 472.68 1002.16 470.49 C 1008.41 468.39 1015.98 469.63 1020.96 474.08 Z" fill="#11308c" />
<path d="M 448.57 470.87 C 450.06 470.50 451.61 470.29 453.14 470.05 C 453.77 477.06 453.54 483.98 453.55 491.00 C 453.52 498.81 453.73 506.55 453.29 514.35 C 451.57 514.28 449.84 514.21 448.12 514.13 C 447.16 504.16 447.85 494.02 447.60 484.00 C 447.67 479.78 447.16 474.90 448.57 470.87 Z" fill="#0b0b0b" />
<path d="M 480.97 470.36 C 486.44 470.70 491.28 474.18 494.07 478.79 C 496.70 483.09 497.72 487.97 497.80 492.96 C 497.87 500.19 498.16 507.67 497.20 514.82 C 493.33 514.13 489.97 512.91 486.05 513.97 C 481.16 515.20 476.60 516.28 471.54 515.05 C 467.52 513.95 464.06 510.73 461.71 507.40 C 457.46 501.41 456.74 493.51 457.97 486.45 C 459.37 480.66 463.13 474.43 468.71 471.85 C 472.33 470.03 477.01 470.10 480.97 470.36 Z" fill="#11308c" />
<path d="M 978.59 470.87 C 980.09 470.50 981.64 470.29 983.16 470.04 C 983.83 477.39 983.52 484.63 983.61 491.99 C 983.61 495.32 983.76 498.74 983.36 502.04 C 982.50 507.82 978.72 512.87 972.92 514.37 C 967.12 515.46 960.54 515.22 956.00 510.97 C 951.55 506.90 950.63 500.78 950.63 495.04 C 950.73 486.92 950.37 478.70 951.13 470.62 C 952.93 470.65 954.74 470.69 956.54 470.73 C 956.65 477.49 956.62 484.24 956.54 491.00 C 956.56 495.14 956.40 498.97 958.36 502.76 C 960.12 506.07 962.98 508.82 966.99 508.64 C 972.59 509.04 977.75 503.53 977.64 498.05 C 977.92 491.02 977.46 483.97 977.65 476.93 C 977.73 474.85 977.89 472.85 978.59 470.87 Z" fill="#0b0b0b" />
<path d="M 65.58 470.69 C 67.21 470.66 68.83 470.63 70.46 470.61 C 70.79 484.91 70.65 499.23 70.54 513.53 C 68.86 513.53 67.17 513.52 65.48 513.51 C 65.39 499.24 65.23 484.95 65.58 470.69 Z" fill="#0b0b0b" />
<path d="M 100.62 471.66 C 100.61 472.91 100.59 474.16 100.56 475.41 C 97.69 476.29 94.29 477.10 91.84 478.89 C 87.84 482.01 85.52 486.88 85.39 491.93 C 85.03 499.58 86.55 506.52 83.89 514.01 C 81.87 510.51 81.28 508.08 81.42 504.02 C 81.83 493.18 81.05 482.41 82.03 471.62 C 83.58 472.72 85.12 473.82 86.67 474.93 C 91.45 472.27 95.09 471.22 100.62 471.66 Z" fill="#0b0b0b" />
<path d="M 622.66 470.92 C 625.86 471.49 629.04 472.51 632.24 472.09 C 635.70 471.69 639.14 471.38 642.63 471.33 C 642.39 473.26 642.15 475.18 641.89 477.10 C 638.52 477.73 634.08 477.91 631.81 480.85 C 628.88 484.37 628.41 488.54 628.36 492.97 C 628.35 499.85 628.41 506.73 628.45 513.60 C 626.49 513.56 624.54 513.52 622.59 513.46 C 622.32 499.33 622.20 485.05 622.66 470.92 Z" fill="#0b0b0b" />
<path d="M 644.48 470.38 C 646.27 470.52 648.10 470.58 649.86 470.93 C 651.54 472.29 652.44 474.77 653.26 476.72 C 655.89 483.67 658.44 490.65 660.95 497.65 C 661.93 500.40 663.24 502.94 664.81 505.38 C 667.53 498.54 669.86 491.54 672.42 484.63 C 674.01 480.36 675.20 475.22 678.01 471.57 C 679.88 471.27 681.83 471.35 683.73 471.31 C 681.91 480.99 677.63 488.83 674.44 498.25 C 672.57 503.08 671.40 508.45 668.83 512.95 C 667.20 515.81 663.29 515.94 660.67 514.51 C 658.86 512.74 658.17 509.68 657.29 507.37 C 653.22 495.03 647.46 483.04 644.48 470.38 Z" fill="#0b0b0b" />
<path d="M 688.18 471.02 C 689.99 470.77 691.75 470.76 693.57 470.71 C 693.88 481.82 693.57 492.91 693.78 504.02 C 693.78 507.34 693.96 511.06 692.79 514.21 C 691.27 514.41 689.88 514.41 688.50 513.65 C 686.60 507.89 687.75 501.02 687.52 495.00 C 687.83 487.10 686.71 478.79 688.18 471.02 Z" fill="#11308c" />
<path d="M 885.05 470.80 C 889.05 470.88 891.62 473.10 895.34 472.26 C 898.91 471.60 902.28 471.31 905.92 471.36 C 905.67 472.82 905.36 474.27 904.98 475.69 C 901.77 477.59 897.55 478.20 894.93 480.90 C 892.44 483.32 891.34 486.58 891.29 490.01 C 891.09 498.13 891.76 506.14 890.64 514.24 C 888.60 513.95 886.55 513.66 884.51 513.37 C 884.35 502.91 884.53 492.46 884.39 482.00 C 884.38 478.28 884.28 474.45 885.05 470.80 Z" fill="#0b0b0b" />
<path d="M 116.90 471.31 C 122.15 471.17 128.87 470.47 133.35 473.66 C 136.10 475.51 139.12 478.50 139.65 481.91 C 137.73 484.70 134.53 486.82 131.77 488.76 C 124.72 493.49 118.07 498.76 111.08 503.58 C 112.84 505.21 114.80 507.37 117.11 508.14 C 122.67 509.54 128.79 508.09 132.56 503.63 C 134.84 500.66 135.66 496.32 137.49 493.05 C 139.09 492.63 140.80 492.50 142.44 492.30 C 143.11 501.40 137.99 511.59 128.77 514.16 C 122.00 515.70 113.88 515.08 108.19 510.74 C 101.09 505.25 99.35 494.68 101.26 486.37 C 103.13 479.12 108.85 471.64 116.90 471.31 Z" fill="#0b0b0b" />
<path d="M 273.53 472.61 C 280.30 470.74 288.15 471.91 295.13 471.99 C 295.13 473.33 295.12 474.67 295.11 476.01 C 289.86 476.14 284.48 475.81 279.27 476.50 C 276.93 476.89 274.71 477.71 274.03 480.24 C 273.05 482.98 274.33 485.76 276.84 487.12 C 282.02 490.00 288.96 489.95 294.11 492.87 C 298.94 495.70 300.71 502.32 298.40 507.32 C 297.26 509.67 295.23 511.61 293.26 513.28 L 292.44 513.50 C 284.34 512.95 276.29 512.78 268.17 512.79 C 268.17 511.51 268.17 510.23 268.16 508.95 C 273.78 508.57 279.38 508.75 285.00 508.59 C 287.92 508.44 291.47 507.92 293.15 505.20 C 294.04 503.05 294.20 500.35 292.15 498.79 C 286.29 494.16 276.41 494.99 270.84 490.12 C 266.58 485.67 267.22 475.04 273.53 472.61 Z" fill="#0b0b0b" />
<path d="M 313.93 471.29 C 319.82 471.14 325.72 471.32 331.61 471.43 C 331.66 473.42 331.69 475.41 331.72 477.40 C 326.45 477.48 321.18 477.35 315.91 477.41 C 314.20 477.53 311.85 477.40 310.52 478.66 C 309.09 480.06 308.94 482.59 309.52 484.40 C 311.40 487.50 315.94 488.40 319.20 489.16 C 324.52 490.38 329.73 491.18 332.97 496.11 C 335.63 500.52 335.50 507.89 331.09 511.23 C 328.03 513.92 323.84 513.60 320.03 513.70 C 314.72 513.59 309.31 513.98 304.03 513.38 C 303.18 511.94 302.52 510.34 301.85 508.80 C 307.89 508.34 313.92 508.73 319.96 508.46 C 322.48 508.26 325.99 507.75 327.71 505.69 C 329.38 502.96 328.45 499.14 325.37 497.85 C 318.36 494.85 310.69 495.27 304.70 489.39 C 301.26 485.37 301.76 478.14 305.29 474.29 C 307.61 471.76 310.68 471.43 313.93 471.29 Z" fill="#0b0b0b" />
<path d="M 362.09 471.23 C 368.19 471.03 375.44 475.85 376.76 481.94 C 374.41 485.28 370.42 487.76 367.13 490.13 C 360.84 494.40 354.79 499.01 348.57 503.37 C 350.36 505.26 352.29 507.92 355.00 508.36 C 359.70 509.19 365.32 508.17 368.91 504.87 C 372.01 501.69 373.40 496.47 374.89 492.39 C 376.64 492.48 378.38 492.57 380.13 492.66 C 379.56 496.65 379.16 500.64 377.33 504.30 C 374.55 509.50 369.93 513.59 363.98 514.58 C 358.64 515.21 353.33 515.15 348.47 512.57 C 343.12 510.03 339.80 504.66 338.56 499.03 C 337.36 490.42 338.12 481.13 345.10 475.08 C 350.10 470.64 355.84 471.14 362.09 471.23 Z" fill="#0b0b0b" />
<path d="M 398.97 471.52 C 403.30 471.52 407.67 471.94 410.98 475.03 C 414.76 478.48 415.78 483.14 416.23 488.04 C 416.79 496.24 416.60 504.52 415.99 512.71 C 414.69 512.73 413.39 512.75 412.08 512.77 C 411.47 505.49 411.91 498.23 411.75 490.95 C 411.56 485.50 409.86 480.07 404.81 477.30 C 400.51 474.97 395.73 475.98 392.40 479.43 C 389.41 482.37 389.43 486.01 389.35 489.94 C 389.47 497.38 389.65 504.81 389.27 512.26 C 387.76 512.26 386.24 512.26 384.72 512.26 C 384.47 504.17 384.30 496.05 384.49 487.96 C 384.69 483.14 385.46 478.56 388.95 474.97 C 391.67 472.14 395.21 471.62 398.97 471.52 Z" fill="#0b0b0b" />
<path d="M 473.93 471.69 C 478.46 471.30 484.20 471.27 488.17 473.79 C 493.12 477.01 495.71 482.88 496.71 488.51 C 498.08 496.39 497.67 504.79 496.95 512.72 C 494.03 512.20 490.71 511.15 487.79 512.01 C 483.02 513.30 479.09 515.27 473.94 514.44 C 468.71 513.76 464.79 510.31 461.93 506.09 C 459.39 502.33 459.35 497.37 459.29 493.00 C 459.35 487.31 459.61 482.01 463.29 477.37 C 465.92 473.85 469.59 472.03 473.93 471.69 Z" fill="#0b0b0b" />
<path d="M 589.94 471.64 C 594.25 470.99 598.76 471.05 603.10 471.46 C 608.78 472.12 613.97 476.20 615.20 481.92 C 612.59 485.74 607.71 488.31 604.01 491.03 C 598.22 495.25 592.48 499.52 586.56 503.56 C 588.45 505.27 590.61 507.46 593.06 508.26 C 597.85 509.24 602.63 508.70 606.30 505.23 C 610.42 501.73 611.01 497.29 613.38 492.75 C 615.46 492.19 618.39 492.11 618.38 494.96 C 617.80 501.20 614.74 507.85 609.50 511.52 C 601.76 517.38 589.21 516.75 582.61 509.38 C 575.66 502.54 574.60 490.80 578.35 482.15 C 580.63 477.17 584.31 472.72 589.94 471.64 Z" fill="#0b0b0b" />
<path d="M 691.37 470.81 C 692.67 476.83 692.67 482.88 692.48 489.00 C 692.28 495.03 692.78 501.07 692.50 507.09 C 692.41 509.71 691.25 511.80 690.14 514.11 C 687.57 506.27 688.77 499.04 688.60 491.00 C 688.61 485.26 688.16 479.05 689.15 473.41 C 689.88 472.53 690.62 471.67 691.37 470.81 Z" fill="#0b0b0b" />
<path d="M 723.09 471.98 C 723.07 473.18 723.04 474.37 723.02 475.56 C 718.44 476.14 712.96 476.11 709.26 479.23 C 705.76 482.14 702.77 486.50 702.25 491.10 C 701.74 496.36 704.93 501.82 708.82 505.15 C 712.75 508.58 718.24 508.59 723.13 509.26 C 723.07 510.43 723.02 511.61 722.96 512.79 C 718.43 512.99 713.09 513.64 708.75 512.15 C 704.40 510.39 700.82 506.30 699.22 501.94 C 697.77 497.25 697.94 491.95 698.41 487.11 C 698.98 481.29 702.67 475.58 707.98 473.04 C 712.43 471.06 718.34 471.77 723.09 471.98 Z" fill="#0b0b0b" />
<path d="M 740.94 471.49 C 745.23 471.03 749.73 470.98 753.99 471.68 C 759.63 472.91 762.69 477.43 765.81 481.84 C 756.65 489.89 745.65 495.95 736.61 504.13 C 738.61 505.59 740.77 507.36 743.13 508.19 C 747.74 509.28 752.72 508.54 756.37 505.35 C 760.13 502.19 761.43 496.89 762.85 492.40 C 764.47 492.46 766.09 492.53 767.71 492.60 C 767.59 496.02 767.77 499.14 766.43 502.37 C 763.42 510.06 755.42 516.00 746.97 515.41 C 739.09 515.39 731.63 510.96 728.29 503.75 C 725.90 499.06 726.15 493.04 726.53 487.91 C 727.28 480.24 733.07 472.71 740.94 471.49 Z" fill="#0b0b0b" />
<path d="M 777.26 472.32 C 784.24 470.97 791.84 471.81 798.91 472.21 C 798.56 473.48 798.21 474.75 797.86 476.03 C 792.31 476.20 786.66 475.78 781.15 476.43 C 776.79 476.56 773.93 483.51 777.86 486.14 C 783.10 490.05 791.31 489.39 796.84 493.11 C 799.90 495.18 802.48 499.01 802.12 502.83 C 801.68 506.87 798.99 510.40 796.26 513.26 L 795.45 513.49 C 788.29 512.90 781.16 513.05 774.00 512.84 C 772.08 512.72 768.07 512.05 770.26 509.37 C 777.19 507.40 785.22 509.74 792.12 508.02 C 796.66 506.82 797.55 500.84 793.88 498.11 C 788.43 494.47 780.55 494.63 774.95 491.05 C 771.36 488.67 769.25 484.01 770.52 479.79 C 771.53 476.41 773.55 473.08 777.26 472.32 Z" fill="#0b0b0b" />
<path d="M 916.56 472.42 C 920.60 470.68 925.78 471.18 930.10 471.33 C 937.94 471.72 943.55 478.86 945.21 486.01 C 946.04 490.69 945.99 496.28 944.93 500.93 C 943.04 507.94 936.45 514.26 929.03 514.76 C 924.98 515.03 920.55 515.07 916.80 513.32 C 911.05 510.83 907.17 504.78 905.88 498.82 C 905.18 494.93 905.24 490.82 905.76 486.91 C 906.50 480.75 911.27 475.29 916.56 472.42 Z" fill="#0b0b0b" />
<path d="M 1002.98 471.92 C 1007.12 471.29 1011.55 471.30 1015.61 472.43 C 1021.27 474.18 1025.51 479.75 1026.71 485.43 C 1027.94 491.17 1027.31 497.48 1026.39 503.22 L 1026.05 503.95 C 1023.09 507.93 1019.35 511.93 1014.62 513.70 C 1008.69 515.93 1002.00 515.17 997.43 510.56 C 995.08 508.54 995.50 505.41 995.15 502.61 C 998.03 504.59 1001.02 507.24 1004.35 508.37 C 1008.52 509.48 1013.53 508.80 1016.81 505.82 C 1019.92 503.01 1021.90 498.87 1022.58 494.76 C 1023.86 487.76 1018.99 480.30 1012.85 477.24 C 1008.60 475.09 1003.58 475.91 1000.16 479.19 C 995.57 483.70 993.33 490.59 993.22 496.93 C 993.00 505.62 993.41 514.33 993.35 523.02 C 993.34 526.69 992.72 530.25 991.78 533.79 C 990.15 530.59 989.27 527.67 989.40 524.04 C 989.56 514.35 989.63 504.69 989.45 495.00 C 989.48 490.08 989.34 484.37 992.00 480.03 C 994.47 476.05 998.19 472.62 1002.98 471.92 Z" fill="#0b0b0b" />
<path d="M 174.05 475.25 C 178.24 478.86 181.10 483.18 184.64 487.35 C 189.19 492.67 193.29 498.31 197.60 503.81 C 197.19 504.67 196.78 505.52 196.37 506.38 C 190.74 508.36 185.06 509.42 179.13 508.07 C 174.76 506.92 170.26 504.07 168.21 499.92 C 166.06 495.79 166.07 490.45 166.53 485.93 C 167.07 481.21 170.65 478.13 174.05 475.25 Z" fill="#ffffff" />
<path d="M 117.29 477.36 C 122.13 475.31 125.77 477.57 130.27 479.17 C 128.19 482.16 125.85 484.73 122.81 486.76 C 117.43 490.43 112.54 494.45 106.67 497.35 C 106.01 489.03 108.74 480.27 117.29 477.36 Z" fill="#ffffff" />
<path d="M 362.82 477.21 C 364.87 477.92 366.16 479.60 367.60 481.12 C 359.67 486.23 352.47 493.65 343.66 496.89 C 343.66 490.74 344.53 484.73 349.36 480.45 C 352.82 477.59 358.43 475.34 362.82 477.21 Z" fill="#ffffff" />
<path d="M 473.51 477.58 C 479.63 474.52 487.87 479.14 489.67 485.50 C 491.03 489.67 491.13 496.56 490.19 500.82 C 487.16 506.54 480.61 510.18 474.15 508.09 C 467.54 506.01 464.34 499.62 464.36 493.00 C 463.95 486.60 467.81 480.36 473.51 477.58 Z" fill="#ffffff" />
<path d="M 595.95 476.53 C 599.17 476.67 602.40 477.87 605.50 478.70 C 605.52 479.65 605.54 480.61 605.57 481.57 C 598.01 486.87 590.64 492.52 582.80 497.41 C 582.68 493.18 582.14 488.95 584.24 485.08 C 586.59 480.76 590.85 476.87 595.95 476.53 Z" fill="#ffffff" />
<path d="M 745.99 476.52 C 749.11 476.34 752.45 478.06 755.35 479.08 C 752.50 484.84 747.53 487.03 742.63 490.66 C 739.44 493.00 736.17 495.05 732.63 496.81 C 732.51 493.31 732.12 489.66 733.38 486.30 C 735.35 481.01 740.46 477.28 745.99 476.52 Z" fill="#ffffff" />
<path d="M 920.53 477.64 C 925.16 475.22 930.26 476.92 934.14 479.90 C 939.62 484.40 941.12 493.10 938.41 499.46 C 935.91 504.46 931.02 509.17 925.00 508.63 C 917.79 508.57 912.72 502.89 911.69 496.06 C 910.19 488.69 913.82 481.01 920.53 477.64 Z" fill="#ffffff" />
<path d="M 1007.34 477.32 C 1014.39 476.71 1020.87 484.55 1021.58 491.08 C 1021.90 497.48 1018.41 504.86 1012.41 507.65 C 1009.09 509.22 1005.37 508.66 1002.32 506.77 C 999.50 505.03 996.50 502.72 994.91 499.76 C 993.85 495.24 994.84 490.05 996.59 485.81 C 998.40 481.33 1002.64 478.17 1007.34 477.32 Z" fill="#ffffff" />
<path d="M 532.77 508.83 C 533.02 509.79 533.26 510.75 533.51 511.72 C 543.72 512.33 553.94 511.79 564.16 512.28 C 560.57 513.79 556.93 514.47 553.03 514.45 C 546.25 514.46 539.45 514.42 532.67 514.22 C 532.66 512.42 532.65 510.63 532.77 508.83 Z" fill="#0b0b0b" /></svg>