<svg width="243px" height="123px" viewBox="0 0 729 369" version="1.1" xmlns="http://www.w3.org/2000/svg">
<path fill="#f40000" d=" M 0.00 0.00 L 728.00 0.00 C 727.99 122.66 728.01 245.33 727.99 367.99 C 485.33 368.01 242.66 367.99 0.00 368.00 L 0.00 0.00 Z" />
<path fill="#f73d3e" d=" M 728.00 0.00 L 729.00 0.00 L 729.00 369.00 L 0.00 369.00 L 0.00 368.00 C 242.66 367.99 485.33 368.01 727.99 367.99 C 728.01 245.33 727.99 122.66 728.00 0.00 Z" />
<path fill="#ffffff" d=" M 188.26 29.13 C 198.92 26.15 210.09 28.64 220.48 31.51 C 220.50 37.71 220.48 43.91 220.50 50.11 C 213.42 47.25 205.69 44.55 197.98 46.17 C 193.73 47.21 189.07 50.25 188.84 55.05 C 187.84 65.84 188.38 76.69 188.25 87.51 C 198.33 87.51 208.41 87.51 218.49 87.51 C 218.49 93.00 218.49 98.50 218.49 104.00 C 208.41 104.00 198.33 104.00 188.24 104.00 C 188.25 146.92 188.25 189.84 188.24 232.75 C 181.91 232.74 175.58 232.75 169.25 232.75 C 169.25 189.83 169.25 146.92 169.25 104.00 C 162.92 104.00 156.59 104.00 150.25 104.00 C 150.25 98.50 150.25 93.00 150.25 87.50 C 156.59 87.51 162.92 87.51 169.25 87.50 C 169.60 74.16 168.27 60.66 170.68 47.45 C 172.15 38.46 179.69 31.47 188.26 29.13 Z" />
<path fill="#ffffff" d=" M 84.25 33.76 C 90.50 33.75 96.75 33.76 103.00 33.75 C 103.01 51.67 102.99 69.59 103.00 87.51 C 112.92 87.51 122.83 87.51 132.75 87.51 C 132.75 93.00 132.75 98.50 132.75 104.00 C 122.83 104.00 112.92 104.00 103.00 104.00 C 103.00 146.92 103.00 189.83 103.00 232.75 C 96.75 232.75 90.50 232.74 84.25 232.76 C 84.25 189.84 84.25 146.92 84.25 104.00 C 75.75 104.00 67.25 104.00 58.75 104.00 C 58.75 98.50 58.76 93.00 58.75 87.51 C 67.25 87.51 75.75 87.52 84.25 87.50 C 84.26 69.59 84.25 51.67 84.25 33.76 Z" />
<path fill="#ffffff" d=" M 302.38 86.62 C 320.85 81.41 341.48 83.29 358.33 92.63 C 375.86 102.63 389.87 119.37 395.17 138.99 C 398.45 151.33 398.59 164.46 396.12 176.97 C 392.00 197.82 378.11 216.14 360.00 226.97 C 348.01 234.15 333.85 237.20 319.96 236.49 C 298.61 236.22 278.71 224.73 265.48 208.37 C 265.51 234.25 265.48 260.12 265.49 286.00 C 259.16 286.00 252.83 286.00 246.51 286.00 C 246.52 219.84 246.51 153.67 246.51 87.50 C 252.84 87.51 259.16 87.51 265.49 87.50 C 265.49 96.23 265.49 104.96 265.49 113.69 C 274.67 101.22 287.34 90.93 302.38 86.62 Z" />
<path fill="#f40000" d=" M 311.56 102.80 C 325.19 100.56 339.66 103.18 351.37 110.59 C 363.85 118.25 372.68 131.11 376.59 145.10 C 380.56 159.49 378.63 175.32 371.44 188.38 C 364.76 201.30 353.05 211.52 339.26 216.21 C 323.27 221.82 304.97 219.21 290.68 210.30 C 278.02 202.82 268.86 189.90 265.69 175.57 C 262.32 160.58 263.98 144.14 271.71 130.71 C 280.02 116.17 294.86 105.24 311.56 102.80 Z" />
<path fill="#fefefe" d=" M 362.49 303.85 C 363.72 303.47 365.27 301.97 366.45 303.33 C 367.98 304.05 366.61 307.07 365.03 306.64 C 363.44 306.73 363.26 304.80 362.49 303.85 Z" />
<path fill="#ffffff" d=" M 54.25 303.26 C 54.93 303.26 56.31 303.25 56.99 303.24 C 57.00 305.49 57.00 307.74 57.00 310.00 C 57.94 310.00 59.82 310.00 60.76 310.00 C 60.75 310.56 60.74 311.68 60.74 312.24 C 59.80 312.24 57.93 312.24 57.00 312.24 C 57.00 317.66 57.00 323.08 56.99 328.50 C 56.31 328.50 54.94 328.50 54.25 328.50 C 54.25 323.08 54.26 317.66 54.24 312.24 C 53.50 312.24 52.02 312.25 51.28 312.25 C 51.26 311.70 51.21 310.61 51.19 310.06 C 51.96 310.04 53.49 309.99 54.26 309.97 C 54.25 307.73 54.25 305.49 54.25 303.26 Z" />
<path fill="#fefafa" d=" M 63.50 303.00 C 64.12 303.00 65.38 303.00 66.00 303.00 C 66.00 306.32 66.02 309.65 65.98 312.97 C 69.07 308.95 76.59 308.08 78.82 313.37 C 80.23 318.25 79.19 323.47 79.50 328.50 C 78.87 328.50 77.62 328.51 77.00 328.51 C 76.95 324.63 77.10 320.75 76.93 316.88 C 76.90 314.95 75.91 312.81 73.93 312.23 C 70.65 311.15 67.02 313.85 66.44 317.10 C 65.95 320.88 66.00 324.71 66.00 328.51 C 65.37 328.51 64.13 328.50 63.50 328.50 C 63.50 320.00 63.51 311.50 63.50 303.00 Z" />
<path fill="#ffffff" d=" M 170.00 303.00 C 170.69 303.00 172.06 303.00 172.75 302.99 C 172.74 311.49 172.75 320.00 172.74 328.50 C 172.06 328.50 170.69 328.51 170.00 328.51 C 170.00 320.01 170.00 311.50 170.00 303.00 Z" />
<path fill="#ffffff" d=" M 187.06 309.99 C 187.11 307.13 187.89 303.63 191.09 302.82 C 194.57 301.64 197.99 304.24 198.39 307.77 C 195.63 308.06 194.23 304.28 191.47 305.36 C 189.85 306.30 190.07 308.39 189.50 309.94 C 190.50 309.96 192.50 310.01 193.50 310.03 C 193.50 310.64 193.49 311.87 193.48 312.49 C 192.23 312.49 190.99 312.49 189.75 312.50 C 189.74 317.83 189.75 323.16 189.75 328.50 C 189.12 328.50 187.88 328.50 187.25 328.50 C 187.25 323.16 187.25 317.84 187.26 312.51 C 186.63 312.50 185.39 312.49 184.77 312.49 C 184.76 311.87 184.75 310.64 184.74 310.03 C 185.32 310.02 186.48 310.00 187.06 309.99 Z" />
<path fill="#ffffff" d=" M 300.01 303.24 C 300.69 303.24 302.06 303.25 302.75 303.26 C 302.75 305.49 302.74 307.72 302.74 309.96 C 304.02 309.99 305.29 310.03 306.57 310.07 C 306.54 310.62 306.47 311.71 306.44 312.26 C 305.21 312.25 303.98 312.24 302.75 312.24 C 302.75 317.66 302.75 323.08 302.74 328.50 C 301.82 328.49 300.91 328.49 300.00 328.49 C 300.00 323.07 300.00 317.66 300.00 312.24 C 299.25 312.24 297.75 312.24 297.00 312.24 C 297.00 311.68 297.00 310.57 297.00 310.01 C 297.75 310.00 299.25 310.00 300.00 310.00 C 300.00 307.74 300.00 305.49 300.01 303.24 Z" />
<path fill="#fefefe" d=" M 355.01 303.23 C 355.63 303.24 356.88 303.25 357.50 303.26 C 357.49 305.50 357.49 307.75 357.49 309.99 C 358.43 310.00 360.31 310.00 361.25 310.00 C 361.25 310.57 361.24 311.69 361.24 312.25 C 359.98 312.25 358.73 312.25 357.49 312.25 C 357.50 317.66 357.49 323.08 357.49 328.49 C 356.87 328.49 355.62 328.50 355.00 328.50 C 355.00 323.08 354.99 317.67 355.00 312.26 C 354.19 312.26 352.57 312.25 351.75 312.24 C 351.75 311.68 351.75 310.56 351.75 310.00 C 352.57 310.00 354.19 310.00 355.00 310.00 C 355.00 307.74 354.99 305.48 355.01 303.23 Z" />
<path fill="#fefffe" d=" M 85.14 313.15 C 88.65 308.20 97.23 308.50 100.45 313.62 C 101.71 315.31 101.85 317.47 102.29 319.47 C 96.67 319.53 91.06 319.43 85.45 319.54 C 86.20 321.87 86.99 324.55 89.39 325.73 C 93.07 327.85 97.48 325.42 99.62 322.22 C 100.16 322.56 101.24 323.25 101.78 323.59 C 99.28 327.77 94.15 330.23 89.41 328.48 C 83.16 326.63 81.30 318.03 85.14 313.15 Z" />
<path fill="#fefefe" d=" M 105.00 310.00 C 105.63 310.00 106.89 310.00 107.52 310.00 C 107.48 310.53 107.41 311.60 107.38 312.13 C 109.35 310.32 111.85 309.41 114.55 309.81 C 114.27 310.37 113.72 311.48 113.45 312.04 C 111.45 312.47 108.87 312.83 108.30 315.19 C 107.27 319.53 107.55 324.06 107.49 328.50 C 106.87 328.50 105.63 328.51 105.01 328.51 C 104.99 322.34 105.00 316.17 105.00 310.00 Z" />
<path fill="#ffffff" d=" M 115.76 310.00 C 116.39 310.00 117.65 310.00 118.28 310.00 C 118.24 310.68 118.17 312.05 118.14 312.73 C 120.06 311.11 122.22 309.22 124.94 309.72 C 127.36 309.64 128.89 311.62 130.36 313.21 C 132.86 309.18 139.86 308.00 142.22 312.73 C 143.94 317.77 143.01 323.27 143.24 328.50 C 142.56 328.50 141.19 328.50 140.51 328.49 C 140.44 324.38 140.70 320.26 140.39 316.16 C 140.38 313.53 137.61 311.62 135.14 312.32 C 132.62 312.89 131.04 315.40 130.89 317.87 C 130.56 321.40 130.80 324.96 130.75 328.51 C 130.13 328.51 128.87 328.50 128.25 328.50 C 128.20 324.01 128.52 319.49 127.79 315.04 C 126.61 311.03 120.61 311.64 119.24 315.23 C 117.70 319.46 118.39 324.09 118.25 328.50 C 117.62 328.49 116.38 328.49 115.75 328.48 C 115.75 322.32 115.76 316.16 115.76 310.00 Z" />
<path fill="#fffffe" d=" M 150.49 311.44 C 154.37 308.38 160.04 309.44 163.41 312.76 C 163.35 312.08 163.23 310.71 163.17 310.03 C 163.82 310.02 165.10 310.00 165.75 309.99 C 165.75 316.16 165.75 322.33 165.75 328.50 C 165.12 328.50 163.85 328.49 163.22 328.49 C 163.25 327.84 163.30 326.54 163.32 325.89 C 160.17 328.87 155.23 330.13 151.39 327.71 C 145.48 324.59 145.07 315.23 150.49 311.44 Z" />
<path fill="#ffffff" d=" M 195.51 310.01 C 196.13 310.01 197.37 310.00 198.00 310.00 C 197.99 316.16 198.00 322.33 198.00 328.49 C 197.38 328.49 196.13 328.49 195.51 328.49 C 195.51 322.33 195.51 316.17 195.51 310.01 Z" />
<path fill="#fefbfb" d=" M 201.50 310.00 C 202.14 310.00 203.41 310.00 204.05 310.00 C 204.02 310.53 203.95 311.59 203.91 312.12 C 205.94 310.32 208.45 309.29 211.20 309.92 C 210.19 313.01 205.88 311.90 204.92 314.88 C 203.48 319.25 204.16 323.97 204.01 328.50 C 203.38 328.50 202.13 328.50 201.50 328.50 C 201.50 322.33 201.50 316.16 201.50 310.00 Z" />
<path fill="#fefffe" d=" M 213.29 313.28 C 216.73 308.21 225.31 308.46 228.63 313.53 C 229.90 315.24 230.05 317.44 230.53 319.45 C 224.93 319.54 219.33 319.44 213.73 319.52 C 214.37 322.43 215.91 325.57 219.07 326.35 C 222.59 327.20 225.86 324.95 227.82 322.20 C 228.36 322.53 229.43 323.19 229.96 323.52 C 227.23 328.82 219.80 330.84 215.01 327.11 C 210.92 323.92 210.11 317.37 213.29 313.28 Z" />
<path fill="#ffffff" d=" M 243.25 309.99 C 243.89 310.00 245.16 310.01 245.79 310.02 C 245.75 310.74 245.67 312.19 245.63 312.92 C 249.17 308.97 255.92 308.35 259.60 312.42 C 264.58 317.01 262.51 326.58 255.93 328.51 C 252.30 329.88 248.51 328.25 245.71 325.92 C 245.76 328.94 245.75 331.97 245.75 335.00 C 245.13 335.00 243.88 335.00 243.25 335.00 C 243.26 326.66 243.25 318.32 243.25 309.99 Z" />
<path fill="#ffffff" d=" M 265.25 310.00 C 265.94 310.00 267.32 310.00 268.01 310.00 C 267.99 310.47 267.95 311.41 267.93 311.88 C 269.85 310.20 272.22 309.50 274.76 309.83 C 274.52 310.38 274.05 311.49 273.81 312.04 C 271.99 312.45 269.54 312.58 268.83 314.68 C 267.26 319.10 268.26 323.91 268.00 328.49 C 267.31 328.49 265.94 328.49 265.25 328.49 C 265.25 322.33 265.25 316.17 265.25 310.00 Z" />
<path fill="#fefefe" d=" M 281.30 310.17 C 287.60 307.60 295.27 313.10 294.27 319.97 C 294.42 327.16 285.33 331.50 279.55 327.53 C 273.01 323.70 274.10 312.59 281.30 310.17 Z" />
<path fill="#fefffe" d=" M 310.31 313.39 C 313.55 308.53 321.48 308.37 325.15 312.79 C 326.79 314.63 327.07 317.17 327.66 319.47 C 322.03 319.53 316.40 319.46 310.77 319.51 C 311.49 322.05 312.44 324.93 315.15 325.98 C 318.90 327.65 322.84 325.16 324.99 322.12 C 325.66 322.64 326.33 323.17 327.01 323.70 C 324.65 327.41 320.29 329.89 315.84 328.76 C 309.03 327.77 306.25 318.56 310.31 313.39 Z" />
<path fill="#ffffff" d=" M 337.20 310.07 C 341.29 308.97 347.45 309.82 348.88 314.47 C 347.05 315.72 345.62 313.71 344.06 312.99 C 339.95 310.40 333.80 313.20 333.03 317.99 C 332.31 321.89 335.23 326.02 339.23 326.45 C 342.32 327.09 345.10 325.28 347.34 323.39 C 347.84 323.77 348.82 324.55 349.32 324.93 C 345.21 329.81 336.87 330.55 332.53 325.62 C 327.99 320.68 330.68 311.67 337.20 310.07 Z" />
<path fill="#fffffe" d=" M 363.76 310.00 C 364.38 310.00 365.62 310.00 366.24 310.00 C 366.24 316.16 366.25 322.33 366.25 328.50 C 365.62 328.50 364.38 328.49 363.75 328.48 C 363.75 322.32 363.76 316.16 363.76 310.00 Z" />
<path fill="#feffff" d=" M 375.33 310.38 C 379.23 308.79 384.22 309.64 386.81 313.15 C 390.75 317.77 388.98 325.92 383.26 328.19 C 379.08 330.04 373.70 328.64 371.28 324.68 C 368.03 319.97 370.01 312.64 375.33 310.38 Z" />
<path fill="#ffffff" d=" M 392.76 310.00 C 393.39 310.00 394.66 310.00 395.29 310.01 C 395.25 310.68 395.16 312.01 395.11 312.68 C 397.15 311.21 399.28 309.41 401.97 309.63 C 404.91 309.48 407.71 311.64 408.27 314.53 C 409.18 319.13 408.60 323.85 408.74 328.50 C 408.06 328.50 406.68 328.50 406.00 328.50 C 405.93 324.33 406.19 320.15 405.88 316.00 C 405.87 313.56 403.41 311.75 401.09 312.01 C 398.09 312.25 395.58 314.89 395.39 317.89 C 395.06 321.41 395.29 324.95 395.25 328.48 C 394.63 328.49 393.38 328.49 392.76 328.50 C 392.75 322.33 392.75 316.16 392.76 310.00 Z" />
<path fill="#f40001" d=" M 85.83 317.19 C 87.09 315.04 88.56 312.54 91.31 312.23 C 94.92 311.31 98.03 314.19 99.54 317.19 C 94.97 317.29 90.40 317.28 85.83 317.19 Z" />
<path fill="#f40000" d=" M 153.54 312.71 C 158.29 310.38 164.15 314.85 163.31 320.04 C 163.32 325.76 155.26 328.82 151.53 324.46 C 147.74 321.23 149.04 314.57 153.54 312.71 Z" />
<path fill="#f50100" d=" M 214.07 317.18 C 215.44 314.53 217.67 311.83 220.98 312.08 C 224.17 312.01 226.34 314.69 227.79 317.19 C 223.22 317.28 218.65 317.29 214.07 317.18 Z" />
<path fill="#f40000" d=" M 250.43 312.45 C 255.45 310.61 260.97 315.74 259.58 320.85 C 258.68 325.82 251.95 328.49 248.18 324.83 C 243.96 321.57 245.36 314.04 250.43 312.45 Z" />
<path fill="#f40000" d=" M 282.50 312.53 C 287.76 310.45 293.42 316.43 291.38 321.58 C 290.07 326.84 282.30 328.21 279.26 323.74 C 276.27 320.09 278.11 314.08 282.50 312.53 Z" />
<path fill="#f40000" d=" M 311.06 317.17 C 312.52 314.60 314.71 311.77 318.03 312.09 C 321.21 312.04 323.40 314.66 324.84 317.18 C 320.25 317.29 315.65 317.30 311.06 317.17 Z" />
<path fill="#f40000" d=" M 377.35 312.46 C 382.60 310.65 387.97 316.67 385.87 321.72 C 384.54 326.42 377.79 328.20 374.51 324.45 C 370.54 320.94 372.41 313.92 377.35 312.46 Z" />
</svg>
